{
.appVersion = "1320";
DisplayStrings = (
"67534819673810139456748310325793156745310489173654743810948756784310934816574831089376215480143796543174905831653467013657831256749318013457896431870138495634109653470843165413675348196738101394567483103257931567465310489173654743810948756784310934816574831089376215480143796543174905831653467013657831256749318013457896431870138495634109653470843165413\0127172737475767787970",
"AMAZINGLY/space FEW/space DISCOTHEQUES/space PROVIDE/space JUKEBOXES\012amazingly/space few/space discotheques/space provide/space jukeboxes\012\012Suzy/space mishandled/space the/space rogue/space axe,/space requiring/space five/space backwards/space jumps\012QUANTUM/space PRETZELS/space BRING/space YOU/space JUICY/space HEXADECIMAL/space FLAVORS/space FOR/space WEEKS\012heck,/space abolish/space flamethrowing/space oxen/space to/space quiver/space joyful/space trapezoids\012YOUR/space WACK/space EMOJI/space RAP/space BLAZED/space EXACTLY/space FIVE/space DOZEN/space QUASI-GHOSTS/space \01201234567891237654210\012\012\012"
);
classes = (
{
automatic = 1;

glyphs = (
{
glyphname = A;
lastChange = "2020-02-19 21:24:52 +0000";
layers = (
{
anchors = (
{
name = bottom;
position = "{564, 0}";
},
{
name = ogonek;
position = "{778, 17}";
},
{
name = top;
position = "{650, 1327}";
}
);
layerId = "B5042207-EFBA-41B6-8DFD-104A953B46A6";
paths = (
{
closed = 1;
nodes = (
"440 57 OFFCURVE",
"461 178 OFFCURVE",
"487 291 CURVE",
"525 299 OFFCURVE",
"589 306 OFFCURVE",
"695 308 CURVE",
"695 190 OFFCURVE",
"695 80 OFFCURVE",
"702 -15 CURVE",
"839 -14 OFFCURVE",
"1057 -3 OFFCURVE",
"1157 7 CURVE",
"1096 783 OFFCURVE",
"1038 1089 OFFCURVE",
"986 1323 CURVE",
"904 1333 OFFCURVE",
"825 1338 OFFCURVE",
"743 1338 CURVE SMOOTH",
"615 1338 OFFCURVE",
"479 1327 OFFCURVE",
"308 1306 CURVE",
"203 940 OFFCURVE",
"44 271 OFFCURVE",
"-3 -2 CURVE",
"103 -7 OFFCURVE",
"357 -15 OFFCURVE",
"432 -15 CURVE"
);
},
{
closed = 1;
nodes = (
"544 672 OFFCURVE",
"571 911 OFFCURVE",
"588 995 CURVE",
"605 997 OFFCURVE",
"662 1002 OFFCURVE",
"687 1002 CURVE",
"687 976 OFFCURVE",
"687 692 OFFCURVE",
"687 651 CURVE",
"648 650 OFFCURVE",
"564 644 OFFCURVE",
"537 639 CURVE"
);
}
);
width = 1212;
},
{
anchors = (
{
name = bottom;
position = "{607, 0}";
},
{
name = ogonek;
position = "{881, 12}";
},
{
name = top;
position = "{620, 1323}";
}
);
layerId = "B5195C1E-69AB-4BC6-9855-DF55601A0735";
paths = (
{
closed = 1;
nodes = (
"255 91 OFFCURVE",
"297 318 OFFCURVE",
"340 525 CURVE",
"378 533 OFFCURVE",
"721 561 OFFCURVE",
"827 562 CURVE",
"838 467 OFFCURVE",
"856 80 OFFCURVE",
"865 -15 CURVE",
"894 -15 OFFCURVE",
"925 -12 OFFCURVE",
"952 -5 CURVE",
"911 621 OFFCURVE",
"865 1089 OFFCURVE",
"814 1323 CURVE",
"782 1327 OFFCURVE",
"737 1329 OFFCURVE",
"702 1329 CURVE SMOOTH",
"586 1329 OFFCURVE",
"468 1311 OFFCURVE",
"440 1304 CURVE",
"360 996 OFFCURVE",
"184 165 OFFCURVE",
"154 -7 CURVE",
"171 -12 OFFCURVE",
"202 -15 OFFCURVE",
"239 -15 CURVE"
);
},
{
closed = 1;
nodes = (
"425 941 OFFCURVE",
"485 1173 OFFCURVE",
"501 1231 CURVE",
"543 1237 OFFCURVE",
"695 1250 OFFCURVE",
"754 1250 CURVE",
"783 1096 OFFCURVE",
"814 745 OFFCURVE",
"822 638 CURVE",
"674 632 OFFCURVE",
"453 612 OFFCURVE",
"354 591 CURVE"
);
}
);
width = 1212;
},
{
anchors = (
{
name = bottom;
position = "{528, 0}";
},
{
name = ogonek;
position = "{741, 10}";
},
{
name = top;
position = "{864, 1323}";
}
);
layerId = "82219AB4-7C60-4B3A-9196-329BE868CB10";
paths = (
{
closed = 1;
nodes = (
"150 91 OFFCURVE",
"253 318 OFFCURVE",
"352 525 CURVE",
"392 533 OFFCURVE",
"742 561 OFFCURVE",
"849 562 CURVE",
"834 467 OFFCURVE",
"748 80 OFFCURVE",
"732 -15 CURVE",
"761 -15 OFFCURVE",
"790 -12 OFFCURVE",
"819 -5 CURVE",
"945 621 OFFCURVE",
"1025 1089 OFFCURVE",
"1036 1323 CURVE",
"1006 1327 OFFCURVE",
"964 1329 OFFCURVE",
"929 1329 CURVE SMOOTH",
"813 1329 OFFCURVE",
"681 1311 OFFCURVE",
"651 1304 CURVE",
"489 996 OFFCURVE",
"92 165 OFFCURVE",
"16 -7 CURVE",
"32 -12 OFFCURVE",
"69 -15 OFFCURVE",
"106 -15 CURVE"
);
},
{
closed = 1;
nodes = (
"552 944 OFFCURVE",
"670 1173 OFFCURVE",
"702 1231 CURVE",
"745 1237 OFFCURVE",
"901 1250 OFFCURVE",
"960 1250 CURVE",
"948 1096 OFFCURVE",
"885 744 OFFCURVE",
"864 637 CURVE",
"714 631 OFFCURVE",
"492 615 OFFCURVE",
"387 594 CURVE"
);
}
);
width = 1212;
},
{
anchors = (
{
name = bottom;
position = "{485, 0}";
},
{
name = ogonek;
position = "{706, 17}";
},
{
name = top;
position = "{893, 1337}";
}
);
layerId = "63DB0068-8B02-4205-807F-6F2453D24B26";
paths = (
{
closed = 1;
nodes = (
"348 57 OFFCURVE",
"395 178 OFFCURVE",
"448 291 CURVE",
"488 299 OFFCURVE",
"554 306 OFFCURVE",
"660 308 CURVE",
"629 190 OFFCURVE",
"608 80 OFFCURVE",
"590 -15 CURVE",
"727 -14 OFFCURVE",
"939 -3 OFFCURVE",
"1042 7 CURVE",
"1189 783 OFFCURVE",
"1213 1089 OFFCURVE",
"1223 1323 CURVE",
"1144 1333 OFFCURVE",
"1066 1338 OFFCURVE",
"984 1338 CURVE SMOOTH",
"856 1338 OFFCURVE",
"704 1327 OFFCURVE",
"528 1306 CURVE",
"325 940 OFFCURVE",
"-4 271 OFFCURVE",
"-124 -2 CURVE",
"-19 -7 OFFCURVE",
"246 -15 OFFCURVE",
"321 -15 CURVE"
);
},
{
closed = 1;
nodes = (
"607 672 OFFCURVE",
"708 911 OFFCURVE",
"747 995 CURVE",
"765 997 OFFCURVE",
"813 1002 OFFCURVE",
"838 1002 CURVE",
"831 976 OFFCURVE",
"755 692 OFFCURVE",
"744 651 CURVE",
"705 650 OFFCURVE",
"619 644 OFFCURVE",
"591 639 CURVE"
);
}
);
width = 1212;
}
);
leftKerningGroup = A;
rightKerningGroup = A;
unicode = 0041;
},
{
glyphname = B;
lastChange = "2020-01-05 14:43:45 +0000";
layers = (
{
anchors = (
{
name = bottom;
position = "{587, 0}";
},
{
name = top;
position = "{587, 1291}";
}
);
layerId = "B5042207-EFBA-41B6-8DFD-104A953B46A6";
paths = (
{
closed = 1;
nodes = (
"146 10 OFFCURVE",
"257 2 OFFCURVE",
"372 2 CURVE SMOOTH",
"822 2 OFFCURVE",
"1106 77 OFFCURVE",
"1106 444 CURVE SMOOTH",
"1106 608 OFFCURVE",
"994 721 OFFCURVE",
"812 736 CURVE SMOOTH",
"800 737 OFFCURVE",
"793 737 OFFCURVE",
"786 737 CURVE",
"877 752 OFFCURVE",
"1020 834 OFFCURVE",
"1020 1000 CURVE SMOOTH",
"1020 1222 OFFCURVE",
"848 1311 OFFCURVE",
"602 1306 CURVE SMOOTH",
"441 1303 OFFCURVE",
"233 1292 OFFCURVE",
"106 1285 CURVE",
"106 1256 OFFCURVE",
"75 209 OFFCURVE",
"75 27 CURVE"
);
},
{
closed = 1;
nodes = (
"475 543 LINE",
"520 548 OFFCURVE",
"552 550 OFFCURVE",
"586 550 CURVE SMOOTH",
"725 550 OFFCURVE",
"737 507 OFFCURVE",
"737 466 CURVE SMOOTH",
"737 400 OFFCURVE",
"621 372 OFFCURVE",
"537 372 CURVE SMOOTH",
"516 372 OFFCURVE",
"497 372 OFFCURVE",
"484 373 CURVE"
);
},
{
closed = 1;
nodes = (
"463 1012 LINE",
"504 1017 OFFCURVE",
"557 1023 OFFCURVE",
"590 1023 CURVE SMOOTH",
"644 1023 OFFCURVE",
"689 990 OFFCURVE",
"689 945 CURVE SMOOTH",
"689 881 OFFCURVE",
"604 857 OFFCURVE",
"525 857 CURVE SMOOTH",
"508 857 OFFCURVE",
"490 857 OFFCURVE",
"470 857 CURVE"
);
}
);
width = 1174;
},
{
anchors = (
{
name = bottom;
position = "{587, 0}";
},
{
name = top;
position = "{587, 1291}";
}
);
layerId = "B5195C1E-69AB-4BC6-9855-DF55601A0735";
paths = (
{
closed = 1;
nodes = (
"244 6 OFFCURVE",
"296 4 OFFCURVE",
"350 4 CURVE SMOOTH",
"702 4 OFFCURVE",
"1031 64 OFFCURVE",
"1031 386 CURVE SMOOTH",
"1031 556 OFFCURVE",
"876 666 OFFCURVE",
"710 666 CURVE SMOOTH",
"702 666 OFFCURVE",
"695 666 OFFCURVE",
"689 665 CURVE",
"805 695 OFFCURVE",
"902 871 OFFCURVE",
"902 1010 CURVE SMOOTH",
"902 1217 OFFCURVE",
"750 1306 OFFCURVE",
"550 1306 CURVE SMOOTH",
"390 1306 OFFCURVE",
"354 1292 OFFCURVE",
"207 1285 CURVE",
"207 1256 OFFCURVE",
"198 193 OFFCURVE",
"198 12 CURVE"
);
},
{
closed = 1;
nodes = (
"294 610 LINE",
"338 615 OFFCURVE",
"501 617 OFFCURVE",
"535 617 CURVE SMOOTH",
"735 617 OFFCURVE",
"954 579 OFFCURVE",
"954 383 CURVE SMOOTH",
"954 117 OFFCURVE",
"657 80 OFFCURVE",
"331 80 CURVE SMOOTH",
"310 80 OFFCURVE",
"294 80 OFFCURVE",
"287 80 CURVE"
);
},
{
closed = 1;
nodes = (
"291 1221 LINE",
"336 1228 OFFCURVE",
"435 1241 OFFCURVE",
"532 1241 CURVE SMOOTH",
"711 1241 OFFCURVE",
"820 1185 OFFCURVE",
"820 1003 CURVE SMOOTH",
"820 895 OFFCURVE",
"768 783 OFFCURVE",
"691 737 CURVE SMOOTH",
"617 692 OFFCURVE",
"515 682 OFFCURVE",
"292 680 CURVE"
);
}
);
width = 1174;
},
{
anchors = (
{
name = bottom;
position = "{444.585, 0}";
},
{
name = top;
position = "{790.507, 1291}";
}
);
layerId = "82219AB4-7C60-4B3A-9196-329BE868CB10";
paths = (
{
closed = 1;
nodes = (
"110 6 OFFCURVE",
"172 4 OFFCURVE",
"226 4 CURVE SMOOTH",
"605 4 OFFCURVE",
"1008 72 OFFCURVE",
"1008 424 CURVE SMOOTH",
"1008 555 OFFCURVE",
"888 665 OFFCURVE",
"745 665 CURVE SMOOTH",
"737 665 OFFCURVE",
"736 665 OFFCURVE",
"732 665 CURVE",
"881 701 OFFCURVE",
"1050 863 OFFCURVE",
"1050 1059 CURVE SMOOTH",
"1050 1243 OFFCURVE",
"932 1306 OFFCURVE",
"764 1306 CURVE SMOOTH",
"604 1306 OFFCURVE",
"565 1292 OFFCURVE",
"416 1285 CURVE",
"404 1243 OFFCURVE",
"114 193 OFFCURVE",
"66 12 CURVE"
);
},
{
closed = 1;
nodes = (
"322 610 LINE",
"367 615 OFFCURVE",
"531 617 OFFCURVE",
"565 617 CURVE SMOOTH",
"799 617 OFFCURVE",
"929 569 OFFCURVE",
"929 411 CURVE SMOOTH",
"929 105 OFFCURVE",
"547 80 OFFCURVE",
"217 80 CURVE SMOOTH",
"196 80 OFFCURVE",
"180 80 OFFCURVE",
"173 80 CURVE"
);
},
{
closed = 1;
nodes = (
"483 1221 LINE",
"530 1228 OFFCURVE",
"632 1241 OFFCURVE",
"729 1241 CURVE SMOOTH",
"876 1241 OFFCURVE",
"966 1203 OFFCURVE",
"966 1048 CURVE SMOOTH",
"966 894 OFFCURVE",
"869 797 OFFCURVE",
"753 737 CURVE SMOOTH",
"667 692 OFFCURVE",
"562 682 OFFCURVE",
"339 680 CURVE"
);
}
);
width = 1174;
},
{
anchors = (
{
name = bottom;
position = "{444.585, 0}";
},
{
name = top;
position = "{790.507, 1291}";
}
);
layerId = "63DB0068-8B02-4205-807F-6F2453D24B26";
paths = (
{
closed = 1;
nodes = (
"13 10 OFFCURVE",
"122 2 OFFCURVE",
"237 2 CURVE SMOOTH",
"694 2 OFFCURVE",
"1102 136 OFFCURVE",
"1102 490 CURVE SMOOTH",
"1102 637 OFFCURVE",
"1018 724 OFFCURVE",
"874 736 CURVE SMOOTH",
"862 737 OFFCURVE",
"855 737 OFFCURVE",
"848 737 CURVE",
"1015 763 OFFCURVE",
"1166 895 OFFCURVE",
"1166 1063 CURVE SMOOTH",
"1166 1229 OFFCURVE",
"1027 1310 OFFCURVE",
"817 1306 CURVE SMOOTH",
"655 1303 OFFCURVE",
"444 1292 OFFCURVE",
"315 1285 CURVE",
"307 1256 OFFCURVE",
"-4 209 OFFCURVE",
"-53 27 CURVE"
);
},
{
closed = 1;
nodes = (
"485 543 LINE",
"532 548 OFFCURVE",
"564 550 OFFCURVE",
"598 550 CURVE SMOOTH",
"707 550 OFFCURVE",
"731 524 OFFCURVE",
"731 493 CURVE SMOOTH",
"731 403 OFFCURVE",
"596 372 OFFCURVE",
"501 372 CURVE SMOOTH",
"480 372 OFFCURVE",
"461 372 OFFCURVE",
"449 373 CURVE"
);
},
{
closed = 1;
nodes = (
"599 1012 LINE",
"641 1017 OFFCURVE",
"696 1023 OFFCURVE",
"729 1023 CURVE SMOOTH",
"776 1023 OFFCURVE",
"809 998 OFFCURVE",
"809 962 CURVE SMOOTH",
"809 886 OFFCURVE",
"702 857 OFFCURVE",
"619 857 CURVE SMOOTH",
"602 857 OFFCURVE",
"584 857 OFFCURVE",
"564 857 CURVE"
);
}
);
width = 1174;
}
);
leftKerningGroup = H;
rightKerningGroup = B;
unicode = 0042;
},
{
glyphname = C;
lastChange = "2020-01-13 21:39:01 +0000";
layers = (
{
anchors = (
{
name = bottom;
position = "{569, 0}";
},
{
name = top;
position = "{569, 1291}";
}
);
layerId = "B5042207-EFBA-41B6-8DFD-104A953B46A6";
paths = (
{
closed = 1;
nodes = (
"1063 308 OFFCURVE",
"930 434 OFFCURVE",
"839 499 CURVE",
"768 426 OFFCURVE",
"689 390 OFFCURVE",
"620 390 CURVE SMOOTH",
"483 390 OFFCURVE",
"454 534 OFFCURVE",
"454 695 CURVE SMOOTH",
"454 836 OFFCURVE",
"501 982 OFFCURVE",
"628 982 CURVE SMOOTH",
"733 982 OFFCURVE",
"797 855 OFFCURVE",
"803 834 CURVE",
"885 885 OFFCURVE",
"1032 995 OFFCURVE",
"1101 1070 CURVE",
"997 1246 OFFCURVE",
"814 1326 OFFCURVE",
"612 1326 CURVE SMOOTH",
"238 1326 OFFCURVE",
"25 1049 OFFCURVE",
"25 659 CURVE SMOOTH",
"25 256 OFFCURVE",
"233 -14 OFFCURVE",
"627 -14 CURVE SMOOTH",
"841 -14 OFFCURVE",
"1017 103 OFFCURVE",
"1118 215 CURVE"
);
}
);
width = 1137;
},
{
anchors = (
{
name = bottom;
position = "{569, 0}";
},
{
name = top;
position = "{569, 1291}";
}
);
layerId = "B5195C1E-69AB-4BC6-9855-DF55601A0735";
paths = (
{
closed = 1;
nodes = (
"1026 299 OFFCURVE",
"986 332 OFFCURVE",
"973 338 CURVE",
"906 241 OFFCURVE",
"778 72 OFFCURVE",
"552 72 CURVE SMOOTH",
"359 72 OFFCURVE",
"158 323 OFFCURVE",
"158 662 CURVE SMOOTH",
"158 1103 OFFCURVE",
"375 1241 OFFCURVE",
"547 1241 CURVE SMOOTH",
"824 1241 OFFCURVE",
"900 1090 OFFCURVE",
"926 1038 CURVE",
"943 1049 OFFCURVE",
"983 1079 OFFCURVE",
"993 1093 CURVE",
"922 1230 OFFCURVE",
"750 1326 OFFCURVE",
"566 1326 CURVE SMOOTH",
"237 1326 OFFCURVE",
"65 1034 OFFCURVE",
"65 676 CURVE SMOOTH",
"65 313 OFFCURVE",
"253 -7 OFFCURVE",
"554 -7 CURVE SMOOTH",
"781 -7 OFFCURVE",
"933 127 OFFCURVE",
"1034 289 CURVE"
);
}
);
width = 1137;
},
{
anchors = (
{
name = bottom;
position = "{397, 0}";
},
{
name = top;
position = "{743, 1291}";
}
);
layerId = "82219AB4-7C60-4B3A-9196-329BE868CB10";
paths = (
{
closed = 1;
nodes = (
"1009 299 OFFCURVE",
"969 332 OFFCURVE",
"958 338 CURVE",
"875 241 OFFCURVE",
"709 72 OFFCURVE",
"483 72 CURVE SMOOTH",
"299 72 OFFCURVE",
"207 227 OFFCURVE",
"207 485 CURVE SMOOTH",
"207 825 OFFCURVE",
"451 1241 OFFCURVE",
"793 1241 CURVE SMOOTH",
"1070 1241 OFFCURVE",
"1099 1087 OFFCURVE",
"1107 1038 CURVE",
"1127 1049 OFFCURVE",
"1175 1079 OFFCURVE",
"1189 1093 CURVE",
"1155 1230 OFFCURVE",
"997 1326 OFFCURVE",
"813 1326 CURVE SMOOTH",
"419 1326 OFFCURVE",
"112 902 OFFCURVE",
"112 463 CURVE SMOOTH",
"112 221 OFFCURVE",
"220 -7 OFFCURVE",
"475 -7 CURVE SMOOTH",
"702 -7 OFFCURVE",
"880 127 OFFCURVE",
"1015 289 CURVE"
);
}
);
width = 1137;
},
{
anchors = (
{
name = bottom;
position = "{426.585, 0}";
},
{
name = top;
position = "{772.507, 1291}";
}
);
layerId = "63DB0068-8B02-4205-807F-6F2453D24B26";
paths = (
{
closed = 1;
nodes = (
"1009 278 OFFCURVE",
"910 434 OFFCURVE",
"836 499 CURVE",
"745 426 OFFCURVE",
"657 390 OFFCURVE",
"588 390 CURVE SMOOTH",
"504 390 OFFCURVE",
"475 464 OFFCURVE",
"475 563 CURVE SMOOTH",
"475 757 OFFCURVE",
"581 982 OFFCURVE",
"744 982 CURVE SMOOTH",
"849 982 OFFCURVE",
"889 855 OFFCURVE",
"890 834 CURVE",
"985 885 OFFCURVE",
"1152 995 OFFCURVE",
"1241 1070 CURVE",
"1184 1246 OFFCURVE",
"993 1326 OFFCURVE",
"791 1326 CURVE SMOOTH",
"353 1326 OFFCURVE",
"33 930 OFFCURVE",
"33 473 CURVE SMOOTH",
"33 198 OFFCURVE",
"201 -14 OFFCURVE",
"516 -14 CURVE SMOOTH",
"730 -14 OFFCURVE",
"908 73 OFFCURVE",
"1039 185 CURVE"
);
}
);
width = 1137;
}
);
leftKerningGroup = O;
rightKerningGroup = C;
unicode = 0043;
},
{
glyphname = D;
lastChange = "2020-01-13 21:07:55 +0000";
layers = (
{
anchors = (
{
name = bottom;
position = "{599, 0}";
},
{
name = center;
position = "{304, 646}";
},
{
name = top;
position = "{599, 1291}";
}
);
layerId = "B5042207-EFBA-41B6-8DFD-104A953B46A6";
paths = (
{
closed = 1;
nodes = (
"832 -34 OFFCURVE",
"1137 6 OFFCURVE",
"1137 586 CURVE SMOOTH",
"1137 1093 OFFCURVE",
"956 1325 OFFCURVE",
"451 1325 CURVE SMOOTH",
"304 1325 OFFCURVE",
"137 1305 OFFCURVE",
"32 1299 CURVE",
"42 1152 OFFCURVE",
"111 178 OFFCURVE",
"137 -34 CURVE"
);
},
{
closed = 1;
nodes = (
"502 575 OFFCURVE",
"484 773 OFFCURVE",
"474 978 CURVE",
"487 979 OFFCURVE",
"513 979 OFFCURVE",
"533 979 CURVE SMOOTH",
"684 979 OFFCURVE",
"739 801 OFFCURVE",
"739 582 CURVE SMOOTH",
"739 443 OFFCURVE",
"690 373 OFFCURVE",
"512 381 CURVE"
);
}
);
width = 1198;
},
{
anchors = (
{
name = bottom;
position = "{599, 0}";
},
{
name = center;
position = "{360, 646}";
},
{
name = top;
position = "{599, 1291}";
}
);
layerId = "B5195C1E-69AB-4BC6-9855-DF55601A0735";
paths = (
{
closed = 1;
nodes = (
"775 -8 OFFCURVE",
"971 125 OFFCURVE",
"971 575 CURVE SMOOTH",
"971 1082 OFFCURVE",
"850 1325 OFFCURVE",
"393 1325 CURVE SMOOTH",
"319 1325 OFFCURVE",
"173 1308 OFFCURVE",
"137 1299 CURVE",
"138 1268 OFFCURVE",
"231 219 OFFCURVE",
"258 -27 CURVE"
);
},
{
closed = 1;
nodes = (
"288 427 OFFCURVE",
"255 867 OFFCURVE",
"229 1251 CURVE",
"273 1254 OFFCURVE",
"315 1256 OFFCURVE",
"354 1256 CURVE SMOOTH",
"767 1256 OFFCURVE",
"898 1104 OFFCURVE",
"898 591 CURVE SMOOTH",
"898 201 OFFCURVE",
"747 86 OFFCURVE",
"329 53 CURVE"
);
}
);
width = 1198;
},
{
anchors = (
{
name = bottom;
position = "{456.585, 0}";
},
{
name = center;
position = "{415, 646}";
},
{
name = top;
position = "{802.507, 1291}";
}
);
layerId = "82219AB4-7C60-4B3A-9196-329BE868CB10";
paths = (
{
closed = 1;
nodes = (
"824 -4 OFFCURVE",
"1069 227 OFFCURVE",
"1069 856 CURVE SMOOTH",
"1069 1130 OFFCURVE",
"954 1325 OFFCURVE",
"644 1325 CURVE SMOOTH",
"570 1325 OFFCURVE",
"420 1308 OFFCURVE",
"381 1299 CURVE",
"374 1268 OFFCURVE",
"186 219 OFFCURVE",
"147 -27 CURVE"
);
},
{
closed = 1;
nodes = (
"299 427 OFFCURVE",
"382 865 OFFCURVE",
"459 1249 CURVE",
"504 1252 OFFCURVE",
"586 1256 OFFCURVE",
"625 1256 CURVE SMOOTH",
"906 1256 OFFCURVE",
"989 1108 OFFCURVE",
"989 848 CURVE SMOOTH",
"989 317 OFFCURVE",
"804 93 OFFCURVE",
"239 53 CURVE"
);
}
);
width = 1198;
},
{
anchors = (
{
name = bottom;
position = "{456.585, 0}";
},
{
name = center;
position = "{354, 646}";
},
{
name = top;
position = "{802.507, 1291}";
}
);
layerId = "63DB0068-8B02-4205-807F-6F2453D24B26";
paths = (
{
closed = 1;
nodes = (
"890 -34 OFFCURVE",
"1204 150 OFFCURVE",
"1204 810 CURVE SMOOTH",
"1204 1164 OFFCURVE",
"1049 1325 OFFCURVE",
"653 1325 CURVE SMOOTH",
"506 1325 OFFCURVE",
"364 1305 OFFCURVE",
"257 1299 CURVE",
"228 1152 OFFCURVE",
"36 178 OFFCURVE",
"5 -34 CURVE"
);
},
{
closed = 1;
nodes = (
"533 575 OFFCURVE",
"568 773 OFFCURVE",
"613 978 CURVE",
"626 979 OFFCURVE",
"652 979 OFFCURVE",
"672 979 CURVE SMOOTH",
"768 979 OFFCURVE",
"806 907 OFFCURVE",
"806 779 CURVE SMOOTH",
"806 523 OFFCURVE",
"712 381 OFFCURVE",
"491 381 CURVE"
);
}
);
width = 1198;
}
);
leftKerningGroup = H;
rightKerningGroup = O;
unicode = 0044;
},
{
glyphname = E;
lastChange = "2020-04-09 00:25:21 +0000";
layers = (
{
anchors = (
{
name = bottom;
position = "{499, 0}";
},
{
name = ogonek;
position = "{579, 22}";
},
{
name = top;
position = "{499, 1321}";
},
{
name = topleft;
position = "{40, 1291}";
}
);
layerId = "B5042207-EFBA-41B6-8DFD-104A953B46A6";
paths = (
{
closed = 1;
nodes = (
"827 22 OFFCURVE",
"854 267 OFFCURVE",
"854 400 CURVE",
"805 404 OFFCURVE",
"715 407 OFFCURVE",
"633 408 CURVE SMOOTH",
"545 410 OFFCURVE",
"466 410 OFFCURVE",
"456 410 CURVE",
"455 421 OFFCURVE",
"455 436 OFFCURVE",
"455 451 CURVE SMOOTH",
"455 490 OFFCURVE",
"457 546 OFFCURVE",
"459 567 CURVE",
"494 567 OFFCURVE",
"745 550 OFFCURVE",
"779 550 CURVE",
"785 616 OFFCURVE",
"791 691 OFFCURVE",
"791 767 CURVE SMOOTH",
"791 804 OFFCURVE",
"789 855 OFFCURVE",
"786 892 CURVE",
"689 892 OFFCURVE",
"557 885 OFFCURVE",
"468 885 CURVE",
"466 904 OFFCURVE",
"468 961 OFFCURVE",
"471 978 CURVE",
"844 1009 LINE",
"854 1123 OFFCURVE",
"862 1226 OFFCURVE",
"862 1330 CURVE",
"807 1330 OFFCURVE",
"471 1328 OFFCURVE",
"82 1251 CURVE",
"77 1153 OFFCURVE",
"69 945 OFFCURVE",
"69 670 CURVE SMOOTH",
"69 483 OFFCURVE",
"73 266 OFFCURVE",
"82 31 CURVE",
"204 23 OFFCURVE",
"327 15 OFFCURVE",
"449 8 CURVE SMOOTH",
"571 0 OFFCURVE",
"693 -8 OFFCURVE",
"815 -15 CURVE"
);
}
);
width = 957;
},
{
anchors = (
{
name = bottom;
position = "{479, 0}";
},
{
name = ogonek;
position = "{588, 20}";
},
{
name = top;
position = "{479, 1311}";
},
{
name = topleft;
position = "{20, 1291}";
}
);
layerId = "B5195C1E-69AB-4BC6-9855-DF55601A0735";
paths = (
{
closed = 1;
nodes = (
"826 9 OFFCURVE",
"832 39 OFFCURVE",
"834 67 CURVE",
"758 73 OFFCURVE",
"572 80 OFFCURVE",
"413 80 CURVE SMOOTH",
"360 80 OFFCURVE",
"266 79 OFFCURVE",
"226 77 CURVE",
"226 208 OFFCURVE",
"228 332 OFFCURVE",
"230 435 CURVE SMOOTH",
"232 555 OFFCURVE",
"235 647 OFFCURVE",
"235 690 CURVE",
"271 690 OFFCURVE",
"768 696 OFFCURVE",
"788 694 CURVE",
"789 703 OFFCURVE",
"790 716 OFFCURVE",
"790 729 CURVE SMOOTH",
"790 744 OFFCURVE",
"788 758 OFFCURVE",
"786 762 CURVE",
"622 762 OFFCURVE",
"399 757 OFFCURVE",
"235 757 CURVE",
"235 842 OFFCURVE",
"238 1109 OFFCURVE",
"243 1197 CURVE",
"834 1244 LINE",
"837 1271 OFFCURVE",
"838 1284 OFFCURVE",
"838 1318 CURVE",
"783 1318 OFFCURVE",
"496 1299 OFFCURVE",
"157 1251 CURVE",
"157 1236 OFFCURVE",
"147 946 OFFCURVE",
"147 580 CURVE SMOOTH",
"147 398 OFFCURVE",
"150 197 OFFCURVE",
"157 2 CURVE",
"220 4 OFFCURVE",
"302 5 OFFCURVE",
"365 5 CURVE SMOOTH",
"525 5 OFFCURVE",
"664 0 OFFCURVE",
"821 -9 CURVE"
);
}
);
width = 957;
},
{
anchors = (
{
name = bottom;
position = "{336.585, 0}";
},
{
name = ogonek;
position = "{467, 20}";
},
{
name = top;
position = "{683, 1311}";
},
{
name = topleft;
position = "{223.507, 1291}";
}
);
layerId = "82219AB4-7C60-4B3A-9196-329BE868CB10";
paths = (
{
closed = 1;
nodes = (
"703 9 OFFCURVE",
"717 39 OFFCURVE",
"727 67 CURVE",
"652 73 OFFCURVE",
"468 80 OFFCURVE",
"309 80 CURVE SMOOTH",
"256 80 OFFCURVE",
"162 79 OFFCURVE",
"121 77 CURVE",
"154 201 OFFCURVE",
"188 319 OFFCURVE",
"216 419 CURVE SMOOTH",
"253 547 OFFCURVE",
"283 646 OFFCURVE",
"295 690 CURVE",
"331 690 OFFCURVE",
"829 696 OFFCURVE",
"849 694 CURVE",
"852 703 OFFCURVE",
"856 716 OFFCURVE",
"860 729 CURVE SMOOTH",
"865 744 OFFCURVE",
"867 758 OFFCURVE",
"867 762 CURVE",
"703 762 OFFCURVE",
"477 757 OFFCURVE",
"313 757 CURVE",
"330 833 OFFCURVE",
"411 1115 OFFCURVE",
"436 1197 CURVE",
"1042 1244 LINE",
"1052 1267 OFFCURVE",
"1059 1287 OFFCURVE",
"1066 1318 CURVE",
"1011 1318 OFFCURVE",
"719 1299 OFFCURVE",
"367 1251 CURVE",
"363 1236 OFFCURVE",
"276 946 OFFCURVE",
"177 580 CURVE SMOOTH",
"128 398 OFFCURVE",
"74 197 OFFCURVE",
"25 2 CURVE",
"89 4 OFFCURVE",
"178 5 OFFCURVE",
"241 5 CURVE SMOOTH",
"401 5 OFFCURVE",
"539 0 OFFCURVE",
"693 -9 CURVE"
);
}
);
width = 957;
},
{
anchors = (
{
name = bottom;
position = "{337, 0}";
},
{
name = ogonek;
position = "{407, 30}";
},
{
name = top;
position = "{683, 1321}";
},
{
name = topleft;
position = "{224, 1291}";
}
);
layerId = "63DB0068-8B02-4205-807F-6F2453D24B26";
paths = (
{
closed = 1;
nodes = (
"717 22 OFFCURVE",
"809 267 OFFCURVE",
"845 400 CURVE",
"797 404 OFFCURVE",
"708 410 OFFCURVE",
"626 410 CURVE SMOOTH",
"539 410 OFFCURVE",
"469 410 OFFCURVE",
"449 410 CURVE",
"452 421 OFFCURVE",
"456 436 OFFCURVE",
"460 451 CURVE SMOOTH",
"470 490 OFFCURVE",
"487 546 OFFCURVE",
"495 567 CURVE",
"530 567 OFFCURVE",
"776 550 OFFCURVE",
"810 550 CURVE",
"834 616 OFFCURVE",
"859 691 OFFCURVE",
"880 767 CURVE SMOOTH",
"890 804 OFFCURVE",
"902 855 OFFCURVE",
"909 892 CURVE",
"812 892 OFFCURVE",
"678 885 OFFCURVE",
"589 885 CURVE",
"592 904 OFFCURVE",
"609 961 OFFCURVE",
"617 978 CURVE",
"998 1009 LINE",
"1039 1123 OFFCURVE",
"1074 1226 OFFCURVE",
"1102 1330 CURVE",
"1047 1330 OFFCURVE",
"711 1328 OFFCURVE",
"301 1251 CURVE",
"269 1153 OFFCURVE",
"204 945 OFFCURVE",
"123 670 CURVE SMOOTH",
"68 483 OFFCURVE",
"18 266 OFFCURVE",
"-36 31 CURVE",
"84 23 OFFCURVE",
"215 15 OFFCURVE",
"335 8 CURVE SMOOTH",
"455 1 OFFCURVE",
"575 -8 OFFCURVE",
"695 -15 CURVE"
);
}
);
width = 957;
}
);
leftKerningGroup = H;
rightKerningGroup = E;
unicode = 0045;
},
{
glyphname = F;
lastChange = "2020-01-05 15:18:54 +0000";
layers = (
{
anchors = (
{
name = bottom;
position = "{475, 0}";
},
{
name = top;
position = "{475, 1291}";
}
);
layerId = "B5042207-EFBA-41B6-8DFD-104A953B46A6";
paths = (
{
closed = 1;
nodes = (
"525 161 OFFCURVE",
"509 355 OFFCURVE",
"491 517 CURVE",
"593 517 OFFCURVE",
"714 506 OFFCURVE",
"785 498 CURVE",
"794 619 OFFCURVE",
"794 722 OFFCURVE",
"794 819 CURVE",
"729 831 OFFCURVE",
"551 851 OFFCURVE",
"461 848 CURVE",
"458 885 OFFCURVE",
"453 932 OFFCURVE",
"449 962 CURVE",
"607 962 OFFCURVE",
"815 945 OFFCURVE",
"893 942 CURVE",
"893 1030 OFFCURVE",
"887 1162 OFFCURVE",
"878 1280 CURVE",
"796 1299 OFFCURVE",
"660 1311 OFFCURVE",
"497 1314 CURVE SMOOTH",
"362 1316 OFFCURVE",
"212 1312 OFFCURVE",
"68 1301 CURVE",
"85 875 OFFCURVE",
"99 448 OFFCURVE",
"109 17 CURVE",
"535 0 LINE"
);
}
);
width = 949;
},
{
anchors = (
{
name = bottom;
position = "{475, 0}";
},
{
name = top;
position = "{475, 1291}";
}
);
layerId = "B5195C1E-69AB-4BC6-9855-DF55601A0735";
paths = (
{
closed = 1;
nodes = (
"294 200 OFFCURVE",
"282 482 OFFCURVE",
"271 658 CURVE",
"403 658 OFFCURVE",
"624 648 OFFCURVE",
"756 634 CURVE",
"757 645 OFFCURVE",
"760 679 OFFCURVE",
"760 701 CURVE",
"743 703 OFFCURVE",
"551 725 OFFCURVE",
"270 725 CURVE",
"264 880 OFFCURVE",
"254 1116 OFFCURVE",
"244 1221 CURVE",
"555 1221 OFFCURVE",
"727 1205 OFFCURVE",
"802 1195 CURVE",
"802 1215 OFFCURVE",
"801 1257 OFFCURVE",
"797 1280 CURVE",
"687 1292 OFFCURVE",
"607 1299 OFFCURVE",
"490 1303 CURVE SMOOTH",
"405 1306 OFFCURVE",
"301 1307 OFFCURVE",
"152 1307 CURVE",
"174 922 OFFCURVE",
"202 421 OFFCURVE",
"202 -12 CURVE",
"294 -26 LINE"
);
}
);
width = 949;
},
{
anchors = (
{
name = bottom;
position = "{332.585, 0}";
},
{
name = top;
position = "{678.507, 1291}";
}
);
layerId = "82219AB4-7C60-4B3A-9196-329BE868CB10";
paths = (
{
closed = 1;
nodes = (
"236 200 OFFCURVE",
"300 482 OFFCURVE",
"336 658 CURVE",
"468 658 OFFCURVE",
"686 648 OFFCURVE",
"814 634 CURVE",
"818 645 OFFCURVE",
"830 679 OFFCURVE",
"836 701 CURVE",
"820 703 OFFCURVE",
"634 725 OFFCURVE",
"353 725 CURVE",
"388 880 OFFCURVE",
"441 1116 OFFCURVE",
"460 1221 CURVE",
"771 1221 OFFCURVE",
"938 1205 OFFCURVE",
"1011 1195 CURVE",
"1016 1215 OFFCURVE",
"1026 1257 OFFCURVE",
"1028 1280 CURVE",
"922 1292 OFFCURVE",
"843 1299 OFFCURVE",
"728 1303 CURVE SMOOTH",
"643 1306 OFFCURVE",
"536 1307 OFFCURVE",
"387 1307 CURVE",
"312 922 OFFCURVE",
"199 411 OFFCURVE",
"87 -12 CURVE",
"175 -26 LINE"
);
}
);
width = 949;
},
{
anchors = (
{
name = bottom;
position = "{313, 0}";
},
{
name = top;
position = "{659, 1291}";
}
);
layerId = "63DB0068-8B02-4205-807F-6F2453D24B26";
paths = (
{
closed = 1;
nodes = (
"449 151 OFFCURVE",
"485 355 OFFCURVE",
"513 517 CURVE",
"615 517 OFFCURVE",
"723 506 OFFCURVE",
"792 498 CURVE",
"834 609 OFFCURVE",
"866 722 OFFCURVE",
"887 819 CURVE",
"826 831 OFFCURVE",
"663 851 OFFCURVE",
"572 848 CURVE",
"579 885 OFFCURVE",
"587 932 OFFCURVE",
"591 962 CURVE",
"749 962 OFFCURVE",
"942 945 OFFCURVE",
"1019 942 CURVE",
"1043 1030 OFFCURVE",
"1072 1162 OFFCURVE",
"1095 1280 CURVE",
"1018 1299 OFFCURVE",
"885 1312 OFFCURVE",
"723 1314 CURVE SMOOTH",
"589 1316 OFFCURVE",
"437 1312 OFFCURVE",
"290 1301 CURVE",
"193 875 OFFCURVE",
"93 448 OFFCURVE",
"-13 17 CURVE",
"409 0 LINE"
);
}
);
width = 949;
}
);
leftKerningGroup = H;
rightKerningGroup = F;
unicode = 0046;
},
{
glyphname = G;
lastChange = "2020-01-11 22:02:55 +0000";
layers = (
{
anchors = (
{
name = bottom;
position = "{638, 0}";
},
{
name = top;
position = "{638, 1291}";
}
);
layerId = "B5042207-EFBA-41B6-8DFD-104A953B46A6";
paths = (
{
closed = 1;
nodes = (
"1018 -48 OFFCURVE",
"1172 169 OFFCURVE",
"1172 508 CURVE SMOOTH",
"1172 557 OFFCURVE",
"1168 608 OFFCURVE",
"1162 662 CURVE",
"1016 691 OFFCURVE",
"763 726 OFFCURVE",
"628 726 CURVE",
"628 662 OFFCURVE",
"639 480 OFFCURVE",
"644 427 CURVE",
"688 427 OFFCURVE",
"778 414 OFFCURVE",
"814 403 CURVE",
"814 395 OFFCURVE",
"813 386 OFFCURVE",
"810 379 CURVE SMOOTH",
"794 336 OFFCURVE",
"748 299 OFFCURVE",
"682 299 CURVE SMOOTH",
"530 299 OFFCURVE",
"458 440 OFFCURVE",
"458 613 CURVE SMOOTH",
"458 773 OFFCURVE",
"497 954 OFFCURVE",
"637 954 CURVE SMOOTH",
"736 954 OFFCURVE",
"792 884 OFFCURVE",
"814 855 CURVE",
"932 927 OFFCURVE",
"1095 1063 OFFCURVE",
"1140 1115 CURVE",
"1029 1270 OFFCURVE",
"821 1338 OFFCURVE",
"639 1338 CURVE SMOOTH",
"270 1338 OFFCURVE",
"62 1051 OFFCURVE",
"62 646 CURVE SMOOTH",
"62 210 OFFCURVE",
"238 -48 OFFCURVE",
"677 -48 CURVE SMOOTH"
);
}
);
width = 1275;
},
{
anchors = (
{
name = bottom;
position = "{638, 0}";
},
{
name = top;
position = "{638, 1291}";
}
);
layerId = "B5195C1E-69AB-4BC6-9855-DF55601A0735";
paths = (
{
closed = 1;
nodes = (
"1010 -48 OFFCURVE",
"1139 158 OFFCURVE",
"1139 483 CURVE SMOOTH",
"1139 540 OFFCURVE",
"1135 599 OFFCURVE",
"1128 662 CURVE",
"945 698 OFFCURVE",
"661 723 OFFCURVE",
"503 733 CURVE",
"503 710 OFFCURVE",
"506 662 OFFCURVE",
"508 644 CURVE",
"644 636 OFFCURVE",
"982 591 OFFCURVE",
"1056 578 CURVE",
"1058 549 OFFCURVE",
"1059 520 OFFCURVE",
"1059 491 CURVE SMOOTH",
"1059 255 OFFCURVE",
"983 36 OFFCURVE",
"675 36 CURVE SMOOTH",
"306 36 OFFCURVE",
"134 266 OFFCURVE",
"134 673 CURVE SMOOTH",
"134 1111 OFFCURVE",
"408 1258 OFFCURVE",
"587 1258 CURVE SMOOTH",
"750 1258 OFFCURVE",
"857 1236 OFFCURVE",
"974 1050 CURVE",
"991 1062 OFFCURVE",
"1019 1094 OFFCURVE",
"1028 1110 CURVE",
"985 1194 OFFCURVE",
"863 1338 OFFCURVE",
"605 1338 CURVE SMOOTH",
"241 1338 OFFCURVE",
"44 1051 OFFCURVE",
"44 646 CURVE SMOOTH",
"44 214 OFFCURVE",
"246 -48 OFFCURVE",
"677 -48 CURVE SMOOTH"
);
}
);
width = 1275;
},
{
anchors = (
{
name = bottom;
position = "{495.585, 0}";
},
{
name = top;
position = "{841.507, 1291}";
}
);
layerId = "82219AB4-7C60-4B3A-9196-329BE868CB10";
paths = (
{
closed = 1;
nodes = (
"927 -48 OFFCURVE",
"1101 158 OFFCURVE",
"1187 483 CURVE SMOOTH",
"1202 540 OFFCURVE",
"1214 599 OFFCURVE",
"1224 662 CURVE",
"1050 698 OFFCURVE",
"773 723 OFFCURVE",
"618 733 CURVE",
"611 710 OFFCURVE",
"601 662 OFFCURVE",
"599 644 CURVE",
"733 636 OFFCURVE",
"1050 591 OFFCURVE",
"1120 578 CURVE",
"1114 549 OFFCURVE",
"1108 520 OFFCURVE",
"1100 491 CURVE SMOOTH",
"1035 255 OFFCURVE",
"911 36 OFFCURVE",
"603 36 CURVE SMOOTH",
"319 36 OFFCURVE",
"203 170 OFFCURVE",
"203 420 CURVE SMOOTH",
"203 819 OFFCURVE",
"437 1258 OFFCURVE",
"842 1258 CURVE SMOOTH",
"1005 1258 OFFCURVE",
"1106 1230 OFFCURVE",
"1174 1050 CURVE",
"1194 1062 OFFCURVE",
"1230 1094 OFFCURVE",
"1244 1110 CURVE",
"1223 1194 OFFCURVE",
"1117 1338 OFFCURVE",
"859 1338 CURVE SMOOTH",
"401 1338 OFFCURVE",
"108 890 OFFCURVE",
"108 406 CURVE SMOOTH",
"108 120 OFFCURVE",
"270 -48 OFFCURVE",
"594 -48 CURVE SMOOTH"
);
}
);
width = 1275;
},
{
anchors = (
{
name = bottom;
position = "{495.585, 0}";
},
{
name = top;
position = "{841.507, 1291}";
}
);
layerId = "63DB0068-8B02-4205-807F-6F2453D24B26";
paths = (
{
closed = 1;
nodes = (
"931 -48 OFFCURVE",
"1124 169 OFFCURVE",
"1214 508 CURVE SMOOTH",
"1227 557 OFFCURVE",
"1237 608 OFFCURVE",
"1246 662 CURVE",
"1107 691 OFFCURVE",
"864 726 OFFCURVE",
"729 726 CURVE",
"712 662 OFFCURVE",
"674 480 OFFCURVE",
"665 427 CURVE",
"709 427 OFFCURVE",
"795 414 OFFCURVE",
"828 403 CURVE",
"826 395 OFFCURVE",
"823 386 OFFCURVE",
"818 379 CURVE SMOOTH",
"788 337 OFFCURVE",
"734 299 OFFCURVE",
"668 299 CURVE SMOOTH",
"557 299 OFFCURVE",
"509 374 OFFCURVE",
"509 482 CURVE SMOOTH",
"509 675 OFFCURVE",
"640 954 OFFCURVE",
"799 954 CURVE SMOOTH",
"898 954 OFFCURVE",
"935 884 OFFCURVE",
"949 855 CURVE",
"1087 927 OFFCURVE",
"1266 1063 OFFCURVE",
"1325 1115 CURVE",
"1255 1270 OFFCURVE",
"1066 1338 OFFCURVE",
"884 1338 CURVE SMOOTH",
"393 1338 OFFCURVE",
"118 921 OFFCURVE",
"118 403 CURVE SMOOTH",
"118 120 OFFCURVE",
"241 -48 OFFCURVE",
"590 -48 CURVE SMOOTH"
);
}
);
width = 1275;
}
);
leftKerningGroup = O;
rightKerningGroup = G;
unicode = 0047;
},
{
glyphname = H;
lastChange = "2020-01-13 22:06:43 +0000";
layers = (
{
anchors = (
{
name = bottom;
position = "{547, 0}";
},
{
name = center;
position = "{526, 1063}";
},
{
name = top;
position = "{547, 1291}";
},
{
name = topleft;
position = "{20, 1291}";
}
);
layerId = "B5042207-EFBA-41B6-8DFD-104A953B46A6";
paths = (
{
closed = 1;
nodes = (
"169 5 OFFCURVE",
"403 12 OFFCURVE",
"482 22 CURVE",
"480 43 OFFCURVE",
"479 291 OFFCURVE",
"468 468 CURVE",
"526 468 OFFCURVE",
"559 468 OFFCURVE",
"627 470 CURVE",
"623 321 OFFCURVE",
"623 195 OFFCURVE",
"627 2 CURVE",
"770 2 OFFCURVE",
"933 7 OFFCURVE",
"986 12 CURVE",
"987 139 OFFCURVE",
"994 386 OFFCURVE",
"1004 640 CURVE SMOOTH",
"1016 939 OFFCURVE",
"1033 1234 OFFCURVE",
"1043 1299 CURVE",
"996 1304 OFFCURVE",
"888 1307 OFFCURVE",
"785 1307 CURVE SMOOTH",
"732 1307 OFFCURVE",
"681 1306 OFFCURVE",
"641 1304 CURVE",
"639 1142 OFFCURVE",
"634 956 OFFCURVE",
"629 812 CURVE",
"577 812 OFFCURVE",
"526 810 OFFCURVE",
"453 802 CURVE",
"453 882 OFFCURVE",
"449 973 OFFCURVE",
"445 1060 CURVE SMOOTH",
"442 1133 OFFCURVE",
"436 1229 OFFCURVE",
"431 1297 CURVE",
"333 1297 OFFCURVE",
"82 1285 OFFCURVE",
"56 1282 CURVE",
"52 1228 OFFCURVE",
"50 1148 OFFCURVE",
"50 1052 CURVE SMOOTH",
"50 700 OFFCURVE",
"73 147 OFFCURVE",
"91 5 CURVE"
);
}
);
width = 1094;
},
{
anchors = (
{
name = bottom;
position = "{547, 0}";
},
{
name = center;
position = "{517, 1063}";
},
{
name = top;
position = "{547, 1291}";
},
{
name = topleft;
position = "{20, 1291}";
}
);
layerId = "B5195C1E-69AB-4BC6-9855-DF55601A0735";
paths = (
{
closed = 1;
nodes = (
"227 -2 OFFCURVE",
"275 2 OFFCURVE",
"287 4 CURVE",
"285 25 OFFCURVE",
"260 395 OFFCURVE",
"248 641 CURVE",
"321 641 OFFCURVE",
"700 651 OFFCURVE",
"770 653 CURVE",
"768 486 OFFCURVE",
"766 249 OFFCURVE",
"773 -2 CURVE",
"793 -2 OFFCURVE",
"832 -1 OFFCURVE",
"855 2 CURVE",
"851 53 OFFCURVE",
"850 134 OFFCURVE",
"850 232 CURVE SMOOTH",
"850 572 OFFCURVE",
"870 1116 OFFCURVE",
"896 1299 CURVE",
"880 1303 OFFCURVE",
"844 1305 OFFCURVE",
"820 1305 CURVE SMOOTH",
"811 1305 OFFCURVE",
"804 1305 OFFCURVE",
"800 1304 CURVE",
"786 1142 OFFCURVE",
"777 889 OFFCURVE",
"772 745 CURVE",
"687 742 OFFCURVE",
"318 726 OFFCURVE",
"244 718 CURVE",
"245 740 OFFCURVE",
"240 870 OFFCURVE",
"240 1013 CURVE SMOOTH",
"240 1109 OFFCURVE",
"242 1211 OFFCURVE",
"251 1289 CURVE",
"226 1289 OFFCURVE",
"180 1285 OFFCURVE",
"156 1282 CURVE",
"152 1239 OFFCURVE",
"151 1171 OFFCURVE",
"151 1088 CURVE SMOOTH",
"151 747 OFFCURVE",
"176 149 OFFCURVE",
"190 -2 CURVE"
);
}
);
width = 1094;
},
{
anchors = (
{
name = bottom;
position = "{404.585, 0}";
},
{
name = center;
position = "{751, 1063}";
},
{
name = top;
position = "{750.507, 1291}";
},
{
name = topleft;
position = "{223.507, 1291}";
}
);
layerId = "82219AB4-7C60-4B3A-9196-329BE868CB10";
paths = (
{
closed = 1;
nodes = (
"152 -2 OFFCURVE",
"201 2 OFFCURVE",
"214 4 CURVE",
"217 25 OFFCURVE",
"294 395 OFFCURVE",
"348 641 CURVE",
"421 641 OFFCURVE",
"800 651 OFFCURVE",
"870 653 CURVE",
"824 496 OFFCURVE",
"751 227 OFFCURVE",
"698 -2 CURVE",
"718 -2 OFFCURVE",
"762 -1 OFFCURVE",
"786 2 CURVE",
"796 53 OFFCURVE",
"814 144 OFFCURVE",
"841 242 CURVE SMOOTH",
"934 581 OFFCURVE",
"1094 1116 OFFCURVE",
"1169 1299 CURVE",
"1155 1303 OFFCURVE",
"1119 1305 OFFCURVE",
"1095 1305 CURVE SMOOTH",
"1086 1305 OFFCURVE",
"1079 1305 OFFCURVE",
"1075 1304 CURVE",
"1019 1152 OFFCURVE",
"939 888 OFFCURVE",
"897 745 CURVE",
"811 742 OFFCURVE",
"441 726 OFFCURVE",
"365 718 CURVE",
"372 740 OFFCURVE",
"401 870 OFFCURVE",
"440 1013 CURVE SMOOTH",
"466 1109 OFFCURVE",
"492 1211 OFFCURVE",
"522 1289 CURVE",
"497 1289 OFFCURVE",
"450 1285 OFFCURVE",
"425 1282 CURVE",
"409 1239 OFFCURVE",
"390 1171 OFFCURVE",
"368 1088 CURVE SMOOTH",
"278 747 OFFCURVE",
"141 149 OFFCURVE",
"115 -2 CURVE"
);
}
);
width = 1094;
},
{
anchors = (
{
name = bottom;
position = "{404.585, 0}";
},
{
name = center;
position = "{711, 1063}";
},
{
name = top;
position = "{750.507, 1291}";
},
{
name = topleft;
position = "{223.507, 1291}";
}
);
layerId = "63DB0068-8B02-4205-807F-6F2453D24B26";
paths = (
{
closed = 1;
nodes = (
"55 5 OFFCURVE",
"291 12 OFFCURVE",
"373 22 CURVE",
"376 43 OFFCURVE",
"442 291 OFFCURVE",
"478 468 CURVE",
"536 468 OFFCURVE",
"569 468 OFFCURVE",
"638 470 CURVE",
"594 321 OFFCURVE",
"560 195 OFFCURVE",
"512 2 CURVE",
"655 2 OFFCURVE",
"820 7 OFFCURVE",
"874 12 CURVE",
"909 139 OFFCURVE",
"982 386 OFFCURVE",
"1060 640 CURVE SMOOTH",
"1152 939 OFFCURVE",
"1248 1234 OFFCURVE",
"1276 1299 CURVE",
"1230 1304 OFFCURVE",
"1124 1309 OFFCURVE",
"1021 1309 CURVE SMOOTH",
"968 1309 OFFCURVE",
"906 1306 OFFCURVE",
"875 1304 CURVE",
"830 1142 OFFCURVE",
"775 956 OFFCURVE",
"731 812 CURVE",
"679 812 OFFCURVE",
"628 810 OFFCURVE",
"553 802 CURVE",
"565 850 OFFCURVE",
"594 973 OFFCURVE",
"614 1060 CURVE SMOOTH",
"631 1133 OFFCURVE",
"655 1239 OFFCURVE",
"663 1297 CURVE",
"565 1297 OFFCURVE",
"311 1285 OFFCURVE",
"284 1282 CURVE",
"266 1228 OFFCURVE",
"242 1148 OFFCURVE",
"217 1052 CURVE SMOOTH",
"125 699 OFFCURVE",
"-3 147 OFFCURVE",
"-23 5 CURVE"
);
}
);
width = 1094;
}
);
leftKerningGroup = H;
rightKerningGroup = H;
unicode = 0048;
},
{
glyphname = I;
lastChange = "2020-02-21 19:12:46 +0000";
layers = (
{
anchors = (
{
name = bottom;
position = "{420, 0}";
},
{
name = ogonek;
position = "{479, 10}";
},
{
name = top;
position = "{418, 1321}";
},
{
name = topleft;
position = "{20, 1291}";
}
);
layerId = "B5042207-EFBA-41B6-8DFD-104A953B46A6";
paths = (
{
closed = 1;
nodes = (
"568 -17 OFFCURVE",
"694 -15 OFFCURVE",
"744 -14 CURVE",
"757 57 OFFCURVE",
"760 143 OFFCURVE",
"760 207 CURVE SMOOTH",
"760 256 OFFCURVE",
"758 293 OFFCURVE",
"757 303 CURVE",
"715 303 OFFCURVE",
"674 301 OFFCURVE",
"605 301 CURVE",
"612 359 OFFCURVE",
"624 557 OFFCURVE",
"624 706 CURVE SMOOTH",
"624 796 OFFCURVE",
"624 993 OFFCURVE",
"624 1014 CURVE",
"655 1012 OFFCURVE",
"713 1010 OFFCURVE",
"752 1010 CURVE",
"772 1093 OFFCURVE",
"773 1214 OFFCURVE",
"773 1277 CURVE",
"654 1291 OFFCURVE",
"487 1308 OFFCURVE",
"349 1308 CURVE SMOOTH",
"277 1308 OFFCURVE",
"144 1306 OFFCURVE",
"67 1304 CURVE",
"68 1296 OFFCURVE",
"68 1276 OFFCURVE",
"68 1247 CURVE SMOOTH",
"68 1190 OFFCURVE",
"67 1101 OFFCURVE",
"67 1015 CURVE",
"147 1015 OFFCURVE",
"175 1015 OFFCURVE",
"215 1017 CURVE",
"215 798 OFFCURVE",
"219 490 OFFCURVE",
"219 297 CURVE",
"137 299 OFFCURVE",
"137 299 OFFCURVE",
"91 304 CURVE",
"85 243 OFFCURVE",
"83 191 OFFCURVE",
"83 123 CURVE SMOOTH",
"83 78 OFFCURVE",
"84 36 OFFCURVE",
"84 2 CURVE",
"272 -14 OFFCURVE",
"369 -17 OFFCURVE",
"465 -17 CURVE SMOOTH"
);
}
);
width = 839;
},
{
anchors = (
{
name = bottom;
position = "{420, 0}";
},
{
name = ogonek;
position = "{440, 6}";
},
{
name = top;
position = "{420, 1301}";
},
{
name = topleft;
position = "{20, 1291}";
}
);
layerId = "B5195C1E-69AB-4BC6-9855-DF55601A0735";
paths = (
{
closed = 1;
nodes = (
"554 -10 OFFCURVE",
"646 -9 OFFCURVE",
"696 -7 CURVE",
"697 -3 OFFCURVE",
"700 13 OFFCURVE",
"703 29 CURVE SMOOTH",
"705 45 OFFCURVE",
"708 61 OFFCURVE",
"708 67 CURVE",
"607 67 OFFCURVE",
"528 65 OFFCURVE",
"444 65 CURVE",
"446 114 OFFCURVE",
"446 197 OFFCURVE",
"446 296 CURVE SMOOTH",
"446 505 OFFCURVE",
"440 1050 OFFCURVE",
"438 1226 CURVE",
"501 1222 OFFCURVE",
"674 1217 OFFCURVE",
"730 1209 CURVE",
"730 1227 OFFCURVE",
"725 1265 OFFCURVE",
"721 1279 CURVE",
"655 1289 OFFCURVE",
"456 1301 OFFCURVE",
"275 1301 CURVE SMOOTH",
"203 1301 OFFCURVE",
"137 1301 OFFCURVE",
"60 1299 CURVE",
"58 1295 OFFCURVE",
"56 1284 OFFCURVE",
"56 1269 CURVE SMOOTH",
"56 1256 OFFCURVE",
"58 1239 OFFCURVE",
"62 1221 CURVE",
"89 1224 OFFCURVE",
"256 1224 OFFCURVE",
"356 1224 CURVE",
"362 993 OFFCURVE",
"366 282 OFFCURVE",
"371 67 CURVE",
"306 68 OFFCURVE",
"138 71 OFFCURVE",
"92 74 CURVE",
"92 67 OFFCURVE",
"92 55 OFFCURVE",
"92 42 CURVE SMOOTH",
"91 27 OFFCURVE",
"91 9 OFFCURVE",
"91 5 CURVE",
"279 -8 OFFCURVE",
"356 -10 OFFCURVE",
"451 -10 CURVE SMOOTH"
);
}
);
width = 839;
},
{
anchors = (
{
name = bottom;
position = "{277.585, 0}";
},
{
name = ogonek;
position = "{319, 10}";
},
{
name = top;
position = "{634, 1301}";
},
{
name = topleft;
position = "{223.507, 1291}";
}
);
layerId = "82219AB4-7C60-4B3A-9196-329BE868CB10";
paths = (
{
closed = 1;
nodes = (
"438 -10 OFFCURVE",
"531 -9 OFFCURVE",
"581 -7 CURVE",
"583 -3 OFFCURVE",
"591 13 OFFCURVE",
"598 29 CURVE SMOOTH",
"605 45 OFFCURVE",
"611 61 OFFCURVE",
"613 67 CURVE",
"512 67 OFFCURVE",
"432 65 OFFCURVE",
"348 65 CURVE",
"364 114 OFFCURVE",
"386 197 OFFCURVE",
"412 296 CURVE SMOOTH",
"467 505 OFFCURVE",
"608 1050 OFFCURVE",
"654 1226 CURVE",
"715 1222 OFFCURVE",
"887 1217 OFFCURVE",
"941 1209 CURVE",
"946 1227 OFFCURVE",
"951 1265 OFFCURVE",
"951 1279 CURVE",
"887 1289 OFFCURVE",
"692 1301 OFFCURVE",
"511 1301 CURVE SMOOTH",
"439 1301 OFFCURVE",
"373 1301 OFFCURVE",
"295 1299 CURVE",
"292 1295 OFFCURVE",
"286 1284 OFFCURVE",
"283 1269 CURVE SMOOTH",
"280 1256 OFFCURVE",
"277 1239 OFFCURVE",
"276 1221 CURVE",
"304 1224 OFFCURVE",
"466 1224 OFFCURVE",
"566 1224 CURVE",
"510 993 OFFCURVE",
"324 282 OFFCURVE",
"271 67 CURVE",
"206 68 OFFCURVE",
"44 71 OFFCURVE",
"-1 74 CURVE",
"-3 67 OFFCURVE",
"-6 55 OFFCURVE",
"-10 42 CURVE SMOOTH",
"-15 27 OFFCURVE",
"-18 9 OFFCURVE",
"-20 5 CURVE",
"154 -9 OFFCURVE",
"240 -10 OFFCURVE",
"335 -10 CURVE SMOOTH"
);
}
);
width = 839;
},
{
anchors = (
{
name = bottom;
position = "{277.585, 0}";
},
{
name = ogonek;
position = "{340, 10}";
},
{
name = top;
position = "{644, 1321}";
},
{
name = topleft;
position = "{223.507, 1291}";
}
);
layerId = "63DB0068-8B02-4205-807F-6F2453D24B26";
paths = (
{
closed = 1;
nodes = (
"428 -17 OFFCURVE",
"555 -15 OFFCURVE",
"605 -14 CURVE",
"637 57 OFFCURVE",
"663 143 OFFCURVE",
"681 207 CURVE SMOOTH",
"695 256 OFFCURVE",
"702 293 OFFCURVE",
"703 303 CURVE",
"661 303 OFFCURVE",
"620 301 OFFCURVE",
"551 301 CURVE",
"573 359 OFFCURVE",
"638 557 OFFCURVE",
"678 706 CURVE SMOOTH",
"702 796 OFFCURVE",
"755 993 OFFCURVE",
"761 1014 CURVE",
"791 1012 OFFCURVE",
"849 1010 OFFCURVE",
"888 1010 CURVE",
"930 1093 OFFCURVE",
"963 1214 OFFCURVE",
"980 1277 CURVE",
"865 1291 OFFCURVE",
"703 1308 OFFCURVE",
"565 1308 CURVE SMOOTH",
"493 1308 OFFCURVE",
"359 1306 OFFCURVE",
"281 1304 CURVE",
"280 1296 OFFCURVE",
"275 1276 OFFCURVE",
"267 1247 CURVE SMOOTH",
"251 1190 OFFCURVE",
"227 1101 OFFCURVE",
"204 1015 CURVE",
"284 1015 OFFCURVE",
"312 1015 OFFCURVE",
"353 1017 CURVE",
"294 798 OFFCURVE",
"215 490 OFFCURVE",
"164 297 CURVE",
"82 299 OFFCURVE",
"82 299 OFFCURVE",
"37 304 CURVE",
"15 243 OFFCURVE",
"-1 191 OFFCURVE",
"-19 123 CURVE SMOOTH",
"-31 78 OFFCURVE",
"-41 36 OFFCURVE",
"-50 2 CURVE",
"133 -14 OFFCURVE",
"229 -17 OFFCURVE",
"325 -17 CURVE SMOOTH"
);
}
);
width = 839;
}
);
leftKerningGroup = H;
rightKerningGroup = H;
unicode = 0049;
},
{
glyphname = I.ss01;
lastChange = "2020-04-09 00:31:29 +0000";
layers = (
{
anchors = (
{
name = bottom;
position = "{302, 0}";
},
{
name = ogonek;
position = "{275, 17}";
},
{
name = top;
position = "{302, 1291}";
},
{
name = topleft;
position = "{78, 1291}";
}
);
layerId = "B5195C1E-69AB-4BC6-9855-DF55601A0735";
paths = (
{
closed = 1;
nodes = (
"318 46 OFFCURVE",
"315 179 OFFCURVE",
"315 352 CURVE SMOOTH",
"315 694 OFFCURVE",
"309 1043 OFFCURVE",
"303 1320 CURVE",
"280 1320 OFFCURVE",
"242 1319 OFFCURVE",
"229 1317 CURVE",
"227 1049 OFFCURVE",
"227 950 OFFCURVE",
"227 734 CURVE SMOOTH",
"227 416 OFFCURVE",
"230 165 OFFCURVE",
"235 4 CURVE",
"247 2 OFFCURVE",
"305 0 OFFCURVE",
"317 0 CURVE"
);
}
);
width = 550;
},
{
anchors = (
{
name = bottom;
position = "{275, 0}";
},
{
name = ogonek;
position = "{264, 0}";
},
{
name = top;
position = "{275, 1291}";
},
{
name = topleft;
position = "{20, 1291}";
}
);
layerId = "B5042207-EFBA-41B6-8DFD-104A953B46A6";
paths = (
{
closed = 1;
nodes = (
"471 94 OFFCURVE",
"477 312 OFFCURVE",
"477 548 CURVE SMOOTH",
"477 823 OFFCURVE",
"468 1128 OFFCURVE",
"457 1323 CURVE",
"359 1323 OFFCURVE",
"135 1315 OFFCURVE",
"80 1315 CURVE",
"74 1006 OFFCURVE",
"69 731 OFFCURVE",
"69 503 CURVE SMOOTH",
"69 286 OFFCURVE",
"74 111 OFFCURVE",
"78 -8 CURVE",
"189 -23 OFFCURVE",
"349 -24 OFFCURVE",
"450 -24 CURVE"
);
}
);
width = 550;
},
{
anchors = (
{
name = bottom;
position = "{102, 0}";
},
{
name = ogonek;
position = "{89, 19}";
},
{
name = top;
position = "{448, 1291}";
},
{
name = topleft;
position = "{224, 1291}";
}
);
layerId = "82219AB4-7C60-4B3A-9196-329BE868CB10";
paths = (
{
closed = 1;
nodes = (
"153 46 OFFCURVE",
"186 179 OFFCURVE",
"232 352 CURVE SMOOTH",
"324 694 OFFCURVE",
"412 1043 OFFCURVE",
"480 1320 CURVE",
"457 1320 OFFCURVE",
"419 1319 OFFCURVE",
"405 1317 CURVE",
"331 1049 OFFCURVE",
"305 950 OFFCURVE",
"247 734 CURVE SMOOTH",
"162 416 OFFCURVE",
"97 165 OFFCURVE",
"59 4 CURVE",
"71 2 OFFCURVE",
"128 0 OFFCURVE",
"140 0 CURVE"
);
}
);
width = 487;
},
{
anchors = (
{
name = bottom;
position = "{141, 0}";
},
{
name = ogonek;
position = "{113, 0}";
},
{
name = top;
position = "{487, 1291}";
},
{
name = topleft;
position = "{232, 1291}";
}
);
layerId = "63DB0068-8B02-4205-807F-6F2453D24B26";
paths = (
{
closed = 1;
nodes = (
"370 94 OFFCURVE",
"435 312 OFFCURVE",
"498 548 CURVE SMOOTH",
"571 823 OFFCURVE",
"644 1128 OFFCURVE",
"685 1323 CURVE",
"587 1323 OFFCURVE",
"361 1315 OFFCURVE",
"306 1315 CURVE",
"216 1006 OFFCURVE",
"139 731 OFFCURVE",
"78 503 CURVE SMOOTH",
"20 286 OFFCURVE",
"-22 111 OFFCURVE",
"-50 -8 CURVE",
"57 -23 OFFCURVE",
"217 -24 OFFCURVE",
"318 -24 CURVE"
);
}
);
width = 550;
}
);
},
{
glyphname = J;
lastChange = "2020-02-19 21:11:32 +0000";
layers = (
{
anchors = (
{
name = bottom;
position = "{589, 0}";
},
{
name = top;
position = "{798, 1291}";
}
);
layerId = "B5042207-EFBA-41B6-8DFD-104A953B46A6";
paths = (
{
closed = 1;
nodes = (
"280 -19 OFFCURVE",
"537 -19 CURVE SMOOTH",
"970 -19 OFFCURVE",
"1068 249 OFFCURVE",
"1068 749 CURVE SMOOTH",
"1068 914 OFFCURVE",
"1053 1100 OFFCURVE",
"1038 1277 CURVE",
"977 1285 OFFCURVE",
"922 1287 OFFCURVE",
"848 1287 CURVE SMOOTH",
"779 1287 OFFCURVE",
"691 1278 OFFCURVE",
"626 1265 CURVE",
"629 1243 OFFCURVE",
"660 860 OFFCURVE",
"660 653 CURVE SMOOTH",
"660 443 OFFCURVE",
"638 364 OFFCURVE",
"559 364 CURVE SMOOTH",
"492 364 OFFCURVE",
"405 450 OFFCURVE",
"371 581 CURVE",
"202 492 OFFCURVE",
"19 357 OFFCURVE",
"2 344 CURVE",
"79 115 OFFCURVE"
);
}
);
width = 1178;
},
{
anchors = (
{
name = bottom;
position = "{589, 0}";
},
{
name = top;
position = "{828, 1318}";
}
);
layerId = "B5195C1E-69AB-4BC6-9855-DF55601A0735";
paths = (
{
closed = 1;
nodes = (
"262 -19 OFFCURVE",
"520 -19 CURVE SMOOTH",
"817 -19 OFFCURVE",
"942 247 OFFCURVE",
"942 585 CURVE SMOOTH",
"942 790 OFFCURVE",
"910 1140 OFFCURVE",
"894 1315 CURVE",
"886 1316 OFFCURVE",
"865 1318 OFFCURVE",
"847 1318 CURVE SMOOTH",
"828 1318 OFFCURVE",
"809 1316 OFFCURVE",
"798 1313 CURVE",
"802 1291 OFFCURVE",
"856 762 OFFCURVE",
"856 556 CURVE SMOOTH",
"856 277 OFFCURVE",
"759 63 OFFCURVE",
"528 63 CURVE SMOOTH",
"296 63 OFFCURVE",
"183 253 OFFCURVE",
"135 448 CURVE",
"106 436 OFFCURVE",
"71 419 OFFCURVE",
"48 405 CURVE",
"125 176 OFFCURVE"
);
}
);
width = 1178;
},
{
anchors = (
{
name = bottom;
position = "{446.585, 0}";
},
{
name = top;
position = "{1095, 1291}";
}
);
layerId = "82219AB4-7C60-4B3A-9196-329BE868CB10";
paths = (
{
closed = 1;
nodes = (
"184 -19 OFFCURVE",
"442 -19 CURVE SMOOTH",
"739 -19 OFFCURVE",
"923 247 OFFCURVE",
"1014 585 CURVE SMOOTH",
"1069 790 OFFCURVE",
"1133 1149 OFFCURVE",
"1161 1315 CURVE",
"1153 1316 OFFCURVE",
"1133 1318 OFFCURVE",
"1115 1318 CURVE SMOOTH",
"1096 1318 OFFCURVE",
"1077 1316 OFFCURVE",
"1065 1313 CURVE",
"1063 1291 OFFCURVE",
"969 762 OFFCURVE",
"914 556 CURVE SMOOTH",
"839 277 OFFCURVE",
"691 63 OFFCURVE",
"460 63 CURVE SMOOTH",
"228 63 OFFCURVE",
"166 253 OFFCURVE",
"170 448 CURVE",
"138 436 OFFCURVE",
"98 419 OFFCURVE",
"71 405 CURVE",
"87 176 OFFCURVE"
);
}
);
width = 1178;
},
{
anchors = (
{
name = bottom;
position = "{446.585, 0}";
},
{
name = top;
position = "{1052, 1291}";
}
);
layerId = "63DB0068-8B02-4205-807F-6F2453D24B26";
paths = (
{
closed = 1;
nodes = (
"214 -19 OFFCURVE",
"471 -19 CURVE SMOOTH",
"904 -19 OFFCURVE",
"1035 249 OFFCURVE",
"1168 749 CURVE SMOOTH",
"1212 914 OFFCURVE",
"1247 1100 OFFCURVE",
"1279 1277 CURVE",
"1220 1285 OFFCURVE",
"1166 1287 OFFCURVE",
"1092 1287 CURVE SMOOTH",
"1023 1287 OFFCURVE",
"923 1278 OFFCURVE",
"854 1265 CURVE",
"851 1243 OFFCURVE",
"780 860 OFFCURVE",
"724 653 CURVE SMOOTH",
"667 443 OFFCURVE",
"625 364 OFFCURVE",
"556 364 CURVE SMOOTH",
"489 364 OFFCURVE",
"425 450 OFFCURVE",
"426 581 CURVE",
"233 492 OFFCURVE",
"14 357 OFFCURVE",
"-7 344 CURVE",
"9 115 OFFCURVE"
);
}
);
width = 1178;
}
);
leftKerningGroup = J;
rightKerningGroup = J;
unicode = 004A;
},
{
glyphname = K;
lastChange = "2020-01-05 16:51:24 +0000";
layers = (
{
anchors = (
{
name = bottom;
position = "{558, 0}";
},
{
name = top;
position = "{558, 1291}";
}
);
layerId = "B5042207-EFBA-41B6-8DFD-104A953B46A6";
paths = (
{
closed = 1;
nodes = (
"297 -2 OFFCURVE",
"472 7 OFFCURVE",
"491 10 CURVE",
"491 31 OFFCURVE",
"477 169 OFFCURVE",
"463 409 CURVE",
"482 419 OFFCURVE",
"494 426 OFFCURVE",
"516 443 CURVE",
"571 355 OFFCURVE",
"706 102 OFFCURVE",
"750 -5 CURVE",
"863 31 OFFCURVE",
"1039 121 OFFCURVE",
"1101 162 CURVE",
"1072 236 OFFCURVE",
"911 497 OFFCURVE",
"757 684 CURVE",
"874 797 OFFCURVE",
"1035 1043 OFFCURVE",
"1060 1118 CURVE",
"1006 1146 OFFCURVE",
"863 1225 OFFCURVE",
"730 1326 CURVE",
"621 1097 OFFCURVE",
"540 965 OFFCURVE",
"438 882 CURVE",
"432 1035 OFFCURVE",
"426 1229 OFFCURVE",
"424 1297 CURVE",
"385 1304 OFFCURVE",
"311 1311 OFFCURVE",
"231 1311 CURVE SMOOTH",
"167 1311 OFFCURVE",
"104 1306 OFFCURVE",
"46 1296 CURVE",
"44 1279 OFFCURVE",
"43 1173 OFFCURVE",
"43 970 CURVE SMOOTH",
"43 737 OFFCURVE",
"92 107 OFFCURVE",
"116 -32 CURVE"
);
}
);
width = 1115;
},
{
anchors = (
{
name = bottom;
position = "{558, 0}";
},
{
name = top;
position = "{558, 1291}";
}
);
layerId = "B5195C1E-69AB-4BC6-9855-DF55601A0735";
paths = (
{
closed = 1;
nodes = (
"248 -32 OFFCURVE",
"289 -27 OFFCURVE",
"308 -24 CURVE",
"308 -3 OFFCURVE",
"294 381 OFFCURVE",
"280 621 CURVE",
"299 631 OFFCURVE",
"344 663 OFFCURVE",
"366 680 CURVE",
"618 426 OFFCURVE",
"850 19 OFFCURVE",
"858 2 CURVE",
"877 10 OFFCURVE",
"919 32 OFFCURVE",
"938 48 CURVE",
"899 121 OFFCURVE",
"630 537 OFFCURVE",
"432 723 CURVE",
"724 937 OFFCURVE",
"905 1150 OFFCURVE",
"961 1224 CURVE",
"946 1231 OFFCURVE",
"915 1257 OFFCURVE",
"899 1272 CURVE",
"753 1047 OFFCURVE",
"444 823 OFFCURVE",
"274 708 CURVE",
"260 952 OFFCURVE",
"239 1239 OFFCURVE",
"232 1297 CURVE",
"225 1299 OFFCURVE",
"211 1300 OFFCURVE",
"197 1300 CURVE SMOOTH",
"180 1300 OFFCURVE",
"162 1299 OFFCURVE",
"154 1296 CURVE",
"155 1288 OFFCURVE",
"172 923 OFFCURVE",
"189 578 CURVE SMOOTH",
"204 267 OFFCURVE",
"219 -25 OFFCURVE",
"219 -32 CURVE"
);
}
);
width = 1115;
},
{
anchors = (
{
name = bottom;
position = "{415.585, 0}";
},
{
name = top;
position = "{761.507, 1291}";
}
);
layerId = "82219AB4-7C60-4B3A-9196-329BE868CB10";
paths = (
{
closed = 1;
nodes = (
"130 -32 OFFCURVE",
"172 -27 OFFCURVE",
"192 -24 CURVE",
"197 -3 OFFCURVE",
"286 381 OFFCURVE",
"337 621 CURVE",
"358 631 OFFCURVE",
"417 663 OFFCURVE",
"443 680 CURVE",
"627 426 OFFCURVE",
"745 19 OFFCURVE",
"749 2 CURVE",
"770 10 OFFCURVE",
"814 30 OFFCURVE",
"837 46 CURVE",
"818 119 OFFCURVE",
"664 537 OFFCURVE",
"516 723 CURVE",
"865 937 OFFCURVE",
"1103 1150 OFFCURVE",
"1179 1224 CURVE",
"1166 1231 OFFCURVE",
"1130 1257 OFFCURVE",
"1118 1272 CURVE",
"912 1047 OFFCURVE",
"555 833 OFFCURVE",
"354 718 CURVE",
"405 962 OFFCURVE",
"461 1239 OFFCURVE",
"470 1297 CURVE",
"463 1299 OFFCURVE",
"449 1300 OFFCURVE",
"435 1300 CURVE SMOOTH",
"418 1300 OFFCURVE",
"400 1299 OFFCURVE",
"391 1296 CURVE",
"390 1288 OFFCURVE",
"309 923 OFFCURVE",
"234 578 CURVE SMOOTH",
"166 267 OFFCURVE",
"103 -22 OFFCURVE",
"101 -32 CURVE"
);
}
);
width = 1115;
},
{
anchors = (
{
name = bottom;
position = "{415.585, 0}";
},
{
name = top;
position = "{761.507, 1291}";
}
);
layerId = "63DB0068-8B02-4205-807F-6F2453D24B26";
paths = (
{
closed = 1;
nodes = (
"183 -2 OFFCURVE",
"361 7 OFFCURVE",
"380 10 CURVE",
"386 31 OFFCURVE",
"409 169 OFFCURVE",
"459 409 CURVE",
"481 419 OFFCURVE",
"505 431 OFFCURVE",
"531 448 CURVE",
"563 360 OFFCURVE",
"620 102 OFFCURVE",
"635 -5 CURVE",
"758 31 OFFCURVE",
"948 121 OFFCURVE",
"1021 162 CURVE",
"1012 236 OFFCURVE",
"931 497 OFFCURVE",
"827 684 CURVE",
"974 787 OFFCURVE",
"1201 1043 OFFCURVE",
"1246 1118 CURVE",
"1200 1146 OFFCURVE",
"1058 1235 OFFCURVE",
"952 1326 CURVE",
"802 1097 OFFCURVE",
"675 965 OFFCURVE",
"561 882 CURVE",
"580 960 OFFCURVE",
"642 1229 OFFCURVE",
"658 1297 CURVE",
"621 1304 OFFCURVE",
"549 1311 OFFCURVE",
"469 1311 CURVE SMOOTH",
"405 1311 OFFCURVE",
"341 1306 OFFCURVE",
"280 1296 CURVE",
"273 1279 OFFCURVE",
"244 1173 OFFCURVE",
"190 970 CURVE SMOOTH",
"128 737 OFFCURVE",
"7 107 OFFCURVE",
"-6 -32 CURVE"
);
}
);
width = 1115;
}
);
leftKerningGroup = H;
rightKerningGroup = K;
unicode = 004B;
},
{
glyphname = L;
lastChange = "2020-01-13 21:40:42 +0000";
layers = (
{
anchors = (
{
name = bottom;
position = "{511, 0}";
},
{
name = center;
position = "{511, 646}";
},
{
name = top;
position = "{636, 1189}";
},
{
name = topright;
position = "{893, 1291}";
}
);
layerId = "B5042207-EFBA-41B6-8DFD-104A953B46A6";
paths = (
{
closed = 1;
nodes = (
"146 20 OFFCURVE",
"269 13 OFFCURVE",
"396 13 CURVE SMOOTH",
"559 13 OFFCURVE",
"747 24 OFFCURVE",
"914 48 CURVE",
"914 166 OFFCURVE",
"905 379 OFFCURVE",
"893 439 CURVE",
"746 439 OFFCURVE",
"630 436 OFFCURVE",
"461 426 CURVE",
"466 490 OFFCURVE",
"474 553 OFFCURVE",
"478 617 CURVE SMOOTH",
"497 921 OFFCURVE",
"509 1189 OFFCURVE",
"509 1292 CURVE",
"483 1297 OFFCURVE",
"399 1300 OFFCURVE",
"348 1300 CURVE SMOOTH",
"232 1300 OFFCURVE",
"112 1289 OFFCURVE",
"63 1282 CURVE",
"70 1140 OFFCURVE",
"79 882 OFFCURVE",
"79 633 CURVE SMOOTH",
"79 383 OFFCURVE",
"70 141 OFFCURVE",
"63 31 CURVE"
);
}
);
width = 961;
},
{
anchors = (
{
name = bottom;
position = "{491, 0}";
},
{
name = center;
position = "{491, 646}";
},
{
name = top;
position = "{600, 1194}";
},
{
name = topright;
position = "{831, 1291}";
}
);
layerId = "B5195C1E-69AB-4BC6-9855-DF55601A0735";
paths = (
{
closed = 1;
nodes = (
"313 2 OFFCURVE",
"407 4 OFFCURVE",
"512 9 CURVE SMOOTH",
"610 14 OFFCURVE",
"717 20 OFFCURVE",
"856 31 CURVE",
"860 51 OFFCURVE",
"863 79 OFFCURVE",
"865 106 CURVE",
"677 106 OFFCURVE",
"417 92 OFFCURVE",
"297 85 CURVE",
"299 130 OFFCURVE",
"300 225 OFFCURVE",
"300 347 CURVE SMOOTH",
"300 628 OFFCURVE",
"294 1049 OFFCURVE",
"278 1292 CURVE",
"271 1293 OFFCURVE",
"248 1296 OFFCURVE",
"228 1296 CURVE SMOOTH",
"220 1296 OFFCURVE",
"208 1295 OFFCURVE",
"201 1294 CURVE",
"206 1152 OFFCURVE",
"208 884 OFFCURVE",
"208 624 CURVE SMOOTH",
"208 364 OFFCURVE",
"206 112 OFFCURVE",
"201 2 CURVE"
);
}
);
width = 961;
},
{
anchors = (
{
name = bottom;
position = "{338.585, 0}";
},
{
name = center;
position = "{511.68, 646}";
},
{
name = top;
position = "{709, 1183}";
},
{
name = topright;
position = "{1052, 1291}";
}
);
layerId = "82219AB4-7C60-4B3A-9196-329BE868CB10";
paths = (
{
closed = 1;
nodes = (
"175 2 OFFCURVE",
"271 4 OFFCURVE",
"378 9 CURVE SMOOTH",
"477 14 OFFCURVE",
"585 20 OFFCURVE",
"727 31 CURVE",
"737 51 OFFCURVE",
"747 79 OFFCURVE",
"757 106 CURVE",
"569 106 OFFCURVE",
"305 92 OFFCURVE",
"183 85 CURVE",
"197 130 OFFCURVE",
"223 225 OFFCURVE",
"256 347 CURVE SMOOTH",
"332 628 OFFCURVE",
"442 1049 OFFCURVE",
"491 1292 CURVE",
"485 1293 OFFCURVE",
"458 1296 OFFCURVE",
"438 1296 CURVE SMOOTH",
"430 1296 OFFCURVE",
"418 1295 OFFCURVE",
"411 1294 CURVE",
"378 1152 OFFCURVE",
"308 884 OFFCURVE",
"238 624 CURVE SMOOTH",
"168 364 OFFCURVE",
"97 112 OFFCURVE",
"63 2 CURVE"
);
}
);
width = 961;
},
{
anchors = (
{
name = bottom;
position = "{338.585, 0}";
},
{
name = center;
position = "{511.68, 646}";
},
{
name = top;
position = "{835, 1189}";
},
{
name = topright;
position = "{1144.507, 1291}";
}
);
layerId = "63DB0068-8B02-4205-807F-6F2453D24B26";
paths = (
{
closed = 1;
nodes = (
"24 20 OFFCURVE",
"154 13 OFFCURVE",
"281 13 CURVE SMOOTH",
"444 13 OFFCURVE",
"635 24 OFFCURVE",
"808 48 CURVE",
"840 166 OFFCURVE",
"888 379 OFFCURVE",
"892 439 CURVE",
"745 439 OFFCURVE",
"632 436 OFFCURVE",
"460 426 CURVE",
"482 490 OFFCURVE",
"506 553 OFFCURVE",
"527 617 CURVE SMOOTH",
"627 921 OFFCURVE",
"709 1189 OFFCURVE",
"736 1292 CURVE",
"712 1297 OFFCURVE",
"628 1300 OFFCURVE",
"577 1300 CURVE SMOOTH",
"461 1300 OFFCURVE",
"338 1289 OFFCURVE",
"288 1282 CURVE",
"257 1150 OFFCURVE",
"188 882 OFFCURVE",
"122 633 CURVE SMOOTH",
"56 383 OFFCURVE",
"-19 141 OFFCURVE",
"-56 31 CURVE"
);
}
);
width = 961;
}
);
leftKerningGroup = H;
rightKerningGroup = L;
unicode = 004C;
},
{
glyphname = Lslash;
lastChange = "2020-01-13 22:10:39 +0000";
layers = (
{
components = (
{
alignment = -1;
name = L;
transform = "{1, 0, 0, 1, 161, 0}";
}
);
layerId = "B5042207-EFBA-41B6-8DFD-104A953B46A6";
paths = (
{
closed = 1;
nodes = (
"266 460 OFFCURVE",
"539 568 OFFCURVE",
"933 828 CURVE",
"925 875 OFFCURVE",
"870 1044 OFFCURVE",
"839 1116 CURVE",
"660 1023 OFFCURVE",
"196 782 OFFCURVE",
"-17 688 CURVE",
"-1 628 OFFCURVE",
"26 456 OFFCURVE",
"41 409 CURVE"
);
}
);
width = 1121;
},
{
components = (
{
alignment = -1;
name = L;
transform = "{1, 0, 0, 1, 161, 0}";
}
);
layerId = "B5195C1E-69AB-4BC6-9855-DF55601A0735";
paths = (
{
closed = 1;
nodes = (
"299 431 OFFCURVE",
"505 596 OFFCURVE",
"819 880 CURVE",
"816 897 OFFCURVE",
"775 935 OFFCURVE",
"763 951 CURVE",
"500 694 OFFCURVE",
"298 529 OFFCURVE",
"59 383 CURVE",
"64 372 OFFCURVE",
"105 332 OFFCURVE",
"112 320 CURVE"
);
}
);
width = 1121;
},
{
components = (
{
alignment = -1;
name = L;
transform = "{1, 0, 0, 1, 161, 0}";
}
);
layerId = "82219AB4-7C60-4B3A-9196-329BE868CB10";
paths = (
{
closed = 1;
nodes = (
"264 441 OFFCURVE",
"494 596 OFFCURVE",
"885 880 CURVE",
"886 897 OFFCURVE",
"855 935 OFFCURVE",
"848 951 CURVE",
"516 694 OFFCURVE",
"289 539 OFFCURVE",
"11 393 CURVE",
"13 382 OFFCURVE",
"44 342 OFFCURVE",
"47 330 CURVE"
);
}
);
width = 1121;
},
{
components = (
{
alignment = -1;
name = L;
transform = "{1, 0, 0, 1, 161, 0}";
}
);
layerId = "63DB0068-8B02-4205-807F-6F2453D24B26";
paths = (
{
closed = 1;
nodes = (
"295 460 OFFCURVE",
"597 568 OFFCURVE",
"1061 828 CURVE",
"1065 875 OFFCURVE",
"1055 1044 OFFCURVE",
"1044 1116 CURVE",
"840 1023 OFFCURVE",
"311 782 OFFCURVE",
"73 688 CURVE",
"73 628 OFFCURVE",
"54 456 OFFCURVE",
"56 409 CURVE"
);
}
);
width = 1121;
}
);
leftKerningGroup = H;
rightKerningGroup = L;
unicode = 0141;
},
{
glyphname = M;
lastChange = "2020-01-05 17:16:33 +0000";
layers = (
{
anchors = (
{
name = bottom;
position = "{721, 0}";
},
{
name = top;
position = "{721, 1291}";
}
);
layerId = "B5042207-EFBA-41B6-8DFD-104A953B46A6";
paths = (
{
closed = 1;
nodes = (
"185 7 OFFCURVE",
"355 9 OFFCURVE",
"444 12 CURVE",
"444 32 OFFCURVE",
"441 399 OFFCURVE",
"438 707 CURVE",
"476 552 OFFCURVE",
"566 111 OFFCURVE",
"581 34 CURVE",
"637 28 OFFCURVE",
"678 24 OFFCURVE",
"720 24 CURVE SMOOTH",
"742 24 OFFCURVE",
"799 25 OFFCURVE",
"822 26 CURVE",
"856 106 OFFCURVE",
"985 475 OFFCURVE",
"1022 606 CURVE",
"1018 555 OFFCURVE",
"1012 443 OFFCURVE",
"1007 329 CURVE SMOOTH",
"1002 205 OFFCURVE",
"992 80 OFFCURVE",
"991 24 CURVE",
"1063 19 OFFCURVE",
"1234 9 OFFCURVE",
"1356 9 CURVE",
"1370 178 OFFCURVE",
"1386 466 OFFCURVE",
"1386 725 CURVE SMOOTH",
"1386 926 OFFCURVE",
"1376 1114 OFFCURVE",
"1349 1231 CURVE",
"1236 1250 OFFCURVE",
"1019 1255 OFFCURVE",
"916 1255 CURVE",
"911 1241 OFFCURVE",
"822 835 OFFCURVE",
"738 588 CURVE",
"706 703 OFFCURVE",
"581 1244 OFFCURVE",
"574 1262 CURVE",
"561 1262 OFFCURVE",
"241 1260 OFFCURVE",
"82 1244 CURVE",
"66 1187 OFFCURVE",
"54 646 OFFCURVE",
"54 256 CURVE SMOOTH",
"54 161 OFFCURVE",
"54 75 OFFCURVE",
"56 7 CURVE"
);
}
);
width = 1441;
},
{
anchors = (
{
name = bottom;
position = "{721, 0}";
},
{
name = top;
position = "{721, 1291}";
}
);
layerId = "B5195C1E-69AB-4BC6-9855-DF55601A0735";
paths = (
{
closed = 1;
nodes = (
"204 -22 OFFCURVE",
"246 -18 OFFCURVE",
"267 -17 CURVE",
"267 87 OFFCURVE",
"268 807 OFFCURVE",
"272 1156 CURVE",
"340 954 OFFCURVE",
"629 5 OFFCURVE",
"634 -12 CURVE",
"650 -15 OFFCURVE",
"670 -16 OFFCURVE",
"689 -16 CURVE SMOOTH",
"704 -16 OFFCURVE",
"718 -15 OFFCURVE",
"728 -14 CURVE",
"776 67 OFFCURVE",
"1060 916 OFFCURVE",
"1118 1145 CURVE",
"1122 979 OFFCURVE",
"1126 786 OFFCURVE",
"1126 593 CURVE SMOOTH",
"1126 384 OFFCURVE",
"1121 174 OFFCURVE",
"1104 -5 CURVE",
"1130 -6 OFFCURVE",
"1168 -10 OFFCURVE",
"1195 -10 CURVE",
"1205 109 OFFCURVE",
"1206 393 OFFCURVE",
"1206 640 CURVE SMOOTH",
"1206 887 OFFCURVE",
"1199 1129 OFFCURVE",
"1173 1260 CURVE",
"1156 1262 OFFCURVE",
"1096 1267 OFFCURVE",
"1068 1267 CURVE",
"1022 1063 OFFCURVE",
"812 436 OFFCURVE",
"680 43 CURVE",
"667 214 OFFCURVE",
"326 1244 OFFCURVE",
"320 1262 CURVE",
"306 1262 OFFCURVE",
"235 1261 OFFCURVE",
"198 1256 CURVE",
"198 1213 OFFCURVE",
"191 881 OFFCURVE",
"184 549 CURVE SMOOTH",
"180 332 OFFCURVE",
"175 115 OFFCURVE",
"173 -22 CURVE"
);
}
);
width = 1441;
},
{
anchors = (
{
name = bottom;
position = "{578.585, 0}";
},
{
name = top;
position = "{924.507, 1291}";
}
);
layerId = "82219AB4-7C60-4B3A-9196-329BE868CB10";
paths = (
{
closed = 1;
nodes = (
"101 -22 OFFCURVE",
"144 -18 OFFCURVE",
"166 -17 CURVE",
"193 87 OFFCURVE",
"387 807 OFFCURVE",
"485 1156 CURVE",
"504 916 OFFCURVE",
"526 5 OFFCURVE",
"526 -12 CURVE",
"541 -15 OFFCURVE",
"569 -16 OFFCURVE",
"588 -16 CURVE SMOOTH",
"603 -16 OFFCURVE",
"627 -15 OFFCURVE",
"637 -14 CURVE",
"707 67 OFFCURVE",
"1209 916 OFFCURVE",
"1328 1145 CURVE",
"1288 979 OFFCURVE",
"1240 786 OFFCURVE",
"1188 593 CURVE SMOOTH",
"1132 384 OFFCURVE",
"1071 174 OFFCURVE",
"1006 -5 CURVE",
"1032 -6 OFFCURVE",
"1069 -10 OFFCURVE",
"1096 -10 CURVE",
"1137 109 OFFCURVE",
"1215 393 OFFCURVE",
"1281 640 CURVE SMOOTH",
"1347 887 OFFCURVE",
"1405 1129 OFFCURVE",
"1414 1260 CURVE",
"1397 1262 OFFCURVE",
"1329 1267 OFFCURVE",
"1301 1267 CURVE",
"1200 1063 OFFCURVE",
"832 436 OFFCURVE",
"595 43 CURVE",
"595 214 OFFCURVE",
"574 1148 OFFCURVE",
"561 1262 CURVE",
"547 1262 OFFCURVE",
"476 1261 OFFCURVE",
"438 1256 CURVE",
"426 1213 OFFCURVE",
"330 881 OFFCURVE",
"234 549 CURVE SMOOTH",
"171 332 OFFCURVE",
"109 115 OFFCURVE",
"70 -22 CURVE"
);
}
);
width = 1441;
},
{
anchors = (
{
name = bottom;
position = "{578.585, 0}";
},
{
name = top;
position = "{924.507, 1291}";
}
);
layerId = "63DB0068-8B02-4205-807F-6F2453D24B26";
paths = (
{
closed = 1;
nodes = (
"56 7 OFFCURVE",
"226 9 OFFCURVE",
"316 12 CURVE",
"322 32 OFFCURVE",
"417 399 OFFCURVE",
"496 707 CURVE",
"493 552 OFFCURVE",
"465 111 OFFCURVE",
"459 34 CURVE",
"513 28 OFFCURVE",
"553 24 OFFCURVE",
"595 24 CURVE SMOOTH",
"617 24 OFFCURVE",
"675 25 OFFCURVE",
"698 26 CURVE",
"753 106 OFFCURVE",
"981 475 OFFCURVE",
"1053 606 CURVE",
"1036 555 OFFCURVE",
"1000 443 OFFCURVE",
"964 329 CURVE SMOOTH",
"925 205 OFFCURVE",
"882 80 OFFCURVE",
"866 24 CURVE",
"937 19 OFFCURVE",
"1105 9 OFFCURVE",
"1227 9 CURVE",
"1287 178 OFFCURVE",
"1379 466 OFFCURVE",
"1449 725 CURVE SMOOTH",
"1503 926 OFFCURVE",
"1543 1114 OFFCURVE",
"1548 1231 CURVE",
"1440 1250 OFFCURVE",
"1204 1255 OFFCURVE",
"1101 1255 CURVE",
"1093 1241 OFFCURVE",
"895 835 OFFCURVE",
"745 588 CURVE",
"745 719 OFFCURVE",
"763 1178 OFFCURVE",
"761 1262 CURVE",
"748 1262 OFFCURVE",
"448 1260 OFFCURVE",
"284 1244 CURVE",
"253 1187 OFFCURVE",
"100 676 OFFCURVE",
"-3 286 CURVE SMOOTH",
"-28 191 OFFCURVE",
"-57 75 OFFCURVE",
"-73 7 CURVE"
);
}
);
width = 1441;
}
);
leftKerningGroup = M;
rightKerningGroup = M;
unicode = 004D;
},
{
glyphname = N;
lastChange = "2020-01-05 17:24:52 +0000";
layers = (
{
anchors = (
{
name = bottom;
position = "{641, 0}";
},
{
name = top;
position = "{641, 1291}";
}
);
layerId = "B5042207-EFBA-41B6-8DFD-104A953B46A6";
paths = (
{
closed = 1;
nodes = (
"513 121 OFFCURVE",
"502 513 OFFCURVE",
"488 617 CURVE",
"649 340 OFFCURVE",
"776 58 OFFCURVE",
"805 14 CURVE",
"855 5 OFFCURVE",
"936 2 OFFCURVE",
"1016 2 CURVE SMOOTH",
"1069 2 OFFCURVE",
"1121 3 OFFCURVE",
"1164 5 CURVE",
"1184 63 OFFCURVE",
"1203 418 OFFCURVE",
"1203 746 CURVE SMOOTH",
"1203 926 OFFCURVE",
"1197 1097 OFFCURVE",
"1183 1207 CURVE",
"1119 1226 OFFCURVE",
"896 1243 OFFCURVE",
"805 1243 CURVE",
"843 572 LINE",
"743 822 OFFCURVE",
"638 1016 OFFCURVE",
"481 1236 CURVE",
"370 1253 OFFCURVE",
"142 1264 OFFCURVE",
"80 1264 CURVE",
"91 1111 OFFCURVE",
"94 825 OFFCURVE",
"94 566 CURVE SMOOTH",
"94 287 OFFCURVE",
"91 39 OFFCURVE",
"89 21 CURVE",
"164 11 OFFCURVE",
"357 -7 OFFCURVE",
"513 -7 CURVE"
);
}
);
width = 1282;
},
{
anchors = (
{
name = bottom;
position = "{641, 0}";
},
{
name = top;
position = "{641, 1291}";
}
);
layerId = "B5195C1E-69AB-4BC6-9855-DF55601A0735";
paths = (
{
closed = 1;
nodes = (
"299 132 OFFCURVE",
"285 1029 OFFCURVE",
"279 1159 CURVE",
"376 1000 OFFCURVE",
"872 132 OFFCURVE",
"947 -2 CURVE",
"958 -3 OFFCURVE",
"968 -3 OFFCURVE",
"980 -3 CURVE SMOOTH",
"992 -3 OFFCURVE",
"1006 -3 OFFCURVE",
"1026 -2 CURVE",
"1029 20 OFFCURVE",
"1030 86 OFFCURVE",
"1030 178 CURVE SMOOTH",
"1030 466 OFFCURVE",
"1018 1010 OFFCURVE",
"1010 1246 CURVE",
"985 1256 OFFCURVE",
"952 1265 OFFCURVE",
"909 1265 CURVE",
"957 147 LINE",
"811 414 OFFCURVE",
"536 916 OFFCURVE",
"307 1265 CURVE",
"291 1269 OFFCURVE",
"227 1274 OFFCURVE",
"198 1274 CURVE",
"197 1246 OFFCURVE",
"197 1179 OFFCURVE",
"197 1091 CURVE SMOOTH",
"197 748 OFFCURVE",
"203 74 OFFCURVE",
"207 -9 CURVE",
"232 -9 OFFCURVE",
"282 -7 OFFCURVE",
"299 -5 CURVE"
);
}
);
width = 1282;
},
{
anchors = (
{
name = bottom;
position = "{498.585, 0}";
},
{
name = top;
position = "{844.507, 1291}";
}
);
layerId = "82219AB4-7C60-4B3A-9196-329BE868CB10";
paths = (
{
closed = 1;
nodes = (
"254 132 OFFCURVE",
"480 1029 OFFCURVE",
"509 1159 CURVE",
"563 1000 OFFCURVE",
"827 132 OFFCURVE",
"866 -2 CURVE",
"877 -3 OFFCURVE",
"887 -3 OFFCURVE",
"899 -3 CURVE SMOOTH",
"911 -3 OFFCURVE",
"925 -3 OFFCURVE",
"945 -2 CURVE",
"954 20 OFFCURVE",
"973 86 OFFCURVE",
"997 178 CURVE SMOOTH",
"1072 466 OFFCURVE",
"1208 1010 OFFCURVE",
"1263 1246 CURVE",
"1241 1256 OFFCURVE",
"1210 1265 OFFCURVE",
"1167 1265 CURVE",
"910 145 LINE",
"835 412 OFFCURVE",
"691 916 OFFCURVE",
"555 1265 CURVE",
"541 1269 OFFCURVE",
"488 1274 OFFCURVE",
"459 1274 CURVE",
"450 1246 OFFCURVE",
"432 1179 OFFCURVE",
"409 1091 CURVE SMOOTH",
"319 747 OFFCURVE",
"143 74 OFFCURVE",
"124 -9 CURVE",
"149 -9 OFFCURVE",
"200 -7 OFFCURVE",
"217 -5 CURVE"
);
}
);
width = 1282;
},
{
anchors = (
{
name = bottom;
position = "{498.585, 0}";
},
{
name = top;
position = "{844.507, 1291}";
}
);
layerId = "63DB0068-8B02-4205-807F-6F2453D24B26";
paths = (
{
closed = 1;
nodes = (
"420 121 OFFCURVE",
"514 533 OFFCURVE",
"528 637 CURVE",
"615 360 OFFCURVE",
"666 58 OFFCURVE",
"683 14 CURVE",
"731 5 OFFCURVE",
"811 2 OFFCURVE",
"891 2 CURVE SMOOTH",
"944 2 OFFCURVE",
"996 3 OFFCURVE",
"1040 5 CURVE",
"1075 63 OFFCURVE",
"1190 418 OFFCURVE",
"1277 746 CURVE SMOOTH",
"1325 926 OFFCURVE",
"1366 1097 OFFCURVE",
"1381 1207 CURVE",
"1322 1226 OFFCURVE",
"1104 1243 OFFCURVE",
"1013 1243 CURVE",
"861 532 LINE",
"828 752 OFFCURVE",
"775 1016 OFFCURVE",
"687 1236 CURVE",
"580 1253 OFFCURVE",
"355 1264 OFFCURVE",
"293 1264 CURVE",
"263 1111 OFFCURVE",
"190 825 OFFCURVE",
"120 566 CURVE SMOOTH",
"45 287 OFFCURVE",
"-24 39 OFFCURVE",
"-31 21 CURVE",
"42 11 OFFCURVE",
"230 -7 OFFCURVE",
"386 -7 CURVE"
);
}
);
width = 1282;
}
);
leftKerningGroup = H;
rightKerningGroup = H;
unicode = 004E;
},
{
glyphname = Eng;
lastChange = "2020-01-13 21:55:39 +0000";
layers = (
{
components = (
{
alignment = -1;
name = N;
}
);
layerId = "B5042207-EFBA-41B6-8DFD-104A953B46A6";
paths = (
{
closed = 1;
nodes = (
"1068 -419 OFFCURVE",
"1160 -210 OFFCURVE",
"1177 91 CURVE",
"773 79 LINE",
"786 52 OFFCURVE",
"799 16 OFFCURVE",
"799 -15 CURVE SMOOTH",
"799 -57 OFFCURVE",
"772 -83 OFFCURVE",
"733 -83 CURVE SMOOTH",
"696 -83 OFFCURVE",
"664 -51 OFFCURVE",
"632 0 CURVE",
"499 -74 OFFCURVE",
"318 -168 OFFCURVE",
"304 -178 CURVE",
"386 -328 OFFCURVE",
"525 -419 OFFCURVE",
"750 -419 CURVE SMOOTH"
);
}
);
width = 1282;
},
{
components = (
{
alignment = -1;
name = N;
}
);
layerId = "B5195C1E-69AB-4BC6-9855-DF55601A0735";
paths = (
{
closed = 1;
nodes = (
"872 -349 OFFCURVE",
"1027 -214 OFFCURVE",
"1027 15 CURVE",
"906 75 LINE",
"922 49 OFFCURVE",
"930 13 OFFCURVE",
"930 -26 CURVE SMOOTH",
"930 -140 OFFCURVE",
"861 -279 OFFCURVE",
"730 -279 CURVE SMOOTH",
"614 -279 OFFCURVE",
"545 -212 OFFCURVE",
"511 -152 CURVE",
"491 -162 OFFCURVE",
"468 -179 OFFCURVE",
"455 -190 CURVE",
"520 -320 OFFCURVE",
"626 -349 OFFCURVE",
"730 -349 CURVE SMOOTH"
);
}
);
width = 1282;
},
{
components = (
{
alignment = -1;
name = N;
}
);
layerId = "82219AB4-7C60-4B3A-9196-329BE868CB10";
paths = (
{
closed = 1;
nodes = (
"718 -349 OFFCURVE",
"889 -214 OFFCURVE",
"951 15 CURVE",
"846 75 LINE",
"850 64 OFFCURVE",
"852 40 OFFCURVE",
"852 26 CURVE SMOOTH",
"852 -114 OFFCURVE",
"728 -279 OFFCURVE",
"575 -279 CURVE SMOOTH",
"459 -279 OFFCURVE",
"408 -212 OFFCURVE",
"390 -152 CURVE",
"367 -162 OFFCURVE",
"340 -179 OFFCURVE",
"324 -190 CURVE",
"354 -320 OFFCURVE",
"472 -349 OFFCURVE",
"576 -349 CURVE SMOOTH"
);
}
);
width = 1282;
},
{
components = (
{
alignment = -1;
name = N;
}
);
layerId = "63DB0068-8B02-4205-807F-6F2453D24B26";
paths = (
{
closed = 1;
nodes = (
"829 -419 OFFCURVE",
"977 -210 OFFCURVE",
"1074 91 CURVE",
"667 79 LINE",
"673 52 OFFCURVE",
"676 16 OFFCURVE",
"668 -15 CURVE SMOOTH",
"657 -57 OFFCURVE",
"623 -83 OFFCURVE",
"584 -83 CURVE SMOOTH",
"547 -83 OFFCURVE",
"523 -51 OFFCURVE",
"505 0 CURVE",
"352 -74 OFFCURVE",
"146 -168 OFFCURVE",
"129 -178 CURVE",
"171 -328 OFFCURVE",
"286 -419 OFFCURVE",
"511 -419 CURVE SMOOTH"
);
}
);
width = 1282;
}
);
leftKerningGroup = Eng;
rightKerningGroup = Eng;
unicode = 014A;
},
{
glyphname = O;
lastChange = "2020-04-09 00:25:56 +0000";
layers = (
{
anchors = (
{
name = bottom;
position = "{677, 0}";
},
{
name = center;
position = "{610, 646}";
},
{
name = ogonek;
position = "{747, 0}";
},
{
name = top;
position = "{677, 1291}";
},
{
name = topleft;
position = "{20, 1291}";
},
{
name = topright;
position = "{1001, 1190}";
}
);
layerId = "B5042207-EFBA-41B6-8DFD-104A953B46A6";
paths = (
{
closed = 1;
nodes = (
"1111 -51 OFFCURVE",
"1295 180 OFFCURVE",
"1295 645 CURVE SMOOTH",
"1295 1084 OFFCURVE",
"1102 1320 OFFCURVE",
"668 1320 CURVE SMOOTH",
"277 1320 OFFCURVE",
"41 1082 OFFCURVE",
"41 639 CURVE SMOOTH",
"41 193 OFFCURVE",
"228 -51 OFFCURVE",
"668 -51 CURVE SMOOTH"
);
},
{
closed = 1;
nodes = (
"491 350 OFFCURVE",
"437 464 OFFCURVE",
"437 650 CURVE SMOOTH",
"437 888 OFFCURVE",
"553 995 OFFCURVE",
"692 995 CURVE SMOOTH",
"872 995 OFFCURVE",
"935 857 OFFCURVE",
"935 641 CURVE SMOOTH",
"935 467 OFFCURVE",
"837 350 OFFCURVE",
"675 350 CURVE SMOOTH"
);
}
);
width = 1354;
},
{
anchors = (
{
name = bottom;
position = "{677, 0}";
},
{
name = center;
position = "{620, 646}";
},
{
name = ogonek;
position = "{782, 0}";
},
{
name = top;
position = "{677, 1291}";
},
{
name = topleft;
position = "{20, 1291}";
},
{
name = topright;
position = "{993, 1173}";
}
);
layerId = "B5195C1E-69AB-4BC6-9855-DF55601A0735";
paths = (
{
closed = 1;
nodes = (
"1012 -51 OFFCURVE",
"1172 202 OFFCURVE",
"1172 601 CURVE SMOOTH",
"1172 1034 OFFCURVE",
"1042 1320 OFFCURVE",
"653 1320 CURVE SMOOTH",
"296 1320 OFFCURVE",
"137 1012 OFFCURVE",
"137 593 CURVE SMOOTH",
"137 228 OFFCURVE",
"301 -51 OFFCURVE",
"653 -51 CURVE SMOOTH"
);
},
{
closed = 1;
nodes = (
"369 27 OFFCURVE",
"225 274 OFFCURVE",
"225 582 CURVE SMOOTH",
"225 949 OFFCURVE",
"332 1239 OFFCURVE",
"660 1239 CURVE SMOOTH",
"993 1239 OFFCURVE",
"1090 978 OFFCURVE",
"1090 589 CURVE SMOOTH",
"1090 244 OFFCURVE",
"972 27 OFFCURVE",
"644 27 CURVE SMOOTH"
);
}
);
width = 1354;
},
{
anchors = (
{
name = bottom;
position = "{534.585, 0}";
},
{
name = center;
position = "{652, 646}";
},
{
name = ogonek;
position = "{663, 10}";
},
{
name = top;
position = "{880.507, 1291}";
},
{
name = topleft;
position = "{223.507, 1291}";
},
{
name = topright;
position = "{1165, 1173}";
}
);
layerId = "82219AB4-7C60-4B3A-9196-329BE868CB10";
paths = (
{
closed = 1;
nodes = (
"983 -51 OFFCURVE",
"1247 379 OFFCURVE",
"1247 889 CURVE SMOOTH",
"1247 1123 OFFCURVE",
"1150 1320 OFFCURVE",
"876 1320 CURVE SMOOTH",
"448 1320 OFFCURVE",
"136 859 OFFCURVE",
"136 394 CURVE SMOOTH",
"136 154 OFFCURVE",
"248 -51 OFFCURVE",
"519 -51 CURVE SMOOTH"
);
},
{
closed = 1;
nodes = (
"311 27 OFFCURVE",
"225 199 OFFCURVE",
"225 409 CURVE SMOOTH",
"225 824 OFFCURVE",
"494 1239 OFFCURVE",
"874 1239 CURVE SMOOTH",
"1093 1239 OFFCURVE",
"1165 1083 OFFCURVE",
"1165 885 CURVE SMOOTH",
"1165 412 OFFCURVE",
"948 27 OFFCURVE",
"520 27 CURVE SMOOTH"
);
}
);
width = 1354;
},
{
anchors = (
{
name = bottom;
position = "{534.585, 0}";
},
{
name = center;
position = "{661, 646}";
},
{
name = ogonek;
position = "{708, 10}";
},
{
name = top;
position = "{880.507, 1291}";
},
{
name = topleft;
position = "{223.507, 1291}";
},
{
name = topright;
position = "{1198, 1190}";
}
);
layerId = "63DB0068-8B02-4205-807F-6F2453D24B26";
paths = (
{
closed = 1;
nodes = (
"1102 -51 OFFCURVE",
"1352 266 OFFCURVE",
"1352 797 CURVE SMOOTH",
"1352 1107 OFFCURVE",
"1242 1320 OFFCURVE",
"852 1320 CURVE SMOOTH",
"371 1320 OFFCURVE",
"64 991 OFFCURVE",
"64 459 CURVE SMOOTH",
"64 165 OFFCURVE",
"214 -51 OFFCURVE",
"574 -51 CURVE SMOOTH"
);
},
{
closed = 1;
nodes = (
"518 350 OFFCURVE",
"469 469 OFFCURVE",
"469 578 CURVE SMOOTH",
"469 817 OFFCURVE",
"578 995 OFFCURVE",
"799 995 CURVE SMOOTH",
"946 995 OFFCURVE",
"983 874 OFFCURVE",
"983 758 CURVE SMOOTH",
"983 513 OFFCURVE",
"886 350 OFFCURVE",
"659 350 CURVE SMOOTH"
);
}
);
width = 1354;
}
);
leftKerningGroup = O;
rightKerningGroup = O;
unicode = 004F;
},
{
glyphname = P;
lastChange = "2020-04-09 00:31:33 +0000";
layers = (
{
anchors = (
{
name = bottom;
position = "{505, 0}";
},
{
name = top;
position = "{505, 1291}";
}
);
layerId = "B5042207-EFBA-41B6-8DFD-104A953B46A6";
paths = (
{
closed = 1;
nodes = (
"139 -10 OFFCURVE",
"377 -14 OFFCURVE",
"453 -14 CURVE",
"453 95 OFFCURVE",
"465 421 OFFCURVE",
"465 491 CURVE",
"480 482 OFFCURVE",
"538 474 OFFCURVE",
"568 474 CURVE SMOOTH",
"850 474 OFFCURVE",
"976 656 OFFCURVE",
"978 911 CURVE SMOOTH",
"979 1179 OFFCURVE",
"785 1292 OFFCURVE",
"511 1292 CURVE SMOOTH",
"368 1292 OFFCURVE",
"226 1283 OFFCURVE",
"94 1256 CURVE",
"70 1087 OFFCURVE",
"51 25 OFFCURVE",
"51 -4 CURVE"
);
},
{
closed = 1;
nodes = (
"456 849 OFFCURVE",
"451 988 OFFCURVE",
"451 1003 CURVE",
"477 1006 OFFCURVE",
"505 1009 OFFCURVE",
"532 1009 CURVE SMOOTH",
"604 1009 OFFCURVE",
"649 990 OFFCURVE",
"649 915 CURVE SMOOTH",
"649 849 OFFCURVE",
"595 804 OFFCURVE",
"521 804 CURVE SMOOTH",
"501 804 OFFCURVE",
"473 807 OFFCURVE",
"456 811 CURVE"
);
}
);
width = 1010;
},
{
anchors = (
{
name = bottom;
position = "{505, 0}";
},
{
name = top;
position = "{505, 1291}";
}
);
layerId = "B5195C1E-69AB-4BC6-9855-DF55601A0735";
paths = (
{
closed = 1;
nodes = (
"150 -27 OFFCURVE",
"191 -28 OFFCURVE",
"219 -28 CURVE",
"221 282 OFFCURVE",
"236 591 OFFCURVE",
"238 670 CURVE",
"306 662 OFFCURVE",
"371 657 OFFCURVE",
"432 657 CURVE SMOOTH",
"703 657 OFFCURVE",
"865 743 OFFCURVE",
"865 1000 CURVE SMOOTH",
"865 1196 OFFCURVE",
"732 1284 OFFCURVE",
"497 1284 CURVE SMOOTH",
"350 1284 OFFCURVE",
"253 1265 OFFCURVE",
"171 1248 CURVE",
"144 644 OFFCURVE",
"136 370 OFFCURVE",
"130 -26 CURVE"
);
},
{
closed = 1;
nodes = (
"238 788 OFFCURVE",
"253 1178 OFFCURVE",
"253 1193 CURVE",
"358 1207 OFFCURVE",
"440 1213 OFFCURVE",
"506 1213 CURVE SMOOTH",
"674 1213 OFFCURVE",
"788 1157 OFFCURVE",
"788 988 CURVE SMOOTH",
"788 778 OFFCURVE",
"616 730 OFFCURVE",
"451 730 CURVE SMOOTH",
"374 730 OFFCURVE",
"298 741 OFFCURVE",
"238 750 CURVE"
);
}
);
width = 1010;
},
{
anchors = (
{
name = bottom;
position = "{362.585, 0}";
},
{
name = top;
position = "{708.507, 1291}";
}
);
layerId = "82219AB4-7C60-4B3A-9196-329BE868CB10";
paths = (
{
closed = 1;
nodes = (
"46 -27 OFFCURVE",
"87 -28 OFFCURVE",
"115 -28 CURVE",
"200 282 OFFCURVE",
"298 591 OFFCURVE",
"321 670 CURVE",
"387 662 OFFCURVE",
"451 657 OFFCURVE",
"512 657 CURVE SMOOTH",
"818 657 OFFCURVE",
"1050 762 OFFCURVE",
"1050 1049 CURVE SMOOTH",
"1050 1203 OFFCURVE",
"941 1284 OFFCURVE",
"745 1284 CURVE SMOOTH",
"598 1284 OFFCURVE",
"496 1265 OFFCURVE",
"409 1248 CURVE",
"220 644 OFFCURVE",
"139 370 OFFCURVE",
"27 -26 CURVE"
);
},
{
closed = 1;
nodes = (
"353 788 OFFCURVE",
"472 1178 OFFCURVE",
"476 1193 CURVE",
"585 1207 OFFCURVE",
"679 1213 OFFCURVE",
"745 1213 CURVE SMOOTH",
"885 1213 OFFCURVE",
"967 1164 OFFCURVE",
"967 1033 CURVE SMOOTH",
"967 823 OFFCURVE",
"781 730 OFFCURVE",
"550 730 CURVE SMOOTH",
"473 730 OFFCURVE",
"400 741 OFFCURVE",
"343 750 CURVE"
);
}
);
width = 1010;
},
{
anchors = (
{
name = bottom;
position = "{343, 0}";
},
{
name = top;
position = "{689, 1291}";
}
);
layerId = "63DB0068-8B02-4205-807F-6F2453D24B26";
paths = (
{
closed = 1;
nodes = (
"5 -10 OFFCURVE",
"242 -14 OFFCURVE",
"318 -14 CURVE",
"347 95 OFFCURVE",
"447 421 OFFCURVE",
"465 491 CURVE",
"478 482 OFFCURVE",
"544 474 OFFCURVE",
"574 474 CURVE SMOOTH",
"874 474 OFFCURVE",
"1109 711 OFFCURVE",
"1109 989 CURVE SMOOTH",
"1109 1193 OFFCURVE",
"956 1292 OFFCURVE",
"726 1292 CURVE SMOOTH",
"583 1292 OFFCURVE",
"439 1283 OFFCURVE",
"299 1256 CURVE",
"230 1087 OFFCURVE",
"-74 25 OFFCURVE",
"-81 -4 CURVE"
);
},
{
closed = 1;
nodes = (
"552 849 OFFCURVE",
"585 988 OFFCURVE",
"589 1003 CURVE",
"615 1006 OFFCURVE",
"644 1009 OFFCURVE",
"671 1009 CURVE SMOOTH",
"730 1009 OFFCURVE",
"768 986 OFFCURVE",
"768 919 CURVE SMOOTH",
"768 860 OFFCURVE",
"715 804 OFFCURVE",
"625 804 CURVE SMOOTH",
"595 804 OFFCURVE",
"558 807 OFFCURVE",
"542 811 CURVE"
);
}
);
width = 1010;
}
);
leftKerningGroup = H;
rightKerningGroup = P;
unicode = 0050;
},
{
glyphname = Thorn;
lastChange = "2020-01-13 21:12:48 +0000";
layers = (
{
layerId = "B5042207-EFBA-41B6-8DFD-104A953B46A6";
paths = (
{
closed = 1;
nodes = (
"217 1282 OFFCURVE",
"68 1265 OFFCURVE",
"48 1262 CURVE",
"66 1017 OFFCURVE",
"79 191 OFFCURVE",
"79 -22 CURVE",
"206 -22 OFFCURVE",
"405 -12 OFFCURVE",
"506 7 CURVE",
"506 234 OFFCURVE",
"444 1046 OFFCURVE",
"409 1282 CURVE"
);
},
{
closed = 1;
nodes = (
"456 755 OFFCURVE",
"556 791 OFFCURVE",
"684 791 CURVE SMOOTH",
"797 791 OFFCURVE",
"878 763 OFFCURVE",
"878 672 CURVE SMOOTH",
"878 571 OFFCURVE",
"772 547 OFFCURVE",
"631 547 CURVE SMOOTH",
"549 547 OFFCURVE",
"468 555 OFFCURVE",
"419 561 CURVE",
"405 209 LINE",
"479 199 OFFCURVE",
"556 194 OFFCURVE",
"633 194 CURVE SMOOTH",
"945 194 OFFCURVE",
"1253 299 OFFCURVE",
"1253 632 CURVE SMOOTH",
"1253 983 OFFCURVE",
"971 1129 OFFCURVE",
"652 1129 CURVE SMOOTH",
"535 1129 OFFCURVE",
"416 1103 OFFCURVE",
"351 1083 CURVE",
"393 727 LINE"
);
}
);
width = 1316;
},
{
layerId = "B5195C1E-69AB-4BC6-9855-DF55601A0735";
paths = (
{
closed = 1;
nodes = (
"225 1282 OFFCURVE",
"195 1280 OFFCURVE",
"174 1277 CURVE",
"195 990 OFFCURVE",
"213 154 OFFCURVE",
"205 -22 CURVE",
"221 -22 OFFCURVE",
"276 -22 OFFCURVE",
"311 -21 CURVE",
"311 232 OFFCURVE",
"273 990 OFFCURVE",
"248 1282 CURVE"
);
},
{
closed = 1;
nodes = (
"350 931 OFFCURVE",
"468 945 OFFCURVE",
"585 945 CURVE SMOOTH",
"862 945 OFFCURVE",
"1026 867 OFFCURVE",
"1026 674 CURVE SMOOTH",
"1026 454 OFFCURVE",
"896 361 OFFCURVE",
"562 361 CURVE SMOOTH",
"462 361 OFFCURVE",
"354 370 OFFCURVE",
"241 385 CURVE",
"227 299 LINE",
"332 286 OFFCURVE",
"444 278 OFFCURVE",
"553 278 CURVE SMOOTH",
"906 278 OFFCURVE",
"1118 366 OFFCURVE",
"1118 670 CURVE SMOOTH",
"1118 946 OFFCURVE",
"896 1029 OFFCURVE",
"638 1029 CURVE SMOOTH",
"509 1029 OFFCURVE",
"376 1015 OFFCURVE",
"254 995 CURVE",
"254 906 LINE"
);
}
);
width = 1316;
},
{
layerId = "82219AB4-7C60-4B3A-9196-329BE868CB10";
paths = (
{
closed = 1;
nodes = (
"430 1282 OFFCURVE",
"399 1280 OFFCURVE",
"377 1277 CURVE",
"321 990 OFFCURVE",
"115 154 OFFCURVE",
"60 -22 CURVE",
"105 -22 OFFCURVE",
"153 -21 OFFCURVE",
"167 -21 CURVE",
"234 232 OFFCURVE",
"399 990 OFFCURVE",
"453 1282 CURVE"
);
},
{
closed = 1;
nodes = (
"461 931 OFFCURVE",
"582 945 OFFCURVE",
"699 945 CURVE SMOOTH",
"953 945 OFFCURVE",
"1071 857 OFFCURVE",
"1071 714 CURVE SMOOTH",
"1071 439 OFFCURVE",
"830 361 OFFCURVE",
"520 361 CURVE SMOOTH",
"420 361 OFFCURVE",
"314 370 OFFCURVE",
"205 385 CURVE",
"168 299 LINE",
"270 286 OFFCURVE",
"400 278 OFFCURVE",
"509 278 CURVE SMOOTH",
"880 278 OFFCURVE",
"1163 374 OFFCURVE",
"1163 729 CURVE SMOOTH",
"1163 937 OFFCURVE",
"992 1029 OFFCURVE",
"755 1029 CURVE SMOOTH",
"626 1029 OFFCURVE",
"509 1015 OFFCURVE",
"382 995 CURVE",
"358 906 LINE"
);
}
);
width = 1316;
},
{
layerId = "63DB0068-8B02-4205-807F-6F2453D24B26";
paths = (
{
closed = 1;
nodes = (
"442 1282 OFFCURVE",
"288 1265 OFFCURVE",
"267 1262 CURVE",
"220 1017 OFFCURVE",
"11 191 OFFCURVE",
"-46 -22 CURVE",
"81 -22 OFFCURVE",
"283 -12 OFFCURVE",
"389 7 CURVE",
"450 234 OFFCURVE",
"605 1046 OFFCURVE",
"634 1282 CURVE"
);
},
{
closed = 1;
nodes = (
"539 755 OFFCURVE",
"649 791 OFFCURVE",
"777 791 CURVE SMOOTH",
"878 791 OFFCURVE",
"942 762 OFFCURVE",
"942 697 CURVE SMOOTH",
"942 573 OFFCURVE",
"798 547 OFFCURVE",
"659 547 CURVE SMOOTH",
"577 547 OFFCURVE",
"498 555 OFFCURVE",
"451 561 CURVE",
"342 209 LINE",
"414 199 OFFCURVE",
"519 194 OFFCURVE",
"596 194 CURVE SMOOTH",
"1004 194 OFFCURVE",
"1318 365 OFFCURVE",
"1318 755 CURVE SMOOTH",
"1318 1014 OFFCURVE",
"1104 1129 OFFCURVE",
"826 1129 CURVE SMOOTH",
"709 1129 OFFCURVE",
"593 1103 OFFCURVE",
"522 1083 CURVE",
"469 727 LINE"
);
}
);
width = 1316;
}
);
leftKerningGroup = H;
rightKerningGroup = Thorn;
unicode = 00DE;
},
{
glyphname = Q;
lastChange = "2020-04-09 00:24:32 +0000";
layers = (
{
anchors = (
{
name = bottom;
position = "{646, 0}";
},
{
name = top;
position = "{646, 1291}";
}
);
layerId = "B5042207-EFBA-41B6-8DFD-104A953B46A6";
paths = (
{
closed = 1;
nodes = (
"1146 -137 OFFCURVE",
"1234 -58 OFFCURVE",
"1283 14 CURVE",
"1213 50 OFFCURVE",
"1125 107 OFFCURVE",
"1074 174 CURVE",
"1222 284 OFFCURVE",
"1244 475 OFFCURVE",
"1244 685 CURVE SMOOTH",
"1244 1043 OFFCURVE",
"1063 1299 OFFCURVE",
"651 1299 CURVE SMOOTH",
"273 1299 OFFCURVE",
"21 1020 OFFCURVE",
"21 612 CURVE SMOOTH",
"21 252 OFFCURVE",
"265 -21 OFFCURVE",
"613 -21 CURVE SMOOTH",
"703 -21 OFFCURVE",
"788 8 OFFCURVE",
"821 29 CURVE",
"850 -18 OFFCURVE",
"1009 -158 OFFCURVE",
"1074 -187 CURVE"
);
},
{
closed = 1;
nodes = (
"649 326 OFFCURVE",
"638 323 OFFCURVE",
"610 323 CURVE SMOOTH",
"460 323 OFFCURVE",
"394 523 OFFCURVE",
"394 680 CURVE SMOOTH",
"394 866 OFFCURVE",
"493 986 OFFCURVE",
"667 986 CURVE SMOOTH",
"835 986 OFFCURVE",
"905 859 OFFCURVE",
"905 644 CURVE SMOOTH",
"905 517 OFFCURVE",
"896 454 OFFCURVE",
"883 433 CURVE",
"854 475 OFFCURVE",
"825 548 OFFCURVE",
"808 598 CURVE",
"738 558 OFFCURVE",
"629 489 OFFCURVE",
"585 454 CURVE",
"595 419 OFFCURVE",
"640 342 OFFCURVE",
"653 328 CURVE"
);
}
);
width = 1291;
},
{
anchors = (
{
name = bottom;
position = "{646, 0}";
},
{
name = top;
position = "{646, 1291}";
}
);
layerId = "B5195C1E-69AB-4BC6-9855-DF55601A0735";
paths = (
{
closed = 1;
nodes = (
"1133 -4 OFFCURVE",
"1144 37 OFFCURVE",
"1153 63 CURVE",
"1072 83 OFFCURVE",
"991 122 OFFCURVE",
"936 169 CURVE",
"1018 269 OFFCURVE",
"1074 430 OFFCURVE",
"1074 608 CURVE SMOOTH",
"1074 1012 OFFCURVE",
"921 1299 OFFCURVE",
"574 1299 CURVE SMOOTH",
"262 1299 OFFCURVE",
"130 986 OFFCURVE",
"130 654 CURVE SMOOTH",
"130 320 OFFCURVE",
"260 8 OFFCURVE",
"585 8 CURVE SMOOTH",
"770 8 OFFCURVE",
"851 84 OFFCURVE",
"876 113 CURVE",
"914 82 OFFCURVE",
"1064 -11 OFFCURVE",
"1121 -31 CURVE"
);
},
{
closed = 1;
nodes = (
"796 135 OFFCURVE",
"731 80 OFFCURVE",
"603 80 CURVE SMOOTH",
"315 80 OFFCURVE",
"220 332 OFFCURVE",
"220 647 CURVE SMOOTH",
"220 961 OFFCURVE",
"335 1210 OFFCURVE",
"576 1210 CURVE SMOOTH",
"868 1210 OFFCURVE",
"981 941 OFFCURVE",
"981 607 CURVE SMOOTH",
"981 444 OFFCURVE",
"944 311 OFFCURVE",
"872 208 CURVE",
"779 292 OFFCURVE",
"700 430 OFFCURVE",
"656 518 CURVE",
"643 508 OFFCURVE",
"617 486 OFFCURVE",
"596 465 CURVE",
"649 363 OFFCURVE",
"740 227 OFFCURVE",
"818 160 CURVE"
);
}
);
width = 1291;
},
{
anchors = (
{
name = bottom;
position = "{503.585, 0}";
},
{
name = top;
position = "{849.507, 1291}";
}
);
layerId = "82219AB4-7C60-4B3A-9196-329BE868CB10";
paths = (
{
closed = 1;
nodes = (
"1050 6 OFFCURVE",
"1065 37 OFFCURVE",
"1081 63 CURVE",
"1005 83 OFFCURVE",
"941 113 OFFCURVE",
"898 160 CURVE",
"1088 335 OFFCURVE",
"1182 619 OFFCURVE",
"1182 885 CURVE SMOOTH",
"1182 1137 OFFCURVE",
"1074 1299 OFFCURVE",
"813 1299 CURVE SMOOTH",
"436 1299 OFFCURVE",
"188 838 OFFCURVE",
"188 409 CURVE SMOOTH",
"188 182 OFFCURVE",
"283 8 OFFCURVE",
"525 8 CURVE SMOOTH",
"710 8 OFFCURVE",
"799 84 OFFCURVE",
"831 113 CURVE",
"861 72 OFFCURVE",
"982 -1 OFFCURVE",
"1034 -21 CURVE"
);
},
{
closed = 1;
nodes = (
"743 137 OFFCURVE",
"664 80 OFFCURVE",
"536 80 CURVE SMOOTH",
"344 80 OFFCURVE",
"275 215 OFFCURVE",
"275 403 CURVE SMOOTH",
"275 774 OFFCURVE",
"481 1210 OFFCURVE",
"811 1210 CURVE SMOOTH",
"1017 1210 OFFCURVE",
"1088 1076 OFFCURVE",
"1088 881 CURVE SMOOTH",
"1088 627 OFFCURVE",
"1015 391 OFFCURVE",
"839 208 CURVE",
"768 292 OFFCURVE",
"726 430 OFFCURVE",
"706 518 CURVE",
"690 508 OFFCURVE",
"658 486 OFFCURVE",
"632 465 CURVE",
"657 363 OFFCURVE",
"712 229 OFFCURVE",
"772 162 CURVE"
);
}
);
width = 1291;
},
{
anchors = (
{
name = bottom;
position = "{503.585, 0}";
},
{
name = top;
position = "{849.507, 1291}";
}
);
layerId = "63DB0068-8B02-4205-807F-6F2453D24B26";
paths = (
{
closed = 1;
nodes = (
"989 -137 OFFCURVE",
"1098 -58 OFFCURVE",
"1167 14 CURVE",
"1106 50 OFFCURVE",
"1034 107 OFFCURVE",
"1001 174 CURVE",
"1208 303 OFFCURVE",
"1324 585 OFFCURVE",
"1324 848 CURVE SMOOTH",
"1324 1108 OFFCURVE",
"1183 1299 OFFCURVE",
"839 1299 CURVE SMOOTH",
"390 1299 OFFCURVE",
"50 910 OFFCURVE",
"50 456 CURVE SMOOTH",
"50 182 OFFCURVE",
"203 -21 OFFCURVE",
"497 -21 CURVE SMOOTH",
"587 -21 OFFCURVE",
"690 8 OFFCURVE",
"729 29 CURVE",
"745 -18 OFFCURVE",
"847 -158 OFFCURVE",
"904 -187 CURVE"
);
},
{
closed = 1;
nodes = (
"616 326 OFFCURVE",
"605 323 OFFCURVE",
"577 323 CURVE SMOOTH",
"473 323 OFFCURVE",
"439 419 OFFCURVE",
"439 530 CURVE SMOOTH",
"439 785 OFFCURVE",
"574 986 OFFCURVE",
"811 986 CURVE SMOOTH",
"932 986 OFFCURVE",
"976 922 OFFCURVE",
"976 805 CURVE SMOOTH",
"976 710 OFFCURVE",
"939 500 OFFCURVE",
"879 433 CURVE",
"861 475 OFFCURVE",
"852 548 OFFCURVE",
"848 598 CURVE",
"768 558 OFFCURVE",
"640 489 OFFCURVE",
"587 454 CURVE",
"587 419 OFFCURVE",
"612 342 OFFCURVE",
"621 328 CURVE"
);
}
);
width = 1291;
}
);
leftKerningGroup = O;
rightKerningGroup = O;
unicode = 0051;
},
{
glyphname = Q.ss01;
lastChange = "2020-01-09 21:07:10 +0000";
layers = (
{
anchors = (
{
name = bottom;
position = "{646, 0}";
},
{
name = top;
position = "{646, 1291}";
}
);
layerId = "B5042207-EFBA-41B6-8DFD-104A953B46A6";
paths = (
{
closed = 1;
nodes = (
"1243 -202 OFFCURVE",
"1308 -16 OFFCURVE",
"1311 11 CURVE",
"1284 13 OFFCURVE",
"1169 74 OFFCURVE",
"1109 173 CURVE",
"1207 251 OFFCURVE",
"1240 436 OFFCURVE",
"1240 623 CURVE SMOOTH",
"1240 1041 OFFCURVE",
"1047 1282 OFFCURVE",
"619 1282 CURVE SMOOTH",
"228 1282 OFFCURVE",
"24 1018 OFFCURVE",
"24 607 CURVE SMOOTH",
"24 190 OFFCURVE",
"254 -26 OFFCURVE",
"682 -26 CURVE SMOOTH",
"732 -26 OFFCURVE",
"770 -18 OFFCURVE",
"801 -7 CURVE",
"819 -101 OFFCURVE",
"949 -279 OFFCURVE",
"1130 -335 CURVE"
);
},
{
closed = 1;
nodes = (
"459 338 OFFCURVE",
"380 448 OFFCURVE",
"380 616 CURVE SMOOTH",
"380 825 OFFCURVE",
"455 969 OFFCURVE",
"668 969 CURVE SMOOTH",
"853 969 OFFCURVE",
"903 841 OFFCURVE",
"903 652 CURVE SMOOTH",
"903 441 OFFCURVE",
"832 338 OFFCURVE",
"615 338 CURVE SMOOTH"
);
}
);
width = 1291;
},
{
anchors = (
{
name = bottom;
position = "{646, 0}";
},
{
name = top;
position = "{646, 1291}";
}
);
layerId = "B5195C1E-69AB-4BC6-9855-DF55601A0735";
paths = (
{
closed = 1;
nodes = (
"1104 -159 OFFCURVE",
"1145 -103 OFFCURVE",
"1161 -89 CURVE",
"1041 -38 OFFCURVE",
"926 120 OFFCURVE",
"913 144 CURVE",
"1007 240 OFFCURVE",
"1064 418 OFFCURVE",
"1064 634 CURVE SMOOTH",
"1064 1002 OFFCURVE",
"898 1299 OFFCURVE",
"574 1299 CURVE SMOOTH",
"270 1299 OFFCURVE",
"118 978 OFFCURVE",
"118 644 CURVE SMOOTH",
"118 313 OFFCURVE",
"276 -10 OFFCURVE",
"578 -10 CURVE SMOOTH",
"680 -10 OFFCURVE",
"783 16 OFFCURVE",
"855 90 CURVE",
"909 -20 OFFCURVE",
"1010 -118 OFFCURVE",
"1084 -169 CURVE"
);
},
{
closed = 1;
nodes = (
"348 74 OFFCURVE",
"206 346 OFFCURVE",
"206 625 CURVE SMOOTH",
"206 938 OFFCURVE",
"320 1210 OFFCURVE",
"576 1210 CURVE SMOOTH",
"908 1210 OFFCURVE",
"979 843 OFFCURVE",
"979 650 CURVE SMOOTH",
"979 369 OFFCURVE",
"851 74 OFFCURVE",
"603 74 CURVE SMOOTH"
);
}
);
width = 1291;
},
{
anchors = (
{
name = bottom;
position = "{503.585, 0}";
},
{
name = top;
position = "{849.507, 1291}";
}
);
layerId = "82219AB4-7C60-4B3A-9196-329BE868CB10";
paths = (
{
closed = 1;
nodes = (
"980 -159 OFFCURVE",
"1034 -103 OFFCURVE",
"1046 -89 CURVE",
"970 -44 OFFCURVE",
"889 76 OFFCURVE",
"860 144 CURVE",
"1049 295 OFFCURVE",
"1178 615 OFFCURVE",
"1178 870 CURVE SMOOTH",
"1178 1110 OFFCURVE",
"1064 1299 OFFCURVE",
"820 1299 CURVE SMOOTH",
"457 1299 OFFCURVE",
"163 812 OFFCURVE",
"163 401 CURVE SMOOTH",
"163 176 OFFCURVE",
"261 -10 OFFCURVE",
"484 -10 CURVE SMOOTH",
"586 -10 OFFCURVE",
"696 16 OFFCURVE",
"788 90 CURVE",
"822 -20 OFFCURVE",
"897 -118 OFFCURVE",
"957 -169 CURVE"
);
},
{
closed = 1;
nodes = (
"331 74 OFFCURVE",
"251 229 OFFCURVE",
"251 417 CURVE SMOOTH",
"251 769 OFFCURVE",
"498 1210 OFFCURVE",
"809 1210 CURVE SMOOTH",
"1033 1210 OFFCURVE",
"1093 1024 OFFCURVE",
"1093 856 CURVE SMOOTH",
"1093 500 OFFCURVE",
"825 74 OFFCURVE",
"517 74 CURVE SMOOTH"
);
}
);
width = 1291;
},
{
anchors = (
{
name = bottom;
position = "{503.585, 0}";
},
{
name = top;
position = "{849.507, 1291}";
}
);
layerId = "63DB0068-8B02-4205-807F-6F2453D24B26";
paths = (
{
closed = 1;
nodes = (
"1083 -202 OFFCURVE",
"1178 -16 OFFCURVE",
"1188 11 CURVE",
"1162 13 OFFCURVE",
"1063 74 OFFCURVE",
"1029 173 CURVE",
"1219 278 OFFCURVE",
"1305 599 OFFCURVE",
"1305 829 CURVE SMOOTH",
"1305 1126 OFFCURVE",
"1170 1282 OFFCURVE",
"827 1282 CURVE SMOOTH",
"354 1282 OFFCURVE",
"45 920 OFFCURVE",
"45 468 CURVE SMOOTH",
"45 154 OFFCURVE",
"191 -26 OFFCURVE",
"549 -26 CURVE SMOOTH",
"599 -26 OFFCURVE",
"660 -8 OFFCURVE",
"694 3 CURVE",
"687 -91 OFFCURVE",
"768 -279 OFFCURVE",
"934 -335 CURVE"
);
},
{
closed = 1;
nodes = (
"490 338 OFFCURVE",
"403 413 OFFCURVE",
"403 548 CURVE SMOOTH",
"403 757 OFFCURVE",
"548 969 OFFCURVE",
"782 969 CURVE SMOOTH",
"910 969 OFFCURVE",
"968 887 OFFCURVE",
"968 776 CURVE SMOOTH",
"968 520 OFFCURVE",
"839 338 OFFCURVE",
"610 338 CURVE SMOOTH"
);
}
);
width = 1291;
}
);
leftKerningGroup = Q.ss01;
rightKerningGroup = Q.ss01;
},
{
glyphname = R;
lastChange = "2020-02-21 19:13:20 +0000";
layers = (
{
anchors = (
{
name = bottom;
position = "{547, 0}";
},
{
name = top;
position = "{504, 1331}";
}
);
layerId = "B5042207-EFBA-41B6-8DFD-104A953B46A6";
paths = (
{
closed = 1;
nodes = (
"234 -24 OFFCURVE",
"410 -20 OFFCURVE",
"510 2 CURVE",
"510 130 OFFCURVE",
"485 469 OFFCURVE",
"472 561 CURVE",
"499 562 OFFCURVE",
"510 564 OFFCURVE",
"537 569 CURVE",
"568 478 OFFCURVE",
"675 77 OFFCURVE",
"696 -21 CURVE",
"716 -19 OFFCURVE",
"986 30 OFFCURVE",
"1084 89 CURVE",
"1049 194 OFFCURVE",
"927 504 OFFCURVE",
"850 653 CURVE",
"955 710 OFFCURVE",
"1038 846 OFFCURVE",
"1038 984 CURVE SMOOTH",
"1038 1271 OFFCURVE",
"784 1331 OFFCURVE",
"504 1331 CURVE SMOOTH",
"354 1331 OFFCURVE",
"171 1311 OFFCURVE",
"34 1303 CURVE",
"50 832 OFFCURVE",
"89 395 OFFCURVE",
"101 -24 CURVE"
);
},
{
closed = 1;
nodes = (
"431 903 OFFCURVE",
"419 981 OFFCURVE",
"414 1038 CURVE",
"438 1041 OFFCURVE",
"486 1047 OFFCURVE",
"529 1047 CURVE SMOOTH",
"633 1047 OFFCURVE",
"692 1043 OFFCURVE",
"692 972 CURVE SMOOTH",
"692 907 OFFCURVE",
"636 875 OFFCURVE",
"548 863 CURVE SMOOTH",
"497 856 OFFCURVE",
"466 855 OFFCURVE",
"436 855 CURVE"
);
}
);
width = 1094;
},
{
anchors = (
{
name = bottom;
position = "{547, 0}";
},
{
name = top;
position = "{489, 1317}";
}
);
layerId = "B5195C1E-69AB-4BC6-9855-DF55601A0735";
paths = (
{
closed = 1;
nodes = (
"251 -29 OFFCURVE",
"301 -27 OFFCURVE",
"321 -24 CURVE",
"306 149 OFFCURVE",
"279 586 OFFCURVE",
"277 622 CURVE",
"323 622 OFFCURVE",
"479 644 OFFCURVE",
"585 674 CURVE",
"638 573 OFFCURVE",
"800 142 OFFCURVE",
"821 -15 CURVE",
"841 -14 OFFCURVE",
"897 7 OFFCURVE",
"916 22 CURVE",
"884 176 OFFCURVE",
"745 569 OFFCURVE",
"658 692 CURVE",
"808 743 OFFCURVE",
"866 872 OFFCURVE",
"866 1009 CURVE SMOOTH",
"866 1264 OFFCURVE",
"711 1321 OFFCURVE",
"460 1321 CURVE SMOOTH",
"345 1321 OFFCURVE",
"238 1308 OFFCURVE",
"152 1303 CURVE",
"168 832 OFFCURVE",
"207 390 OFFCURVE",
"219 -29 CURVE"
);
},
{
closed = 1;
nodes = (
"270 740 OFFCURVE",
"236 1178 OFFCURVE",
"232 1236 CURVE",
"260 1239 OFFCURVE",
"446 1253 OFFCURVE",
"489 1253 CURVE SMOOTH",
"638 1253 OFFCURVE",
"785 1227 OFFCURVE",
"785 1008 CURVE SMOOTH",
"785 868 OFFCURVE",
"755 782 OFFCURVE",
"504 723 CURVE SMOOTH",
"417 703 OFFCURVE",
"349 692 OFFCURVE",
"274 692 CURVE"
);
}
);
width = 1094;
},
{
anchors = (
{
name = bottom;
position = "{404.585, 0}";
},
{
name = top;
position = "{686, 1321}";
}
);
layerId = "82219AB4-7C60-4B3A-9196-329BE868CB10";
paths = (
{
closed = 1;
nodes = (
"115 -29 OFFCURVE",
"166 -27 OFFCURVE",
"186 -24 CURVE",
"218 149 OFFCURVE",
"308 586 OFFCURVE",
"316 622 CURVE",
"362 622 OFFCURVE",
"523 644 OFFCURVE",
"638 674 CURVE",
"688 530 OFFCURVE",
"706 240 OFFCURVE",
"706 -15 CURVE",
"726 -14 OFFCURVE",
"776 7 OFFCURVE",
"799 22 CURVE",
"799 185 OFFCURVE",
"780 548 OFFCURVE",
"717 698 CURVE",
"902 756 OFFCURVE",
"1015 864 OFFCURVE",
"1015 1064 CURVE SMOOTH",
"1015 1240 OFFCURVE",
"905 1321 OFFCURVE",
"686 1321 CURVE SMOOTH",
"571 1321 OFFCURVE",
"460 1308 OFFCURVE",
"373 1303 CURVE",
"263 832 OFFCURVE",
"183 390 OFFCURVE",
"83 -29 CURVE"
);
},
{
closed = 1;
nodes = (
"345 748 OFFCURVE",
"424 1178 OFFCURVE",
"435 1236 CURVE",
"464 1239 OFFCURVE",
"654 1253 OFFCURVE",
"697 1253 CURVE SMOOTH",
"830 1253 OFFCURVE",
"932 1213 OFFCURVE",
"932 1061 CURVE SMOOTH",
"932 843 OFFCURVE",
"814 784 OFFCURVE",
"575 730 CURVE SMOOTH",
"482 709 OFFCURVE",
"411 700 OFFCURVE",
"336 700 CURVE"
);
}
);
width = 1094;
},
{
anchors = (
{
name = bottom;
position = "{404.585, 0}";
},
{
name = top;
position = "{702, 1331}";
}
);
layerId = "63DB0068-8B02-4205-807F-6F2453D24B26";
paths = (
{
closed = 1;
nodes = (
"82 -24 OFFCURVE",
"260 -20 OFFCURVE",
"365 2 CURVE",
"400 130 OFFCURVE",
"466 469 OFFCURVE",
"477 561 CURVE",
"504 562 OFFCURVE",
"516 564 OFFCURVE",
"544 569 CURVE",
"553 495 OFFCURVE",
"555 129 OFFCURVE",
"555 -21 CURVE",
"586 -19 OFFCURVE",
"821 26 OFFCURVE",
"963 89 CURVE",
"956 154 OFFCURVE",
"899 551 OFFCURVE",
"880 653 CURVE",
"1048 733 OFFCURVE",
"1162 845 OFFCURVE",
"1162 1026 CURVE SMOOTH",
"1162 1263 OFFCURVE",
"972 1331 OFFCURVE",
"716 1331 CURVE SMOOTH",
"566 1331 OFFCURVE",
"377 1311 OFFCURVE",
"238 1303 CURVE",
"128 832 OFFCURVE",
"50 395 OFFCURVE",
"-51 -24 CURVE"
);
},
{
closed = 1;
nodes = (
"528 903 OFFCURVE",
"537 981 OFFCURVE",
"547 1038 CURVE",
"570 1041 OFFCURVE",
"621 1047 OFFCURVE",
"664 1047 CURVE SMOOTH",
"768 1047 OFFCURVE",
"807 1028 OFFCURVE",
"807 964 CURVE SMOOTH",
"807 896 OFFCURVE",
"715 869 OFFCURVE",
"634 862 CURVE SMOOTH",
"581 857 OFFCURVE",
"550 855 OFFCURVE",
"520 855 CURVE"
);
}
);
width = 1094;
}
);
leftKerningGroup = H;
rightKerningGroup = R;
unicode = 0052;
},
{
glyphname = S;
lastChange = "2020-02-21 19:13:39 +0000";
layers = (
{
anchors = (
{
name = bottom;
position = "{576, 0}";
},
{
name = top;
position = "{530, 1339}";
}
);
layerId = "B5042207-EFBA-41B6-8DFD-104A953B46A6";
paths = (
{
closed = 1;
nodes = (
"846 -18 OFFCURVE",
"1075 150 OFFCURVE",
"1075 427 CURVE SMOOTH",
"1075 702 OFFCURVE",
"843 790 OFFCURVE",
"562 891 CURVE SMOOTH",
"477 921 OFFCURVE",
"452 954 OFFCURVE",
"452 990 CURVE SMOOTH",
"452 1039 OFFCURVE",
"505 1056 OFFCURVE",
"559 1056 CURVE SMOOTH",
"621 1056 OFFCURVE",
"725 1017 OFFCURVE",
"821 928 CURVE",
"889 976 OFFCURVE",
"972 1085 OFFCURVE",
"1022 1181 CURVE",
"863 1333 OFFCURVE",
"699 1349 OFFCURVE",
"530 1349 CURVE SMOOTH",
"272 1349 OFFCURVE",
"62 1216 OFFCURVE",
"62 971 CURVE SMOOTH",
"62 743 OFFCURVE",
"269 650 OFFCURVE",
"511 547 CURVE SMOOTH",
"653 487 OFFCURVE",
"682 428 OFFCURVE",
"682 385 CURVE SMOOTH",
"682 334 OFFCURVE",
"659 287 OFFCURVE",
"583 287 CURVE SMOOTH",
"475 287 OFFCURVE",
"388 347 OFFCURVE",
"282 460 CURVE",
"212 426 OFFCURVE",
"46 231 OFFCURVE",
"29 200 CURVE",
"190 13 OFFCURVE",
"389 -18 OFFCURVE",
"556 -18 CURVE SMOOTH"
);
}
);
width = 1152;
},
{
anchors = (
{
name = bottom;
position = "{576, 0}";
},
{
name = top;
position = "{518, 1319}";
}
);
layerId = "B5195C1E-69AB-4BC6-9855-DF55601A0735";
paths = (
{
closed = 1;
nodes = (
"871 -12 OFFCURVE",
"1014 212 OFFCURVE",
"1014 393 CURVE SMOOTH",
"1014 649 OFFCURVE",
"758 720 OFFCURVE",
"504 788 CURVE SMOOTH",
"381 821 OFFCURVE",
"198 873 OFFCURVE",
"198 1034 CURVE SMOOTH",
"198 1177 OFFCURVE",
"304 1275 OFFCURVE",
"485 1275 CURVE SMOOTH",
"738 1275 OFFCURVE",
"874 1145 OFFCURVE",
"904 1103 CURVE",
"915 1113 OFFCURVE",
"938 1154 OFFCURVE",
"944 1171 CURVE",
"921 1215 OFFCURVE",
"738 1349 OFFCURVE",
"506 1349 CURVE SMOOTH",
"293 1349 OFFCURVE",
"116 1257 OFFCURVE",
"116 1060 CURVE SMOOTH",
"116 858 OFFCURVE",
"255 769 OFFCURVE",
"487 711 CURVE SMOOTH",
"698 658 OFFCURVE",
"930 581 OFFCURVE",
"930 392 CURVE SMOOTH",
"930 248 OFFCURVE",
"822 72 OFFCURVE",
"560 72 CURVE SMOOTH",
"300 72 OFFCURVE",
"137 321 OFFCURVE",
"108 376 CURVE",
"89 362 OFFCURVE",
"56 335 OFFCURVE",
"39 318 CURVE",
"79 227 OFFCURVE",
"274 -7 OFFCURVE",
"573 -9 CURVE SMOOTH"
);
}
);
width = 1152;
},
{
anchors = (
{
name = bottom;
position = "{480, 0}";
},
{
name = top;
position = "{738, 1317}";
}
);
layerId = "82219AB4-7C60-4B3A-9196-329BE868CB10";
paths = (
{
closed = 1;
nodes = (
"755 -11 OFFCURVE",
"1024 149 OFFCURVE",
"1024 451 CURVE SMOOTH",
"1024 673 OFFCURVE",
"818 732 OFFCURVE",
"615 788 CURVE SMOOTH",
"506 818 OFFCURVE",
"379 862 OFFCURVE",
"379 1006 CURVE SMOOTH",
"379 1184 OFFCURVE",
"540 1275 OFFCURVE",
"726 1275 CURVE SMOOTH",
"979 1275 OFFCURVE",
"1080 1145 OFFCURVE",
"1099 1103 CURVE",
"1113 1113 OFFCURVE",
"1147 1154 OFFCURVE",
"1157 1171 CURVE",
"1146 1215 OFFCURVE",
"982 1349 OFFCURVE",
"750 1349 CURVE SMOOTH",
"504 1349 OFFCURVE",
"294 1234 OFFCURVE",
"294 991 CURVE SMOOTH",
"294 830 OFFCURVE",
"422 754 OFFCURVE",
"597 711 CURVE SMOOTH",
"780 666 OFFCURVE",
"937 608 OFFCURVE",
"937 440 CURVE SMOOTH",
"937 191 OFFCURVE",
"711 72 OFFCURVE",
"481 72 CURVE SMOOTH",
"221 72 OFFCURVE",
"112 321 OFFCURVE",
"98 376 CURVE",
"75 363 OFFCURVE",
"43 335 OFFCURVE",
"24 318 CURVE",
"39 227 OFFCURVE",
"182 -7 OFFCURVE",
"480 -9 CURVE SMOOTH"
);
}
);
width = 1152;
},
{
anchors = (
{
name = bottom;
position = "{463, 0}";
},
{
name = top;
position = "{730, 1339}";
}
);
layerId = "63DB0068-8B02-4205-807F-6F2453D24B26";
paths = (
{
closed = 1;
nodes = (
"784 -18 OFFCURVE",
"1073 155 OFFCURVE",
"1073 472 CURVE SMOOTH",
"1073 690 OFFCURVE",
"920 795 OFFCURVE",
"682 891 CURVE SMOOTH",
"617 917 OFFCURVE",
"594 945 OFFCURVE",
"594 974 CURVE SMOOTH",
"594 1033 OFFCURVE",
"661 1056 OFFCURVE",
"724 1056 CURVE SMOOTH",
"786 1056 OFFCURVE",
"879 1017 OFFCURVE",
"951 928 CURVE",
"1032 976 OFFCURVE",
"1144 1085 OFFCURVE",
"1220 1181 CURVE",
"1102 1333 OFFCURVE",
"902 1349 OFFCURVE",
"733 1349 CURVE SMOOTH",
"447 1349 OFFCURVE",
"200 1197 OFFCURVE",
"200 916 CURVE SMOOTH",
"200 727 OFFCURVE",
"343 641 OFFCURVE",
"539 547 CURVE SMOOTH",
"665 486 OFFCURVE",
"677 429 OFFCURVE",
"677 385 CURVE SMOOTH",
"677 332 OFFCURVE",
"618 287 OFFCURVE",
"542 287 CURVE SMOOTH",
"434 287 OFFCURVE",
"363 347 OFFCURVE",
"287 460 CURVE",
"208 426 OFFCURVE",
"-10 231 OFFCURVE",
"-36 200 CURVE",
"75 13 OFFCURVE",
"296 -18 OFFCURVE",
"463 -18 CURVE SMOOTH"
);
}
);
width = 1152;
}
);
leftKerningGroup = S;
rightKerningGroup = S;
unicode = 0053;
},
{
glyphname = Germandbls;
lastChange = "2020-01-11 01:31:29 +0000";
layers = (
{
layerId = "B5195C1E-69AB-4BC6-9855-DF55601A0735";
paths = (
{
closed = 1;
nodes = (
"210 2 OFFCURVE",
"256 7 OFFCURVE",
"267 9 CURVE",
"260 103 OFFCURVE",
"250 672 OFFCURVE",
"250 933 CURVE SMOOTH",
"250 1138 OFFCURVE",
"253 1260 OFFCURVE",
"449 1260 CURVE SMOOTH",
"612 1260 OFFCURVE",
"896 1239 OFFCURVE",
"957 1229 CURVE",
"875 1156 OFFCURVE",
"583 937 OFFCURVE",
"474 817 CURVE",
"474 778 OFFCURVE",
"487 740 OFFCURVE",
"509 701 CURVE",
"572 714 OFFCURVE",
"628 721 OFFCURVE",
"677 721 CURVE SMOOTH",
"862 721 OFFCURVE",
"1003 611 OFFCURVE",
"1003 385 CURVE SMOOTH",
"1003 149 OFFCURVE",
"819 50 OFFCURVE",
"689 50 CURVE SMOOTH",
"593 50 OFFCURVE",
"509 85 OFFCURVE",
"453 145 CURVE",
"431 126 OFFCURVE",
"403 101 OFFCURVE",
"390 80 CURVE",
"436 27 OFFCURVE",
"578 -17 OFFCURVE",
"679 -17 CURVE SMOOTH",
"923 -17 OFFCURVE",
"1091 148 OFFCURVE",
"1091 403 CURVE SMOOTH",
"1091 627 OFFCURVE",
"938 797 OFFCURVE",
"711 797 CURVE SMOOTH",
"653 797 OFFCURVE",
"595 790 OFFCURVE",
"554 785 CURVE",
"612 851 OFFCURVE",
"1031 1198 OFFCURVE",
"1043 1215 CURVE",
"1043 1238 OFFCURVE",
"1040 1267 OFFCURVE",
"1031 1289 CURVE",
"926 1313 OFFCURVE",
"585 1332 OFFCURVE",
"463 1332 CURVE SMOOTH",
"323 1332 OFFCURVE",
"174 1308 OFFCURVE",
"174 1046 CURVE SMOOTH",
"174 792 OFFCURVE",
"175 208 OFFCURVE",
"190 2 CURVE"
);
}
);
width = 1197;
},
{
layerId = "B5042207-EFBA-41B6-8DFD-104A953B46A6";
paths = (
{
closed = 1;
nodes = (
"125 -9 OFFCURVE",
"309 1 OFFCURVE",
"386 9 CURVE",
"376 137 OFFCURVE",
"376 637 OFFCURVE",
"376 850 CURVE SMOOTH",
"376 1022 OFFCURVE",
"431 1075 OFFCURVE",
"540 1075 CURVE SMOOTH",
"602 1075 OFFCURVE",
"641 1070 OFFCURVE",
"685 1060 CURVE",
"603 1006 OFFCURVE",
"498 916 OFFCURVE",
"426 838 CURVE",
"426 798 OFFCURVE",
"504 563 OFFCURVE",
"526 524 CURVE",
"580 548 OFFCURVE",
"691 571 OFFCURVE",
"742 571 CURVE SMOOTH",
"812 571 OFFCURVE",
"858 549 OFFCURVE",
"858 434 CURVE SMOOTH",
"858 342 OFFCURVE",
"814 260 OFFCURVE",
"706 260 CURVE SMOOTH",
"610 260 OFFCURVE",
"576 292 OFFCURVE",
"538 335 CURVE",
"516 316 OFFCURVE",
"403 133 OFFCURVE",
"390 109 CURVE",
"463 19 OFFCURVE",
"595 -17 OFFCURVE",
"696 -17 CURVE SMOOTH",
"940 -17 OFFCURVE",
"1186 96 OFFCURVE",
"1186 424 CURVE SMOOTH",
"1186 697 OFFCURVE",
"1068 800 OFFCURVE",
"911 800 CURVE SMOOTH",
"853 800 OFFCURVE",
"783 789 OFFCURVE",
"742 762 CURVE",
"800 791 OFFCURVE",
"1138 1038 OFFCURVE",
"1150 1055 CURVE",
"1150 1077 OFFCURVE",
"1144 1267 OFFCURVE",
"1133 1289 CURVE",
"1080 1299 OFFCURVE",
"602 1332 OFFCURVE",
"480 1332 CURVE SMOOTH",
"36 1332 OFFCURVE",
"17 1061 OFFCURVE",
"17 610 CURVE SMOOTH",
"17 349 OFFCURVE",
"27 136 OFFCURVE",
"50 -9 CURVE"
);
}
);
width = 1197;
},
{
layerId = "82219AB4-7C60-4B3A-9196-329BE868CB10";
paths = (
{
closed = 1;
nodes = (
"34 2 OFFCURVE",
"82 7 OFFCURVE",
"93 9 CURVE",
"111 103 OFFCURVE",
"254 672 OFFCURVE",
"324 933 CURVE SMOOTH",
"379 1138 OFFCURVE",
"414 1260 OFFCURVE",
"610 1260 CURVE SMOOTH",
"773 1260 OFFCURVE",
"1042 1239 OFFCURVE",
"1100 1229 CURVE",
"999 1156 OFFCURVE",
"648 937 OFFCURVE",
"507 817 CURVE",
"507 778 OFFCURVE",
"510 740 OFFCURVE",
"521 701 CURVE",
"587 714 OFFCURVE",
"645 721 OFFCURVE",
"694 721 CURVE SMOOTH",
"845 721 OFFCURVE",
"947 655 OFFCURVE",
"947 508 CURVE SMOOTH",
"947 284 OFFCURVE",
"746 50 OFFCURVE",
"526 50 CURVE SMOOTH",
"430 50 OFFCURVE",
"356 85 OFFCURVE",
"316 145 CURVE",
"289 126 OFFCURVE",
"254 101 OFFCURVE",
"235 80 CURVE",
"267 27 OFFCURVE",
"397 -17 OFFCURVE",
"498 -17 CURVE SMOOTH",
"788 -17 OFFCURVE",
"1039 222 OFFCURVE",
"1039 506 CURVE SMOOTH",
"1039 675 OFFCURVE",
"925 797 OFFCURVE",
"738 797 CURVE SMOOTH",
"680 797 OFFCURVE",
"621 790 OFFCURVE",
"588 785 CURVE",
"664 851 OFFCURVE",
"1176 1198 OFFCURVE",
"1192 1215 CURVE",
"1197 1237 OFFCURVE",
"1200 1268 OFFCURVE",
"1200 1289 CURVE",
"1102 1313 OFFCURVE",
"766 1332 OFFCURVE",
"644 1332 CURVE SMOOTH",
"504 1332 OFFCURVE",
"348 1308 OFFCURVE",
"278 1046 CURVE SMOOTH",
"210 792 OFFCURVE",
"55 208 OFFCURVE",
"14 2 CURVE"
);
}
);
width = 1197;
},
{
layerId = "63DB0068-8B02-4205-807F-6F2453D24B26";
paths = (
{
closed = 1;
nodes = (
"-14 -9 OFFCURVE",
"173 1 OFFCURVE",
"252 9 CURVE",
"278 137 OFFCURVE",
"411 637 OFFCURVE",
"468 850 CURVE SMOOTH",
"514 1022 OFFCURVE",
"583 1075 OFFCURVE",
"692 1075 CURVE SMOOTH",
"754 1075 OFFCURVE",
"792 1070 OFFCURVE",
"833 1060 CURVE",
"736 1006 OFFCURVE",
"597 916 OFFCURVE",
"504 838 CURVE",
"504 700 OFFCURVE",
"521 563 OFFCURVE",
"530 524 CURVE",
"591 548 OFFCURVE",
"692 571 OFFCURVE",
"759 571 CURVE SMOOTH",
"814 571 OFFCURVE",
"845 533 OFFCURVE",
"845 473 CURVE SMOOTH",
"845 352 OFFCURVE",
"763 260 OFFCURVE",
"639 260 CURVE SMOOTH",
"543 260 OFFCURVE",
"518 292 OFFCURVE",
"492 335 CURVE",
"464 316 OFFCURVE",
"302 133 OFFCURVE",
"283 109 CURVE",
"332 19 OFFCURVE",
"454 -17 OFFCURVE",
"555 -17 CURVE SMOOTH",
"924 -17 OFFCURVE",
"1176 173 OFFCURVE",
"1176 550 CURVE SMOOTH",
"1176 722 OFFCURVE",
"1096 800 OFFCURVE",
"969 800 CURVE SMOOTH",
"911 800 OFFCURVE",
"858 789 OFFCURVE",
"810 762 CURVE",
"876 791 OFFCURVE",
"1280 1038 OFFCURVE",
"1297 1055 CURVE",
"1302 1077 OFFCURVE",
"1342 1253 OFFCURVE",
"1342 1289 CURVE",
"1292 1299 OFFCURVE",
"823 1332 OFFCURVE",
"701 1332 CURVE SMOOTH",
"257 1332 OFFCURVE",
"165 1061 OFFCURVE",
"44 610 CURVE SMOOTH",
"-26 349 OFFCURVE",
"-73 136 OFFCURVE",
"-89 -9 CURVE"
);
}
);
width = 1197;
}
);
leftKerningGroup = H;
rightKerningGroup = B;
unicode = 1E9E;
},
{
glyphname = Schwa;
lastChange = "2020-02-20 16:12:45 +0000";
layers = (
{
layerId = "B5195C1E-69AB-4BC6-9855-DF55601A0735";
paths = (
{
closed = 1;
nodes = (
"71 987 OFFCURVE",
"128 950 OFFCURVE",
"135 944 CURVE",
"145 962 OFFCURVE",
"307 1241 OFFCURVE",
"633 1241 CURVE SMOOTH",
"859 1241 OFFCURVE",
"1026 1091 OFFCURVE",
"1080 881 CURVE SMOOTH",
"1093 830 OFFCURVE",
"1103 774 OFFCURVE",
"1104 712 CURVE",
"916 705 OFFCURVE",
"709 696 OFFCURVE",
"511 687 CURVE SMOOTH",
"328 679 OFFCURVE",
"128 673 OFFCURVE",
"104 673 CURVE",
"104 623 OFFCURVE",
"106 578 OFFCURVE",
"112 532 CURVE SMOOTH",
"155 204 OFFCURVE",
"309 -23 OFFCURVE",
"615 -23 CURVE SMOOTH",
"960 -23 OFFCURVE",
"1198 238 OFFCURVE",
"1198 622 CURVE SMOOTH",
"1198 1033 OFFCURVE",
"1025 1316 OFFCURVE",
"640 1316 CURVE SMOOTH",
"297 1316 OFFCURVE",
"108 1076 OFFCURVE",
"61 999 CURVE"
);
},
{
closed = 1;
nodes = (
"1101 281 OFFCURVE",
"907 57 OFFCURVE",
"625 57 CURVE SMOOTH",
"373 57 OFFCURVE",
"258 248 OFFCURVE",
"220 444 CURVE SMOOTH",
"211 488 OFFCURVE",
"204 551 OFFCURVE",
"204 586 CURVE",
"218 586 OFFCURVE",
"334 596 OFFCURVE",
"476 603 CURVE SMOOTH",
"706 614 OFFCURVE",
"953 621 OFFCURVE",
"1109 628 CURVE"
);
}
);
width = 1300;
},
{
layerId = "B5042207-EFBA-41B6-8DFD-104A953B46A6";
paths = (
{
closed = 1;
nodes = (
"81 1037 OFFCURVE",
"240 915 OFFCURVE",
"262 899 CURVE",
"374 991 OFFCURVE",
"524 1009 OFFCURVE",
"587 1009 CURVE SMOOTH",
"685 1009 OFFCURVE",
"780 969 OFFCURVE",
"824 897 CURVE SMOOTH",
"866 829 OFFCURVE",
"886 776 OFFCURVE",
"886 720 CURVE",
"824 714 OFFCURVE",
"606 700 OFFCURVE",
"477 692 CURVE SMOOTH",
"363 685 OFFCURVE",
"80 665 OFFCURVE",
"38 662 CURVE",
"26 599 OFFCURVE",
"21 544 OFFCURVE",
"21 477 CURVE SMOOTH",
"21 143 OFFCURVE",
"303 -26 OFFCURVE",
"581 -26 CURVE SMOOTH",
"971 -26 OFFCURVE",
"1230 276 OFFCURVE",
"1230 725 CURVE SMOOTH",
"1230 1121 OFFCURVE",
"908 1329 OFFCURVE",
"619 1329 CURVE SMOOTH",
"395 1329 OFFCURVE",
"141 1248 OFFCURVE",
"21 1120 CURVE"
);
},
{
closed = 1;
nodes = (
"863 355 OFFCURVE",
"722 278 OFFCURVE",
"598 278 CURVE SMOOTH",
"512 278 OFFCURVE",
"448 325 OFFCURVE",
"427 387 CURVE SMOOTH",
"423 399 OFFCURVE",
"420 412 OFFCURVE",
"420 424 CURVE",
"439 424 OFFCURVE",
"548 431 OFFCURVE",
"605 435 CURVE SMOOTH",
"708 443 OFFCURVE",
"819 456 OFFCURVE",
"866 462 CURVE"
);
}
);
width = 1300;
},
{
layerId = "82219AB4-7C60-4B3A-9196-329BE868CB10";
paths = (
{
closed = 1;
nodes = (
"152 987 OFFCURVE",
"205 950 OFFCURVE",
"211 944 CURVE",
"226 962 OFFCURVE",
"459 1241 OFFCURVE",
"782 1241 CURVE SMOOTH",
"1008 1241 OFFCURVE",
"1133 1091 OFFCURVE",
"1133 881 CURVE SMOOTH",
"1133 830 OFFCURVE",
"1127 774 OFFCURVE",
"1112 712 CURVE",
"922 705 OFFCURVE",
"712 696 OFFCURVE",
"512 687 CURVE SMOOTH",
"327 679 OFFCURVE",
"125 673 OFFCURVE",
"101 673 CURVE",
"77 582 OFFCURVE",
"60 485 OFFCURVE",
"60 395 CURVE SMOOTH",
"60 143 OFFCURVE",
"185 -23 OFFCURVE",
"446 -23 CURVE SMOOTH",
"894 -23 OFFCURVE",
"1220 424 OFFCURVE",
"1220 890 CURVE SMOOTH",
"1220 1151 OFFCURVE",
"1083 1316 OFFCURVE",
"789 1316 CURVE SMOOTH",
"446 1316 OFFCURVE",
"213 1076 OFFCURVE",
"145 999 CURVE"
);
},
{
closed = 1;
nodes = (
"993 281 OFFCURVE",
"739 57 OFFCURVE",
"457 57 CURVE SMOOTH",
"226 57 OFFCURVE",
"154 218 OFFCURVE",
"154 396 CURVE SMOOTH",
"154 448 OFFCURVE",
"165 541 OFFCURVE",
"178 586 CURVE",
"192 586 OFFCURVE",
"310 596 OFFCURVE",
"454 603 CURVE SMOOTH",
"687 614 OFFCURVE",
"936 621 OFFCURVE",
"1094 628 CURVE"
);
}
);
width = 1200;
},
{
layerId = "63DB0068-8B02-4205-807F-6F2453D24B26";
paths = (
{
closed = 1;
nodes = (
"237 1043 OFFCURVE",
"371 915 OFFCURVE",
"388 899 CURVE",
"525 991 OFFCURVE",
"670 1009 OFFCURVE",
"733 1009 CURVE SMOOTH",
"881 1009 OFFCURVE",
"963 927 OFFCURVE",
"963 783 CURVE SMOOTH",
"963 762 OFFCURVE",
"960 741 OFFCURVE",
"954 720 CURVE",
"891 714 OFFCURVE",
"669 700 OFFCURVE",
"538 692 CURVE SMOOTH",
"422 685 OFFCURVE",
"134 665 OFFCURVE",
"91 662 CURVE",
"51 575 OFFCURVE",
"24 465 OFFCURVE",
"24 373 CURVE SMOOTH",
"24 108 OFFCURVE",
"231 -26 OFFCURVE",
"479 -26 CURVE SMOOTH",
"962 -26 OFFCURVE",
"1310 360 OFFCURVE",
"1310 846 CURVE SMOOTH",
"1310 1169 OFFCURVE",
"1079 1329 OFFCURVE",
"821 1329 CURVE SMOOTH",
"597 1329 OFFCURVE",
"351 1248 OFFCURVE",
"197 1120 CURVE"
);
},
{
closed = 1;
nodes = (
"834 355 OFFCURVE",
"672 278 OFFCURVE",
"548 278 CURVE SMOOTH",
"458 278 OFFCURVE",
"406 330 OFFCURVE",
"406 396 CURVE SMOOTH",
"406 405 OFFCURVE",
"407 415 OFFCURVE",
"409 424 CURVE",
"428 424 OFFCURVE",
"539 431 OFFCURVE",
"597 435 CURVE SMOOTH",
"702 442 OFFCURVE",
"817 456 OFFCURVE",
"865 462 CURVE"
);
}
);
width = 1300;
}
);
leftKerningGroup = O;
rightKerningGroup = O;
unicode = 018F;
},
{
glyphname = T;
lastChange = "2020-01-13 21:56:47 +0000";
layers = (
{
anchors = (
{
name = bottom;
position = "{548, 0}";
},
{
name = center;
position = "{520, 646}";
},
{
name = top;
position = "{520, 1291}";
}
);
layerId = "B5042207-EFBA-41B6-8DFD-104A953B46A6";
paths = (
{
closed = 1;
nodes = (
"157 968 OFFCURVE",
"248 969 OFFCURVE",
"332 978 CURVE",
"331 933 OFFCURVE",
"330 877 OFFCURVE",
"330 814 CURVE SMOOTH",
"330 554 OFFCURVE",
"339 179 OFFCURVE",
"349 -14 CURVE",
"448 -14 OFFCURVE",
"664 -2 OFFCURVE",
"766 14 CURVE",
"764 42 OFFCURVE",
"721 814 OFFCURVE",
"713 986 CURVE",
"790 986 OFFCURVE",
"928 981 OFFCURVE",
"959 983 CURVE",
"974 1039 OFFCURVE",
"983 1147 OFFCURVE",
"986 1308 CURVE",
"868 1325 OFFCURVE",
"721 1331 OFFCURVE",
"572 1331 CURVE SMOOTH",
"379 1331 OFFCURVE",
"182 1321 OFFCURVE",
"34 1309 CURVE",
"36 1282 OFFCURVE",
"43 1038 OFFCURVE",
"58 968 CURVE"
);
}
);
width = 1039;
},
{
anchors = (
{
name = bottom;
position = "{550, 0}";
},
{
name = center;
position = "{520, 646}";
},
{
name = top;
position = "{520, 1291}";
}
);
layerId = "B5195C1E-69AB-4BC6-9855-DF55601A0735";
paths = (
{
closed = 1;
nodes = (
"133 1246 OFFCURVE",
"366 1256 OFFCURVE",
"484 1258 CURVE",
"483 1223 OFFCURVE",
"483 1175 OFFCURVE",
"483 1118 CURVE SMOOTH",
"483 798 OFFCURVE",
"494 189 OFFCURVE",
"504 -14 CURVE",
"522 -14 OFFCURVE",
"578 -12 OFFCURVE",
"595 -9 CURVE",
"593 19 OFFCURVE",
"576 1084 OFFCURVE",
"568 1256 CURVE",
"702 1256 OFFCURVE",
"940 1252 OFFCURVE",
"1002 1249 CURVE",
"1002 1273 OFFCURVE",
"1002 1306 OFFCURVE",
"998 1325 CURVE",
"886 1338 OFFCURVE",
"748 1342 OFFCURVE",
"605 1342 CURVE SMOOTH",
"401 1342 OFFCURVE",
"188 1333 OFFCURVE",
"34 1326 CURVE",
"36 1299 OFFCURVE",
"39 1267 OFFCURVE",
"41 1243 CURVE"
);
}
);
width = 1039;
},
{
anchors = (
{
name = bottom;
position = "{407, 0}";
},
{
name = center;
position = "{550.68, 646}";
},
{
name = top;
position = "{723.507, 1291}";
}
);
layerId = "82219AB4-7C60-4B3A-9196-329BE868CB10";
paths = (
{
closed = 1;
nodes = (
"324 1246 OFFCURVE",
"555 1256 OFFCURVE",
"673 1258 CURVE",
"663 1223 OFFCURVE",
"650 1175 OFFCURVE",
"635 1118 CURVE SMOOTH",
"551 798 OFFCURVE",
"398 189 OFFCURVE",
"353 -14 CURVE",
"371 -14 OFFCURVE",
"432 -12 OFFCURVE",
"450 -9 CURVE",
"455 19 OFFCURVE",
"724 1084 OFFCURVE",
"762 1256 CURVE",
"896 1256 OFFCURVE",
"1133 1252 OFFCURVE",
"1194 1249 CURVE",
"1200 1273 OFFCURVE",
"1209 1306 OFFCURVE",
"1210 1325 CURVE",
"1102 1338 OFFCURVE",
"965 1342 OFFCURVE",
"822 1342 CURVE SMOOTH",
"618 1342 OFFCURVE",
"402 1333 OFFCURVE",
"246 1326 CURVE",
"241 1299 OFFCURVE",
"236 1267 OFFCURVE",
"231 1243 CURVE"
);
}
);
width = 1039;
},
{
anchors = (
{
name = bottom;
position = "{393, 0}";
},
{
name = center;
position = "{551, 646}";
},
{
name = top;
position = "{723.507, 1291}";
}
);
layerId = "63DB0068-8B02-4205-807F-6F2453D24B26";
paths = (
{
closed = 1;
nodes = (
"280 968 OFFCURVE",
"361 969 OFFCURVE",
"448 978 CURVE",
"435 933 OFFCURVE",
"419 877 OFFCURVE",
"402 814 CURVE SMOOTH",
"332 554 OFFCURVE",
"241 179 OFFCURVE",
"199 -14 CURVE",
"298 -14 OFFCURVE",
"527 -2 OFFCURVE",
"633 14 CURVE",
"639 42 OFFCURVE",
"803 814 OFFCURVE",
"841 986 CURVE",
"918 986 OFFCURVE",
"1054 981 OFFCURVE",
"1086 983 CURVE",
"1116 1039 OFFCURVE",
"1154 1147 OFFCURVE",
"1200 1308 CURVE",
"1087 1325 OFFCURVE",
"941 1331 OFFCURVE",
"792 1331 CURVE SMOOTH",
"599 1331 OFFCURVE",
"400 1321 OFFCURVE",
"248 1309 CURVE",
"243 1282 OFFCURVE",
"185 1038 OFFCURVE",
"181 968 CURVE"
);
}
);
width = 1039;
}
);
leftKerningGroup = T;
rightKerningGroup = T;
unicode = 0054;
},
{
glyphname = U;
lastChange = "2020-04-22 01:41:39 +0000";
layers = (
{
anchors = (
{
name = bottom;
position = "{606, 0}";
},
{
name = ogonek;
position = "{688, 62}";
},
{
name = top;
position = "{606, 1324}";
},
{
name = topright;
position = "{1101, 1174}";
}
);
layerId = "B5042207-EFBA-41B6-8DFD-104A953B46A6";
paths = (
{
closed = 1;
nodes = (
"1063 -27 OFFCURVE",
"1153 418 OFFCURVE",
"1153 957 CURVE SMOOTH",
"1153 1078 OFFCURVE",
"1145 1195 OFFCURVE",
"1130 1296 CURVE",
"1101 1304 OFFCURVE",
"846 1328 OFFCURVE",
"715 1328 CURVE",
"726 1245 OFFCURVE",
"736 833 OFFCURVE",
"736 710 CURVE SMOOTH",
"736 570 OFFCURVE",
"719 458 OFFCURVE",
"615 458 CURVE SMOOTH",
"519 458 OFFCURVE",
"497 575 OFFCURVE",
"497 844 CURVE SMOOTH",
"497 1013 OFFCURVE",
"504 1193 OFFCURVE",
"516 1335 CURVE",
"449 1342 OFFCURVE",
"363 1347 OFFCURVE",
"282 1347 CURVE SMOOTH",
"219 1347 OFFCURVE",
"143 1342 OFFCURVE",
"74 1335 CURVE",
"74 1256 OFFCURVE",
"73 1183 OFFCURVE",
"73 1115 CURVE SMOOTH",
"73 388 OFFCURVE",
"97 -27 OFFCURVE",
"593 -27 CURVE SMOOTH"
);
}
);
width = 1212;
},
{
anchors = (
{
name = bottom;
position = "{606, 0}";
},
{
name = ogonek;
position = "{699, 5}";
},
{
name = top;
position = "{606, 1330}";
},
{
name = topright;
position = "{976, 1174}";
}
);
layerId = "B5195C1E-69AB-4BC6-9855-DF55601A0735";
paths = (
{
closed = 1;
nodes = (
"955 -43 OFFCURVE",
"1021 304 OFFCURVE",
"1021 818 CURVE SMOOTH",
"1021 988 OFFCURVE",
"1009 1192 OFFCURVE",
"990 1316 CURVE",
"961 1325 OFFCURVE",
"925 1330 OFFCURVE",
"894 1330 CURVE",
"920 1144 OFFCURVE",
"930 892 OFFCURVE",
"930 728 CURVE SMOOTH",
"930 275 OFFCURVE",
"829 32 OFFCURVE",
"610 32 CURVE SMOOTH",
"362 32 OFFCURVE",
"246 258 OFFCURVE",
"246 757 CURVE SMOOTH",
"246 932 OFFCURVE",
"256 1185 OFFCURVE",
"273 1362 CURVE",
"262 1365 OFFCURVE",
"239 1368 OFFCURVE",
"214 1368 CURVE SMOOTH",
"199 1368 OFFCURVE",
"184 1366 OFFCURVE",
"174 1364 CURVE",
"168 1243 OFFCURVE",
"156 963 OFFCURVE",
"156 780 CURVE SMOOTH",
"156 295 OFFCURVE",
"252 -43 OFFCURVE",
"595 -43 CURVE SMOOTH"
);
}
);
width = 1212;
},
{
anchors = (
{
name = bottom;
position = "{463.585, 0}";
},
{
name = ogonek;
position = "{611, 1}";
},
{
name = top;
position = "{842, 1325}";
},
{
name = topright;
position = "{1206, 1174}";
}
);
layerId = "82219AB4-7C60-4B3A-9196-329BE868CB10";
paths = (
{
closed = 1;
nodes = (
"858 -43 OFFCURVE",
"1015 304 OFFCURVE",
"1154 818 CURVE SMOOTH",
"1200 988 OFFCURVE",
"1242 1192 OFFCURVE",
"1256 1316 CURVE",
"1230 1325 OFFCURVE",
"1196 1330 OFFCURVE",
"1165 1330 CURVE",
"1141 1144 OFFCURVE",
"1082 892 OFFCURVE",
"1039 728 CURVE SMOOTH",
"920 274 OFFCURVE",
"741 32 OFFCURVE",
"522 32 CURVE SMOOTH",
"366 32 OFFCURVE",
"286 131 OFFCURVE",
"286 320 CURVE SMOOTH",
"286 553 OFFCURVE",
"437 1056 OFFCURVE",
"548 1362 CURVE",
"538 1365 OFFCURVE",
"519 1368 OFFCURVE",
"494 1368 CURVE SMOOTH",
"479 1368 OFFCURVE",
"464 1366 OFFCURVE",
"453 1364 CURVE",
"333 1001 OFFCURVE",
"202 584 OFFCURVE",
"202 319 CURVE SMOOTH",
"202 95 OFFCURVE",
"280 -43 OFFCURVE",
"498 -43 CURVE SMOOTH"
);
}
);
width = 1212;
},
{
anchors = (
{
name = bottom;
position = "{463.585, 0}";
},
{
name = ogonek;
position = "{572, 50}";
},
{
name = top;
position = "{835, 1318}";
},
{
name = topright;
position = "{1261, 1174}";
}
);
layerId = "63DB0068-8B02-4205-807F-6F2453D24B26";
paths = (
{
closed = 1;
nodes = (
"951 -27 OFFCURVE",
"1116 419 OFFCURVE",
"1263 957 CURVE SMOOTH",
"1296 1078 OFFCURVE",
"1318 1195 OFFCURVE",
"1330 1296 CURVE",
"1304 1304 OFFCURVE",
"1055 1328 OFFCURVE",
"924 1328 CURVE",
"913 1245 OFFCURVE",
"812 833 OFFCURVE",
"779 710 CURVE SMOOTH",
"741 570 OFFCURVE",
"695 458 OFFCURVE",
"591 458 CURVE SMOOTH",
"542 458 OFFCURVE",
"520 488 OFFCURVE",
"520 554 CURVE SMOOTH",
"520 690 OFFCURVE",
"650 1116 OFFCURVE",
"727 1335 CURVE",
"662 1342 OFFCURVE",
"577 1347 OFFCURVE",
"496 1347 CURVE SMOOTH",
"433 1347 OFFCURVE",
"356 1342 OFFCURVE",
"285 1335 CURVE",
"168 926 OFFCURVE",
"88 614 OFFCURVE",
"88 371 CURVE SMOOTH",
"88 112 OFFCURVE",
"194 -27 OFFCURVE",
"481 -27 CURVE SMOOTH"
);
}
);
width = 1212;
}
);
leftKerningGroup = U;
rightKerningGroup = U;
unicode = 0055;
},
{
glyphname = V;
lastChange = "2020-01-08 15:43:24 +0000";
layers = (
{
anchors = (
{
name = bottom;
position = "{583, 0}";
},
{
name = top;
position = "{583, 1291}";
}
);
layerId = "B5042207-EFBA-41B6-8DFD-104A953B46A6";
paths = (
{
closed = 1;
nodes = (
"713 -22 OFFCURVE",
"797 -21 OFFCURVE",
"843 -16 CURVE",
"869 79 OFFCURVE",
"1073 836 OFFCURVE",
"1161 1301 CURVE",
"1029 1342 OFFCURVE",
"848 1366 OFFCURVE",
"716 1366 CURVE",
"709 1275 OFFCURVE",
"606 601 OFFCURVE",
"595 355 CURVE",
"625 362 LINE",
"555 839 OFFCURVE",
"439 1338 OFFCURVE",
"434 1359 CURVE",
"328 1359 OFFCURVE",
"103 1340 OFFCURVE",
"-22 1301 CURVE",
"52 945 OFFCURVE",
"288 191 OFFCURVE",
"389 -10 CURVE",
"438 -16 OFFCURVE",
"534 -22 OFFCURVE",
"628 -22 CURVE SMOOTH"
);
}
);
width = 1166;
},
{
anchors = (
{
name = bottom;
position = "{583, 0}";
},
{
name = top;
position = "{583, 1291}";
}
);
layerId = "B5195C1E-69AB-4BC6-9855-DF55601A0735";
paths = (
{
closed = 1;
nodes = (
"605 -19 OFFCURVE",
"624 -18 OFFCURVE",
"639 -16 CURVE",
"644 4 OFFCURVE",
"821 410 OFFCURVE",
"1036 1326 CURVE",
"1016 1344 OFFCURVE",
"981 1354 OFFCURVE",
"949 1359 CURVE",
"945 1338 OFFCURVE",
"816 690 OFFCURVE",
"565 46 CURVE",
"577 48 LINE",
"432 325 OFFCURVE",
"222 1165 OFFCURVE",
"200 1361 CURVE",
"178 1361 OFFCURVE",
"123 1352 OFFCURVE",
"109 1347 CURVE",
"133 1191 OFFCURVE",
"299 448 OFFCURVE",
"508 -10 CURVE",
"524 -16 OFFCURVE",
"555 -19 OFFCURVE",
"579 -19 CURVE SMOOTH"
);
}
);
width = 1166;
},
{
anchors = (
{
name = bottom;
position = "{440.585, 0}";
},
{
name = top;
position = "{786.507, 1291}";
}
);
layerId = "82219AB4-7C60-4B3A-9196-329BE868CB10";
paths = (
{
closed = 1;
nodes = (
"471 -19 OFFCURVE",
"490 -18 OFFCURVE",
"506 -16 CURVE",
"516 4 OFFCURVE",
"802 410 OFFCURVE",
"1263 1326 CURVE",
"1247 1344 OFFCURVE",
"1215 1354 OFFCURVE",
"1184 1359 CURVE",
"1175 1338 OFFCURVE",
"811 625 OFFCURVE",
"449 46 CURVE",
"461 48 LINE",
"436 316 OFFCURVE",
"423 1165 OFFCURVE",
"423 1361 CURVE",
"401 1361 OFFCURVE",
"350 1352 OFFCURVE",
"335 1347 CURVE",
"335 1191 OFFCURVE",
"341 278 OFFCURVE",
"377 -10 CURVE",
"391 -16 OFFCURVE",
"421 -19 OFFCURVE",
"445 -19 CURVE SMOOTH"
);
}
);
width = 1166;
},
{
anchors = (
{
name = bottom;
position = "{440.585, 0}";
},
{
name = top;
position = "{786.507, 1291}";
}
);
layerId = "63DB0068-8B02-4205-807F-6F2453D24B26";
paths = (
{
closed = 1;
nodes = (
"577 -22 OFFCURVE",
"661 -21 OFFCURVE",
"709 -16 CURVE",
"760 69 OFFCURVE",
"1177 836 OFFCURVE",
"1380 1301 CURVE",
"1259 1342 OFFCURVE",
"1074 1366 OFFCURVE",
"942 1366 CURVE",
"911 1275 OFFCURVE",
"637 601 OFFCURVE",
"560 355 CURVE",
"592 362 LINE",
"650 831 OFFCURVE",
"658 1235 OFFCURVE",
"658 1359 CURVE",
"552 1359 OFFCURVE",
"332 1340 OFFCURVE",
"197 1301 CURVE",
"197 945 OFFCURVE",
"219 221 OFFCURVE",
"256 -10 CURVE",
"304 -16 OFFCURVE",
"398 -22 OFFCURVE",
"492 -22 CURVE SMOOTH"
);
}
);
width = 1166;
}
);
leftKerningGroup = V;
rightKerningGroup = V;
unicode = 0056;
},
{
glyphname = W;
lastChange = "2020-01-08 15:52:03 +0000";
layers = (
{
anchors = (
{
name = bottom;
position = "{672, 0}";
},
{
name = top;
position = "{672, 1291}";
}
);
layerId = "B5042207-EFBA-41B6-8DFD-104A953B46A6";
paths = (
{
closed = 1;
nodes = (
"971 -17 OFFCURVE",
"1147 19 OFFCURVE",
"1156 24 CURVE",
"1182 139 OFFCURVE",
"1330 832 OFFCURVE",
"1330 1391 CURVE",
"1297 1381 OFFCURVE",
"1032 1352 OFFCURVE",
"942 1350 CURVE",
"942 1122 OFFCURVE",
"920 697 OFFCURVE",
"871 434 CURVE",
"926 475 LINE",
"885 571 OFFCURVE",
"821 995 OFFCURVE",
"817 1095 CURVE",
"779 1095 OFFCURVE",
"723 1095 OFFCURVE",
"680 1094 CURVE SMOOTH",
"623 1093 OFFCURVE",
"561 1091 OFFCURVE",
"534 1087 CURVE",
"524 918 OFFCURVE",
"444 540 OFFCURVE",
"401 432 CURVE",
"433 460 LINE",
"423 565 OFFCURVE",
"456 1107 OFFCURVE",
"456 1340 CURVE",
"374 1340 OFFCURVE",
"284 1340 OFFCURVE",
"223 1343 CURVE SMOOTH",
"159 1345 OFFCURVE",
"98 1349 OFFCURVE",
"21 1356 CURVE",
"31 807 OFFCURVE",
"69 173 OFFCURVE",
"91 21 CURVE",
"156 11 OFFCURVE",
"271 -2 OFFCURVE",
"363 -2 CURVE SMOOTH",
"431 -2 OFFCURVE",
"502 3 OFFCURVE",
"519 3 CURVE",
"588 151 OFFCURVE",
"679 410 OFFCURVE",
"694 474 CURVE",
"645 466 LINE",
"663 340 OFFCURVE",
"714 141 OFFCURVE",
"768 -15 CURVE"
);
}
);
width = 1344;
},
{
anchors = (
{
name = bottom;
position = "{672, 0}";
},
{
name = top;
position = "{672, 1291}";
}
);
layerId = "B5195C1E-69AB-4BC6-9855-DF55601A0735";
paths = (
{
closed = 1;
nodes = (
"935 -17 OFFCURVE",
"977 -16 OFFCURVE",
"998 -11 CURVE",
"1020 42 OFFCURVE",
"1117 713 OFFCURVE",
"1128 1352 CURVE",
"1109 1349 OFFCURVE",
"1060 1345 OFFCURVE",
"1035 1344 CURVE",
"1035 989 OFFCURVE",
"989 411 OFFCURVE",
"929 99 CURVE",
"934 104 LINE",
"930 236 OFFCURVE",
"732 833 OFFCURVE",
"728 840 CURVE",
"711 846 OFFCURVE",
"696 849 OFFCURVE",
"676 849 CURVE SMOOTH",
"663 849 OFFCURVE",
"646 847 OFFCURVE",
"634 844 CURVE",
"629 832 OFFCURVE",
"341 277 OFFCURVE",
"297 110 CURVE",
"304 99 LINE",
"269 538 OFFCURVE",
"262 899 OFFCURVE",
"262 1340 CURVE",
"255 1342 OFFCURVE",
"236 1347 OFFCURVE",
"215 1347 CURVE SMOOTH",
"205 1347 OFFCURVE",
"185 1346 OFFCURVE",
"176 1344 CURVE",
"181 923 OFFCURVE",
"186 598 OFFCURVE",
"239 -8 CURVE",
"251 -10 OFFCURVE",
"260 -11 OFFCURVE",
"274 -11 CURVE SMOOTH",
"287 -11 OFFCURVE",
"299 -10 OFFCURVE",
"312 -8 CURVE",
"332 33 OFFCURVE",
"656 713 OFFCURVE",
"672 747 CURVE",
"667 749 LINE",
"689 697 OFFCURVE",
"846 185 OFFCURVE",
"903 -17 CURVE"
);
}
);
width = 1344;
},
{
anchors = (
{
name = bottom;
position = "{529.585, 0}";
},
{
name = top;
position = "{875.507, 1291}";
}
);
layerId = "82219AB4-7C60-4B3A-9196-329BE868CB10";
paths = (
{
closed = 1;
nodes = (
"809 -17 OFFCURVE",
"850 -16 OFFCURVE",
"872 -11 CURVE",
"908 42 OFFCURVE",
"1189 713 OFFCURVE",
"1371 1352 CURVE",
"1352 1349 OFFCURVE",
"1302 1345 OFFCURVE",
"1276 1344 CURVE",
"1181 989 OFFCURVE",
"980 411 OFFCURVE",
"837 99 CURVE",
"853 104 LINE",
"853 247 OFFCURVE",
"826 833 OFFCURVE",
"824 840 CURVE",
"809 846 OFFCURVE",
"795 849 OFFCURVE",
"775 849 CURVE SMOOTH",
"762 849 OFFCURVE",
"744 847 OFFCURVE",
"731 844 CURVE",
"723 832 OFFCURVE",
"296 277 OFFCURVE",
"208 110 CURVE",
"212 99 LINE",
"294 538 OFFCURVE",
"384 899 OFFCURVE",
"502 1340 CURVE",
"496 1342 OFFCURVE",
"478 1347 OFFCURVE",
"457 1347 CURVE SMOOTH",
"447 1347 OFFCURVE",
"427 1346 OFFCURVE",
"417 1344 CURVE",
"309 923 OFFCURVE",
"227 598 OFFCURVE",
"118 -8 CURVE",
"129 -10 OFFCURVE",
"138 -11 OFFCURVE",
"152 -11 CURVE SMOOTH",
"165 -11 OFFCURVE",
"186 -10 OFFCURVE",
"200 -8 CURVE",
"231 33 OFFCURVE",
"724 713 OFFCURVE",
"749 747 CURVE",
"739 749 LINE",
"747 697 OFFCURVE",
"774 185 OFFCURVE",
"777 -17 CURVE"
);
}
);
width = 1344;
},
{
anchors = (
{
name = bottom;
position = "{529.585, 0}";
},
{
name = top;
position = "{875.507, 1291}";
}
);
layerId = "63DB0068-8B02-4205-807F-6F2453D24B26";
paths = (
{
closed = 1;
nodes = (
"842 -17 OFFCURVE",
"1018 19 OFFCURVE",
"1028 24 CURVE",
"1085 139 OFFCURVE",
"1419 832 OFFCURVE",
"1568 1391 CURVE",
"1533 1381 OFFCURVE",
"1250 1352 OFFCURVE",
"1159 1350 CURVE",
"1098 1122 OFFCURVE",
"972 697 OFFCURVE",
"853 434 CURVE",
"919 475 LINE",
"919 645 OFFCURVE",
"958 971 OFFCURVE",
"976 1095 CURVE",
"938 1095 OFFCURVE",
"882 1095 OFFCURVE",
"839 1094 CURVE SMOOTH",
"782 1093 OFFCURVE",
"719 1091 OFFCURVE",
"691 1087 CURVE",
"636 918 OFFCURVE",
"454 540 OFFCURVE",
"382 432 CURVE",
"422 460 LINE",
"440 565 OFFCURVE",
"618 1107 OFFCURVE",
"681 1340 CURVE",
"599 1340 OFFCURVE",
"509 1340 OFFCURVE",
"449 1343 CURVE SMOOTH",
"385 1346 OFFCURVE",
"325 1349 OFFCURVE",
"250 1356 CURVE",
"113 807 OFFCURVE",
"-19 173 OFFCURVE",
"-38 21 CURVE",
"25 11 OFFCURVE",
"136 -2 OFFCURVE",
"228 -2 CURVE SMOOTH",
"296 -2 OFFCURVE",
"378 3 OFFCURVE",
"395 3 CURVE",
"504 151 OFFCURVE",
"665 410 OFFCURVE",
"697 474 CURVE",
"636 466 LINE",
"636 387 OFFCURVE",
"641 51 OFFCURVE",
"640 -15 CURVE"
);
}
);
width = 1344;
}
);
leftKerningGroup = W;
rightKerningGroup = W;
unicode = 0057;
},
{
glyphname = X;
lastChange = "2020-01-08 16:00:33 +0000";
layers = (
{
anchors = (
{
name = bottom;
position = "{627, 0}";
},
{
name = top;
position = "{627, 1291}";
}
);
layerId = "B5042207-EFBA-41B6-8DFD-104A953B46A6";
paths = (
{
closed = 1;
nodes = (
"292 421 OFFCURVE",
"133 193 OFFCURVE",
"26 56 CURVE",
"198 10 OFFCURVE",
"303 -18 OFFCURVE",
"434 -31 CURVE",
"462 0 OFFCURVE",
"537 121 OFFCURVE",
"650 323 CURVE",
"752 157 OFFCURVE",
"793 48 OFFCURVE",
"825 -54 CURVE",
"929 -34 OFFCURVE",
"1108 18 OFFCURVE",
"1208 81 CURVE",
"1173 168 OFFCURVE",
"976 498 OFFCURVE",
"839 673 CURVE",
"954 827 OFFCURVE",
"1140 1077 OFFCURVE",
"1191 1193 CURVE",
"1132 1241 OFFCURVE",
"961 1301 OFFCURVE",
"778 1328 CURVE",
"742 1209 OFFCURVE",
"699 1074 OFFCURVE",
"641 961 CURVE",
"627 998 OFFCURVE",
"508 1258 OFFCURVE",
"442 1347 CURVE",
"334 1332 OFFCURVE",
"93 1255 OFFCURVE",
"-1 1207 CURVE",
"43 1161 OFFCURVE",
"286 874 OFFCURVE",
"415 639 CURVE"
);
}
);
width = 1253;
},
{
anchors = (
{
name = bottom;
position = "{627, 0}";
},
{
name = top;
position = "{627, 1291}";
}
);
layerId = "B5195C1E-69AB-4BC6-9855-DF55601A0735";
paths = (
{
closed = 1;
nodes = (
"569 590 OFFCURVE",
"350 293 OFFCURVE",
"152 39 CURVE",
"178 19 OFFCURVE",
"206 5 OFFCURVE",
"240 1 CURVE",
"247 15 OFFCURVE",
"633 557 OFFCURVE",
"645 583 CURVE",
"775 376 OFFCURVE",
"911 121 OFFCURVE",
"978 -15 CURVE",
"1006 -14 OFFCURVE",
"1036 -9 OFFCURVE",
"1065 10 CURVE",
"971 181 OFFCURVE",
"754 560 OFFCURVE",
"694 649 CURVE",
"727 695 OFFCURVE",
"954 1016 OFFCURVE",
"1060 1272 CURVE",
"1039 1285 OFFCURVE",
"1014 1299 OFFCURVE",
"983 1308 CURVE",
"962 1251 OFFCURVE",
"814 933 OFFCURVE",
"653 714 CURVE",
"465 1046 OFFCURVE",
"314 1253 OFFCURVE",
"258 1328 CURVE",
"230 1323 OFFCURVE",
"203 1312 OFFCURVE",
"169 1297 CURVE",
"223 1231 OFFCURVE",
"439 942 OFFCURVE",
"602 646 CURVE"
);
}
);
width = 1253;
},
{
anchors = (
{
name = bottom;
position = "{484.585, 0}";
},
{
name = top;
position = "{830.507, 1291}";
}
);
layerId = "82219AB4-7C60-4B3A-9196-329BE868CB10";
paths = (
{
closed = 1;
nodes = (
"595 610 OFFCURVE",
"297 293 OFFCURVE",
"31 39 CURVE",
"51 19 OFFCURVE",
"85 5 OFFCURVE",
"118 1 CURVE",
"129 15 OFFCURVE",
"650 557 OFFCURVE",
"669 583 CURVE",
"744 376 OFFCURVE",
"812 121 OFFCURVE",
"842 -15 CURVE",
"870 -14 OFFCURVE",
"902 -9 OFFCURVE",
"936 10 CURVE",
"888 181 OFFCURVE",
"765 550 OFFCURVE",
"729 639 CURVE",
"784 685 OFFCURVE",
"1094 1016 OFFCURVE",
"1269 1272 CURVE",
"1251 1285 OFFCURVE",
"1215 1299 OFFCURVE",
"1187 1308 CURVE",
"1150 1251 OFFCURVE",
"925 933 OFFCURVE",
"705 714 CURVE",
"606 1046 OFFCURVE",
"518 1253 OFFCURVE",
"482 1328 CURVE",
"453 1323 OFFCURVE",
"423 1312 OFFCURVE",
"385 1297 CURVE",
"421 1231 OFFCURVE",
"563 909 OFFCURVE",
"643 666 CURVE"
);
}
);
width = 1253;
},
{
anchors = (
{
name = bottom;
position = "{484.585, 0}";
},
{
name = top;
position = "{830.507, 1291}";
}
);
layerId = "63DB0068-8B02-4205-807F-6F2453D24B26";
paths = (
{
closed = 1;
nodes = (
"292 461 OFFCURVE",
"61 193 OFFCURVE",
"-72 56 CURVE",
"87 10 OFFCURVE",
"225 -18 OFFCURVE",
"352 -31 CURVE",
"392 10 OFFCURVE",
"496 121 OFFCURVE",
"643 323 CURVE",
"691 177 OFFCURVE",
"710 38 OFFCURVE",
"717 -54 CURVE",
"827 -34 OFFCURVE",
"1000 18 OFFCURVE",
"1116 81 CURVE",
"1105 168 OFFCURVE",
"996 498 OFFCURVE",
"906 673 CURVE",
"1062 827 OFFCURVE",
"1315 1077 OFFCURVE",
"1397 1193 CURVE",
"1351 1241 OFFCURVE",
"1145 1314 OFFCURVE",
"991 1328 CURVE",
"933 1209 OFFCURVE",
"854 1071 OFFCURVE",
"775 961 CURVE",
"771 998 OFFCURVE",
"722 1258 OFFCURVE",
"680 1347 CURVE",
"568 1332 OFFCURVE",
"316 1255 OFFCURVE",
"209 1207 CURVE",
"241 1161 OFFCURVE",
"407 914 OFFCURVE",
"473 679 CURVE"
);
}
);
width = 1253;
}
);
leftKerningGroup = X;
rightKerningGroup = X;
unicode = 0058;
},
{
glyphname = Y;
lastChange = "2020-01-13 15:35:58 +0000";
layers = (
{
anchors = (
{
name = bottom;
position = "{583, 0}";
},
{
name = top;
position = "{583, 1291}";
},
{
name = topleft;
position = "{70, 1291}";
}
);
layerId = "B5042207-EFBA-41B6-8DFD-104A953B46A6";
paths = (
{
closed = 1;
nodes = (
"399 549 OFFCURVE",
"379 271 OFFCURVE",
"375 24 CURVE",
"425 14 OFFCURVE",
"513 7 OFFCURVE",
"594 7 CURVE SMOOTH",
"671 7 OFFCURVE",
"742 14 OFFCURVE",
"759 22 CURVE",
"761 40 OFFCURVE",
"762 147 OFFCURVE",
"762 236 CURVE SMOOTH",
"762 312 OFFCURVE",
"757 477 OFFCURVE",
"751 612 CURVE",
"864 836 OFFCURVE",
"1011 1074 OFFCURVE",
"1101 1192 CURVE",
"1016 1242 OFFCURVE",
"864 1304 OFFCURVE",
"730 1309 CURVE",
"680 1231 OFFCURVE",
"586 1037 OFFCURVE",
"558 972 CURVE",
"512 1063 OFFCURVE",
"429 1262 OFFCURVE",
"404 1325 CURVE",
"319 1325 OFFCURVE",
"168 1308 OFFCURVE",
"14 1250 CURVE",
"142 950 OFFCURVE",
"265 768 OFFCURVE",
"400 583 CURVE"
);
}
);
width = 1065;
},
{
anchors = (
{
name = bottom;
position = "{573, 0}";
},
{
name = top;
position = "{573, 1291}";
},
{
name = topleft;
position = "{60, 1291}";
}
);
layerId = "B5195C1E-69AB-4BC6-9855-DF55601A0735";
paths = (
{
closed = 1;
nodes = (
"484 309 OFFCURVE",
"484 154 OFFCURVE",
"484 -10 CURVE",
"507 -13 OFFCURVE",
"524 -14 OFFCURVE",
"540 -14 CURVE SMOOTH",
"553 -14 OFFCURVE",
"568 -13 OFFCURVE",
"583 -12 CURVE",
"580 20 OFFCURVE",
"576 165 OFFCURVE",
"576 254 CURVE SMOOTH",
"576 323 OFFCURVE",
"580 457 OFFCURVE",
"580 491 CURVE",
"775 882 OFFCURVE",
"903 1121 OFFCURVE",
"985 1241 CURVE",
"963 1260 OFFCURVE",
"934 1285 OFFCURVE",
"896 1303 CURVE",
"829 1183 OFFCURVE",
"589 692 OFFCURVE",
"537 591 CURVE",
"450 761 OFFCURVE",
"226 1309 OFFCURVE",
"221 1318 CURVE",
"185 1313 OFFCURVE",
"153 1303 OFFCURVE",
"124 1292 CURVE",
"141 1248 OFFCURVE",
"452 550 OFFCURVE",
"490 489 CURVE"
);
}
);
width = 1065;
},
{
anchors = (
{
name = bottom;
position = "{411, 0}";
},
{
name = top;
position = "{757, 1291}";
},
{
name = topleft;
position = "{244, 1291}";
}
);
layerId = "82219AB4-7C60-4B3A-9196-329BE868CB10";
paths = (
{
closed = 1;
nodes = (
"423 319 OFFCURVE",
"370 134 OFFCURVE",
"337 -10 CURVE",
"359 -13 OFFCURVE",
"376 -14 OFFCURVE",
"392 -14 CURVE SMOOTH",
"405 -14 OFFCURVE",
"420 -13 OFFCURVE",
"435 -12 CURVE",
"441 20 OFFCURVE",
"476 165 OFFCURVE",
"499 254 CURVE SMOOTH",
"517 323 OFFCURVE",
"558 457 OFFCURVE",
"567 491 CURVE",
"867 882 OFFCURVE",
"1059 1121 OFFCURVE",
"1173 1241 CURVE",
"1157 1259 OFFCURVE",
"1129 1284 OFFCURVE",
"1098 1303 CURVE",
"999 1192 OFFCURVE",
"617 692 OFFCURVE",
"541 591 CURVE",
"499 761 OFFCURVE",
"430 1309 OFFCURVE",
"427 1318 CURVE",
"390 1313 OFFCURVE",
"357 1303 OFFCURVE",
"325 1292 CURVE",
"331 1248 OFFCURVE",
"455 550 OFFCURVE",
"476 489 CURVE"
);
}
);
width = 1065;
},
{
anchors = (
{
name = bottom;
position = "{411, 0}";
},
{
name = top;
position = "{757, 1291}";
},
{
name = topleft;
position = "{244, 1291}";
}
);
layerId = "63DB0068-8B02-4205-807F-6F2453D24B26";
paths = (
{
closed = 1;
nodes = (
"399 549 OFFCURVE",
"304 271 OFFCURVE",
"234 24 CURVE",
"281 14 OFFCURVE",
"367 7 OFFCURVE",
"448 7 CURVE SMOOTH",
"525 7 OFFCURVE",
"598 14 OFFCURVE",
"617 22 CURVE",
"624 40 OFFCURVE",
"655 147 OFFCURVE",
"678 236 CURVE SMOOTH",
"698 312 OFFCURVE",
"737 477 OFFCURVE",
"768 612 CURVE",
"941 836 OFFCURVE",
"1151 1074 OFFCURVE",
"1273 1192 CURVE",
"1201 1242 OFFCURVE",
"1038 1304 OFFCURVE",
"905 1309 CURVE",
"834 1241 OFFCURVE",
"695 1037 OFFCURVE",
"653 972 CURVE",
"631 1063 OFFCURVE",
"602 1262 OFFCURVE",
"594 1325 CURVE",
"509 1325 OFFCURVE",
"371 1308 OFFCURVE",
"201 1250 CURVE",
"249 950 OFFCURVE",
"323 768 OFFCURVE",
"409 583 CURVE"
);
}
);
width = 1065;
}
);
leftKerningGroup = Y;
rightKerningGroup = Y;
unicode = 0059;
},
{
glyphname = Z;
lastChange = "2020-01-08 16:32:28 +0000";
layers = (
{
anchors = (
{
name = bottom;
position = "{522, 0}";
},
{
name = center;
position = "{522, 646}";
},
{
name = top;
position = "{522, 1291}";
}
);
layerId = "B5042207-EFBA-41B6-8DFD-104A953B46A6";
paths = (
{
closed = 1;
nodes = (
"938 18 OFFCURVE",
"948 113 OFFCURVE",
"948 202 CURVE SMOOTH",
"948 277 OFFCURVE",
"944 356 OFFCURVE",
"940 397 CURVE",
"835 392 OFFCURVE",
"728 387 OFFCURVE",
"642 387 CURVE SMOOTH",
"561 387 OFFCURVE",
"499 389 OFFCURVE",
"474 393 CURVE",
"571 509 OFFCURVE",
"879 897 OFFCURVE",
"962 1005 CURVE",
"966 1025 OFFCURVE",
"970 1093 OFFCURVE",
"970 1166 CURVE SMOOTH",
"970 1225 OFFCURVE",
"967 1288 OFFCURVE",
"959 1330 CURVE",
"927 1334 OFFCURVE",
"830 1336 OFFCURVE",
"778 1336 CURVE SMOOTH",
"565 1336 OFFCURVE",
"205 1306 OFFCURVE",
"94 1294 CURVE",
"90 1256 OFFCURVE",
"87 1198 OFFCURVE",
"87 1135 CURVE SMOOTH",
"87 1080 OFFCURVE",
"91 1011 OFFCURVE",
"95 969 CURVE",
"228 977 OFFCURVE",
"475 990 OFFCURVE",
"550 991 CURVE",
"500 912 OFFCURVE",
"184 546 OFFCURVE",
"43 388 CURVE",
"43 297 OFFCURVE",
"48 99 OFFCURVE",
"53 22 CURVE",
"404 -3 OFFCURVE",
"694 -14 OFFCURVE",
"930 -14 CURVE"
);
}
);
width = 1044;
},
{
anchors = (
{
name = bottom;
position = "{522, 0}";
},
{
name = center;
position = "{522, 646}";
},
{
name = top;
position = "{522, 1291}";
}
);
layerId = "B5195C1E-69AB-4BC6-9855-DF55601A0735";
paths = (
{
closed = 1;
nodes = (
"881 -3 OFFCURVE",
"884 16 OFFCURVE",
"886 37 CURVE SMOOTH",
"888 54 OFFCURVE",
"889 71 OFFCURVE",
"889 85 CURVE",
"838 83 OFFCURVE",
"771 82 OFFCURVE",
"698 82 CURVE SMOOTH",
"500 82 OFFCURVE",
"253 89 OFFCURVE",
"140 98 CURVE",
"236 206 OFFCURVE",
"703 870 OFFCURVE",
"894 1262 CURVE",
"896 1275 OFFCURVE",
"898 1292 OFFCURVE",
"898 1310 CURVE SMOOTH",
"898 1316 OFFCURVE",
"898 1323 OFFCURVE",
"897 1330 CURVE",
"858 1330 OFFCURVE",
"721 1327 OFFCURVE",
"700 1326 CURVE SMOOTH",
"528 1320 OFFCURVE",
"309 1307 OFFCURVE",
"109 1294 CURVE",
"109 1286 OFFCURVE",
"108 1269 OFFCURVE",
"108 1251 CURVE SMOOTH",
"108 1234 OFFCURVE",
"109 1217 OFFCURVE",
"109 1209 CURVE",
"347 1229 OFFCURVE",
"735 1255 OFFCURVE",
"810 1256 CURVE",
"704 1058 OFFCURVE",
"241 325 OFFCURVE",
"44 96 CURVE",
"44 79 OFFCURVE",
"46 39 OFFCURVE",
"47 22 CURVE",
"367 -5 OFFCURVE",
"643 -14 OFFCURVE",
"879 -14 CURVE"
);
}
);
width = 1044;
},
{
anchors = (
{
name = bottom;
position = "{379.585, 0}";
},
{
name = center;
position = "{552.68, 646}";
},
{
name = top;
position = "{725.507, 1291}";
}
);
layerId = "82219AB4-7C60-4B3A-9196-329BE868CB10";
paths = (
{
closed = 1;
nodes = (
"804 -3 OFFCURVE",
"813 18 OFFCURVE",
"820 37 CURVE SMOOTH",
"826 54 OFFCURVE",
"832 71 OFFCURVE",
"835 85 CURVE",
"784 83 OFFCURVE",
"717 82 OFFCURVE",
"644 82 CURVE SMOOTH",
"446 82 OFFCURVE",
"214 89 OFFCURVE",
"103 98 CURVE",
"228 206 OFFCURVE",
"860 870 OFFCURVE",
"1156 1262 CURVE",
"1162 1273 OFFCURVE",
"1166 1286 OFFCURVE",
"1171 1304 CURVE SMOOTH",
"1173 1310 OFFCURVE",
"1176 1325 OFFCURVE",
"1177 1330 CURVE",
"1138 1330 OFFCURVE",
"1000 1327 OFFCURVE",
"979 1326 CURVE SMOOTH",
"802 1320 OFFCURVE",
"583 1307 OFFCURVE",
"379 1294 CURVE",
"377 1286 OFFCURVE",
"372 1269 OFFCURVE",
"367 1251 CURVE SMOOTH",
"362 1234 OFFCURVE",
"359 1217 OFFCURVE",
"357 1209 CURVE",
"600 1229 OFFCURVE",
"983 1255 OFFCURVE",
"1058 1256 CURVE",
"899 1058 OFFCURVE",
"252 325 OFFCURVE",
"-7 96 CURVE",
"-11 79 OFFCURVE",
"-20 39 OFFCURVE",
"-23 22 CURVE",
"289 -5 OFFCURVE",
"563 -14 OFFCURVE",
"799 -14 CURVE"
);
}
);
width = 1044;
},
{
anchors = (
{
name = bottom;
position = "{379.585, 0}";
},
{
name = center;
position = "{552.68, 646}";
},
{
name = top;
position = "{725.507, 1291}";
}
);
layerId = "63DB0068-8B02-4205-807F-6F2453D24B26";
paths = (
{
closed = 1;
nodes = (
"855 18 OFFCURVE",
"890 113 OFFCURVE",
"914 202 CURVE SMOOTH",
"934 277 OFFCURVE",
"951 356 OFFCURVE",
"958 397 CURVE",
"852 392 OFFCURVE",
"744 387 OFFCURVE",
"658 387 CURVE SMOOTH",
"577 387 OFFCURVE",
"545 389 OFFCURVE",
"521 393 CURVE",
"649 509 OFFCURVE",
"1031 897 OFFCURVE",
"1143 1005 CURVE",
"1153 1025 OFFCURVE",
"1175 1093 OFFCURVE",
"1194 1166 CURVE SMOOTH",
"1209 1225 OFFCURVE",
"1224 1288 OFFCURVE",
"1227 1330 CURVE",
"1196 1334 OFFCURVE",
"1100 1336 OFFCURVE",
"1048 1336 CURVE SMOOTH",
"835 1336 OFFCURVE",
"467 1306 OFFCURVE",
"353 1294 CURVE",
"338 1256 OFFCURVE",
"320 1198 OFFCURVE",
"303 1135 CURVE SMOOTH",
"288 1080 OFFCURVE",
"274 1011 OFFCURVE",
"267 969 CURVE",
"402 977 OFFCURVE",
"624 990 OFFCURVE",
"699 991 CURVE",
"628 912 OFFCURVE",
"242 546 OFFCURVE",
"59 388 CURVE",
"34 297 OFFCURVE",
"-14 99 OFFCURVE",
"-29 22 CURVE",
"315 -3 OFFCURVE",
"602 -14 OFFCURVE",
"838 -14 CURVE"
);
}
);
width = 1044;
}
);
leftKerningGroup = Z;
rightKerningGroup = Z;
unicode = 005A;
},
{
glyphname = a;
lastChange = "2020-04-22 01:56:34 +0000";
layers = (
{
anchors = (
{
name = bottom;
position = "{620, 0}";
},
{
name = ogonek;
position = "{1114, 27}";
},
{
name = top;
position = "{620, 1063}";
}
);
layerId = "B5195C1E-69AB-4BC6-9855-DF55601A0735";
paths = (
{
closed = 1;
nodes = (
"741 -24 OFFCURVE",
"921 75 OFFCURVE",
"970 145 CURVE",
"977 87 OFFCURVE",
"1023 0 OFFCURVE",
"1129 0 CURVE SMOOTH",
"1214 0 OFFCURVE",
"1305 73 OFFCURVE",
"1305 236 CURVE",
"1216 249 LINE",
"1216 149 OFFCURVE",
"1182 92 OFFCURVE",
"1132 92 CURVE SMOOTH",
"1065 92 OFFCURVE",
"1057 131 OFFCURVE",
"1057 513 CURVE SMOOTH",
"1057 657 OFFCURVE",
"1036 734 OFFCURVE",
"1001 810 CURVE SMOOTH",
"937 948 OFFCURVE",
"785 1055 OFFCURVE",
"572 1055 CURVE SMOOTH",
"356 1055 OFFCURVE",
"188 956 OFFCURVE",
"105 822 CURVE",
"184 767 LINE",
"247 881 OFFCURVE",
"372 975 OFFCURVE",
"566 975 CURVE SMOOTH",
"744 975 OFFCURVE",
"873 887 OFFCURVE",
"933 762 CURVE SMOOTH",
"954 719 OFFCURVE",
"963 666 OFFCURVE",
"970 611 CURVE",
"938 621 OFFCURVE",
"767 665 OFFCURVE",
"606 665 CURVE SMOOTH",
"306 665 OFFCURVE",
"102 540 OFFCURVE",
"102 312 CURVE SMOOTH",
"102 68 OFFCURVE",
"298 -24 OFFCURVE",
"550 -24 CURVE SMOOTH"
);
},
{
closed = 1;
nodes = (
"344 55 OFFCURVE",
"188 107 OFFCURVE",
"188 314 CURVE SMOOTH",
"188 477 OFFCURVE",
"357 586 OFFCURVE",
"593 586 CURVE SMOOTH",
"777 586 OFFCURVE",
"925 545 OFFCURVE",
"972 530 CURVE",
"972 448 OFFCURVE",
"963 372 OFFCURVE",
"963 250 CURVE",
"869 135 OFFCURVE",
"719 55 OFFCURVE",
"555 55 CURVE SMOOTH"
);
}
);
width = 1295;
},
{
anchors = (
{
name = bottom;
position = "{600, 0}";
},
{
name = ogonek;
position = "{1029, 24}";
},
{
name = top;
position = "{600, 1063}";
}
);
layerId = "B5042207-EFBA-41B6-8DFD-104A953B46A6";
paths = (
{
closed = 1;
nodes = (
"716 -15 OFFCURVE",
"843 60 OFFCURVE",
"870 139 CURVE",
"882 45 OFFCURVE",
"1006 -11 OFFCURVE",
"1125 -11 CURVE SMOOTH",
"1236 -11 OFFCURVE",
"1301 27 OFFCURVE",
"1321 55 CURVE",
"1212 316 LINE",
"1201 305 OFFCURVE",
"1173 297 OFFCURVE",
"1142 297 CURVE SMOOTH",
"1106 297 OFFCURVE",
"1084 320 OFFCURVE",
"1084 431 CURVE SMOOTH",
"1084 613 OFFCURVE",
"1065 758 OFFCURVE",
"1009 864 CURVE SMOOTH",
"935 1004 OFFCURVE",
"796 1076 OFFCURVE",
"552 1076 CURVE SMOOTH",
"338 1076 OFFCURVE",
"133 992 OFFCURVE",
"41 869 CURVE",
"340 677 LINE",
"378 725 OFFCURVE",
"457 775 OFFCURVE",
"544 775 CURVE SMOOTH",
"634 775 OFFCURVE",
"678 749 OFFCURVE",
"711 718 CURVE SMOOTH",
"735 696 OFFCURVE",
"749 657 OFFCURVE",
"749 629 CURVE",
"717 652 OFFCURVE",
"637 675 OFFCURVE",
"554 675 CURVE SMOOTH",
"297 675 OFFCURVE",
"48 588 OFFCURVE",
"48 330 CURVE SMOOTH",
"48 77 OFFCURVE",
"251 -15 OFFCURVE",
"497 -15 CURVE SMOOTH"
);
},
{
closed = 1;
nodes = (
"491 272 OFFCURVE",
"439 296 OFFCURVE",
"439 350 CURVE SMOOTH",
"439 409 OFFCURVE",
"533 423 OFFCURVE",
"615 423 CURVE SMOOTH",
"673 423 OFFCURVE",
"748 413 OFFCURVE",
"772 402 CURVE",
"772 387 OFFCURVE",
"776 350 OFFCURVE",
"780 335 CURVE",
"754 313 OFFCURVE",
"656 272 OFFCURVE",
"584 272 CURVE SMOOTH"
);
}
);
width = 1295;
},
{
anchors = (
{
name = bottom;
position = "{476, 0}";
},
{
name = ogonek;
position = "{968, 10}";
},
{
name = top;
position = "{750, 1063}";
}
);
layerId = "82219AB4-7C60-4B3A-9196-329BE868CB10";
paths = (
{
closed = 1;
nodes = (
"606 -24 OFFCURVE",
"813 75 OFFCURVE",
"881 145 CURVE",
"881 46 OFFCURVE",
"914 0 OFFCURVE",
"1001 0 CURVE SMOOTH",
"1086 0 OFFCURVE",
"1186 73 OFFCURVE",
"1230 236 CURVE",
"1145 249 LINE",
"1118 149 OFFCURVE",
"1069 92 OFFCURVE",
"1019 92 CURVE SMOOTH",
"989 92 OFFCURVE",
"973 100 OFFCURVE",
"973 141 CURVE SMOOTH",
"973 287 OFFCURVE",
"1089 564 OFFCURVE",
"1089 719 CURVE SMOOTH",
"1089 939 OFFCURVE",
"935 1055 OFFCURVE",
"707 1055 CURVE SMOOTH",
"491 1055 OFFCURVE",
"306 956 OFFCURVE",
"187 822 CURVE",
"251 767 LINE",
"350 881 OFFCURVE",
"495 975 OFFCURVE",
"689 975 CURVE SMOOTH",
"867 975 OFFCURVE",
"1009 904 OFFCURVE",
"1009 742 CURVE SMOOTH",
"1009 688 OFFCURVE",
"1006 658 OFFCURVE",
"996 611 CURVE",
"966 621 OFFCURVE",
"797 665 OFFCURVE",
"636 665 CURVE SMOOTH",
"336 665 OFFCURVE",
"44 542 OFFCURVE",
"44 259 CURVE SMOOTH",
"44 66 OFFCURVE",
"183 -24 OFFCURVE",
"415 -24 CURVE SMOOTH"
);
},
{
closed = 1;
nodes = (
"237 55 OFFCURVE",
"132 112 OFFCURVE",
"132 273 CURVE SMOOTH",
"132 486 OFFCURVE",
"380 586 OFFCURVE",
"612 586 CURVE SMOOTH",
"796 586 OFFCURVE",
"930 545 OFFCURVE",
"973 530 CURVE",
"951 448 OFFCURVE",
"925 372 OFFCURVE",
"892 250 CURVE",
"767 135 OFFCURVE",
"596 55 OFFCURVE",
"432 55 CURVE SMOOTH"
);
}
);
width = 1295;
},
{
anchors = (
{
name = bottom;
position = "{475, 0}";
},
{
name = ogonek;
position = "{973, 38}";
},
{
name = top;
position = "{748, 1063}";
}
);
layerId = "63DB0068-8B02-4205-807F-6F2453D24B26";
paths = (
{
closed = 1;
nodes = (
"600 -15 OFFCURVE",
"762 80 OFFCURVE",
"806 179 CURVE",
"806 53 OFFCURVE",
"871 -11 OFFCURVE",
"990 -11 CURVE SMOOTH",
"1101 -11 OFFCURVE",
"1176 27 OFFCURVE",
"1204 55 CURVE",
"1159 318 LINE",
"1140 305 OFFCURVE",
"1120 297 OFFCURVE",
"1089 297 CURVE SMOOTH",
"1066 297 OFFCURVE",
"1052 306 OFFCURVE",
"1052 342 CURVE SMOOTH",
"1052 405 OFFCURVE",
"1121 623 OFFCURVE",
"1121 754 CURVE SMOOTH",
"1121 995 OFFCURVE",
"961 1076 OFFCURVE",
"688 1076 CURVE SMOOTH",
"474 1076 OFFCURVE",
"257 992 OFFCURVE",
"132 869 CURVE",
"379 677 LINE",
"420 725 OFFCURVE",
"537 775 OFFCURVE",
"624 775 CURVE SMOOTH",
"705 775 OFFCURVE",
"744 754 OFFCURVE",
"769 718 CURVE SMOOTH",
"784 696 OFFCURVE",
"785 644 OFFCURVE",
"785 629 CURVE",
"760 652 OFFCURVE",
"666 675 OFFCURVE",
"583 675 CURVE SMOOTH",
"293 675 OFFCURVE",
"1 577 OFFCURVE",
"1 275 CURVE SMOOTH",
"1 63 OFFCURVE",
"154 -15 OFFCURVE",
"381 -15 CURVE SMOOTH"
);
},
{
closed = 1;
nodes = (
"432 272 OFFCURVE",
"401 294 OFFCURVE",
"401 340 CURVE SMOOTH",
"401 399 OFFCURVE",
"514 423 OFFCURVE",
"596 423 CURVE SMOOTH",
"654 423 OFFCURVE",
"727 413 OFFCURVE",
"748 402 CURVE",
"744 387 OFFCURVE",
"738 350 OFFCURVE",
"738 335 CURVE",
"706 304 OFFCURVE",
"597 272 OFFCURVE",
"525 272 CURVE SMOOTH"
);
}
);
width = 1295;
}
);
leftKerningGroup = a;
rightKerningGroup = a;
unicode = 0061;
},
{
glyphname = a.ss01;
lastChange = "2020-01-09 21:11:00 +0000";
layers = (
{
anchors = (
{
name = bottom;
position = "{600, 0}";
},
{
name = ogonek;
position = "{937, 26}";
},
{
name = top;
position = "{600, 1063}";
}
);
layerId = "B5042207-EFBA-41B6-8DFD-104A953B46A6";
paths = (
{
closed = 1;
nodes = (
"634 -10 OFFCURVE",
"704 42 OFFCURVE",
"757 99 CURVE",
"759 77 OFFCURVE",
"766 19 OFFCURVE",
"768 -3 CURVE",
"884 -3 OFFCURVE",
"1057 10 OFFCURVE",
"1126 17 CURVE",
"1125 46 OFFCURVE",
"1094 906 OFFCURVE",
"1077 1036 CURVE",
"1019 1041 OFFCURVE",
"826 1044 OFFCURVE",
"759 1044 CURVE",
"757 1024 OFFCURVE",
"750 968 OFFCURVE",
"745 918 CURVE",
"738 934 OFFCURVE",
"653 1007 OFFCURVE",
"509 1007 CURVE SMOOTH",
"215 1007 OFFCURVE",
"48 793 OFFCURVE",
"48 487 CURVE SMOOTH",
"48 200 OFFCURVE",
"192 -10 OFFCURVE",
"493 -10 CURVE SMOOTH"
);
},
{
closed = 1;
nodes = (
"464 359 OFFCURVE",
"400 405 OFFCURVE",
"400 517 CURVE SMOOTH",
"400 616 OFFCURVE",
"455 673 OFFCURVE",
"561 673 CURVE SMOOTH",
"618 673 OFFCURVE",
"681 658 OFFCURVE",
"720 638 CURVE",
"720 579 OFFCURVE",
"728 493 OFFCURVE",
"728 436 CURVE",
"676 366 OFFCURVE",
"603 359 OFFCURVE",
"539 359 CURVE SMOOTH"
);
}
);
width = 1200;
},
{
anchors = (
{
name = bottom;
position = "{600, 0}";
},
{
name = ogonek;
position = "{1006, 31}";
},
{
name = top;
position = "{600, 1063}";
}
);
layerId = "B5195C1E-69AB-4BC6-9855-DF55601A0735";
paths = (
{
closed = 1;
nodes = (
"803 -5 OFFCURVE",
"933 144 OFFCURVE",
"942 173 CURVE",
"944 157 OFFCURVE",
"950 48 OFFCURVE",
"952 9 CURVE",
"986 9 OFFCURVE",
"1021 14 OFFCURVE",
"1048 19 CURVE",
"1040 83 OFFCURVE",
"1007 712 OFFCURVE",
"1007 1021 CURVE",
"990 1025 OFFCURVE",
"957 1029 OFFCURVE",
"926 1029 CURVE",
"926 993 OFFCURVE",
"926 949 OFFCURVE",
"926 935 CURVE",
"878 960 OFFCURVE",
"715 1035 OFFCURVE",
"552 1035 CURVE SMOOTH",
"262 1035 OFFCURVE",
"92 769 OFFCURVE",
"92 474 CURVE SMOOTH",
"92 180 OFFCURVE",
"249 -11 OFFCURVE",
"533 -9 CURVE SMOOTH"
);
},
{
closed = 1;
nodes = (
"311 69 OFFCURVE",
"185 208 OFFCURVE",
"185 449 CURVE SMOOTH",
"185 714 OFFCURVE",
"295 956 OFFCURVE",
"572 956 CURVE SMOOTH",
"740 956 OFFCURVE",
"876 878 OFFCURVE",
"926 849 CURVE",
"930 780 OFFCURVE",
"936 369 OFFCURVE",
"941 299 CURVE",
"924 266 OFFCURVE",
"822 69 OFFCURVE",
"553 69 CURVE SMOOTH"
);
}
);
width = 1200;
},
{
anchors = (
{
name = bottom;
position = "{457.585, 0}";
},
{
name = ogonek;
position = "{899, 19}";
},
{
name = top;
position = "{742.415, 1063}";
}
);
layerId = "82219AB4-7C60-4B3A-9196-329BE868CB10";
paths = (
{
closed = 1;
nodes = (
"684 -7 OFFCURVE",
"854 144 OFFCURVE",
"871 173 CURVE",
"869 157 OFFCURVE",
"845 48 OFFCURVE",
"837 9 CURVE",
"871 9 OFFCURVE",
"907 14 OFFCURVE",
"936 19 CURVE",
"945 83 OFFCURVE",
"1080 712 OFFCURVE",
"1163 1021 CURVE",
"1147 1025 OFFCURVE",
"1115 1029 OFFCURVE",
"1084 1029 CURVE",
"1075 993 OFFCURVE",
"1063 949 OFFCURVE",
"1059 935 CURVE",
"1018 960 OFFCURVE",
"875 1035 OFFCURVE",
"712 1035 CURVE SMOOTH",
"353 1035 OFFCURVE",
"86 729 OFFCURVE",
"86 353 CURVE SMOOTH",
"86 140 OFFCURVE",
"184 -11 OFFCURVE",
"413 -9 CURVE SMOOTH"
);
},
{
closed = 1;
nodes = (
"258 69 OFFCURVE",
"175 187 OFFCURVE",
"175 360 CURVE SMOOTH",
"175 684 OFFCURVE",
"390 956 OFFCURVE",
"711 956 CURVE SMOOTH",
"879 956 OFFCURVE",
"994 878 OFFCURVE",
"1036 849 CURVE",
"1022 780 OFFCURVE",
"917 379 OFFCURVE",
"904 309 CURVE",
"878 276 OFFCURVE",
"713 69 OFFCURVE",
"454 69 CURVE SMOOTH"
);
}
);
width = 1200;
},
{
anchors = (
{
name = bottom;
position = "{457.585, 0}";
},
{
name = ogonek;
position = "{802, 10}";
},
{
name = top;
position = "{742.415, 1063}";
}
);
layerId = "63DB0068-8B02-4205-807F-6F2453D24B26";
paths = (
{
closed = 1;
nodes = (
"550 -10 OFFCURVE",
"634 42 OFFCURVE",
"682 99 CURVE",
"678 77 OFFCURVE",
"670 19 OFFCURVE",
"666 -3 CURVE",
"782 -3 OFFCURVE",
"958 10 OFFCURVE",
"1029 17 CURVE",
"1036 46 OFFCURVE",
"1235 906 OFFCURVE",
"1253 1036 CURVE",
"1196 1041 OFFCURVE",
"1004 1044 OFFCURVE",
"937 1044 CURVE",
"930 1024 OFFCURVE",
"908 968 OFFCURVE",
"889 918 CURVE",
"887 934 OFFCURVE",
"811 1007 OFFCURVE",
"657 1007 CURVE SMOOTH",
"295 1007 OFFCURVE",
"63 713 OFFCURVE",
"63 344 CURVE SMOOTH",
"63 141 OFFCURVE",
"163 -10 OFFCURVE",
"409 -10 CURVE SMOOTH"
);
},
{
closed = 1;
nodes = (
"474 359 OFFCURVE",
"428 389 OFFCURVE",
"428 458 CURVE SMOOTH",
"428 578 OFFCURVE",
"512 673 OFFCURVE",
"640 673 CURVE SMOOTH",
"697 673 OFFCURVE",
"756 658 OFFCURVE",
"789 638 CURVE",
"774 579 OFFCURVE",
"759 493 OFFCURVE",
"743 436 CURVE",
"673 366 OFFCURVE",
"598 359 OFFCURVE",
"534 359 CURVE SMOOTH"
);
}
);
width = 1200;
}
);
leftKerningGroup = a;
rightKerningGroup = n;
},
{
glyphname = ae;
lastChange = "2020-01-13 21:18:51 +0000";
layers = (
{
anchors = (
{
name = bottom;
position = "{939, 0}";
},
{
name = top;
position = "{939, 1063}";
}
);
components = (
{
alignment = -1;
name = e;
transform = "{1, 0, 0, 1, 725, 0}";
}
);
layerId = "B5042207-EFBA-41B6-8DFD-104A953B46A6";
paths = (
{
closed = 1;
nodes = (
"835 -18 OFFCURVE",
"1083 190 OFFCURVE",
"1083 462 CURVE SMOOTH",
"1083 632 OFFCURVE",
"1052 806 OFFCURVE",
"922 957 CURVE SMOOTH",
"821 1074 OFFCURVE",
"674 1115 OFFCURVE",
"538 1115 CURVE SMOOTH",
"374 1115 OFFCURVE",
"162 1039 OFFCURVE",
"69 952 CURVE",
"303 727 LINE",
"350 768 OFFCURVE",
"462 798 OFFCURVE",
"541 798 CURVE SMOOTH",
"620 798 OFFCURVE",
"668 771 OFFCURVE",
"693 733 CURVE SMOOTH",
"708 709 OFFCURVE",
"715 682 OFFCURVE",
"715 653 CURVE",
"684 677 OFFCURVE",
"585 684 OFFCURVE",
"532 684 CURVE SMOOTH",
"296 684 OFFCURVE",
"40 604 OFFCURVE",
"40 364 CURVE SMOOTH",
"40 111 OFFCURVE",
"276 -18 OFFCURVE",
"538 -18 CURVE SMOOTH"
);
},
{
closed = 1;
nodes = (
"464 272 OFFCURVE",
"404 275 OFFCURVE",
"404 338 CURVE SMOOTH",
"404 406 OFFCURVE",
"532 428 OFFCURVE",
"622 428 CURVE SMOOTH",
"661 428 OFFCURVE",
"699 422 OFFCURVE",
"730 408 CURVE",
"733 391 OFFCURVE",
"734 368 OFFCURVE",
"734 343 CURVE SMOOTH",
"734 313 OFFCURVE",
"655 272 OFFCURVE",
"523 272 CURVE SMOOTH"
);
}
);
width = 1762;
},
{
anchors = (
{
name = bottom;
position = "{857, 0}";
},
{
name = top;
position = "{857, 1063}";
}
);
components = (
{
alignment = -1;
name = e;
transform = "{1, 0, 0, 1, 744, 0}";
}
);
layerId = "B5195C1E-69AB-4BC6-9855-DF55601A0735";
paths = (
{
closed = 1;
nodes = (
"659 22 OFFCURVE",
"922 172 OFFCURVE",
"922 368 CURVE SMOOTH",
"922 694 OFFCURVE",
"885 850 OFFCURVE",
"799 950 CURVE SMOOTH",
"713 1050 OFFCURVE",
"622 1105 OFFCURVE",
"482 1105 CURVE SMOOTH",
"250 1105 OFFCURVE",
"109 978 OFFCURVE",
"49 865 CURVE",
"120 806 LINE",
"169 928 OFFCURVE",
"289 1027 OFFCURVE",
"470 1027 CURVE SMOOTH",
"604 1027 OFFCURVE",
"693 972 OFFCURVE",
"749 877 CURVE SMOOTH",
"785 815 OFFCURVE",
"807 738 OFFCURVE",
"819 648 CURVE",
"788 658 OFFCURVE",
"561 692 OFFCURVE",
"463 692 CURVE SMOOTH",
"245 692 OFFCURVE",
"66 571 OFFCURVE",
"66 342 CURVE SMOOTH",
"66 95 OFFCURVE",
"267 22 OFFCURVE",
"470 22 CURVE SMOOTH"
);
},
{
closed = 1;
nodes = (
"312 94 OFFCURVE",
"155 162 OFFCURVE",
"155 347 CURVE SMOOTH",
"155 508 OFFCURVE",
"291 617 OFFCURVE",
"448 617 CURVE SMOOTH",
"590 617 OFFCURVE",
"782 587 OFFCURVE",
"828 575 CURVE",
"835 518 OFFCURVE",
"844 434 OFFCURVE",
"844 383 CURVE SMOOTH",
"844 262 OFFCURVE",
"690 94 OFFCURVE",
"462 94 CURVE SMOOTH"
);
}
);
width = 1762;
},
{
anchors = (
{
name = bottom;
position = "{711, 0}";
},
{
name = top;
position = "{1007, 1063}";
}
);
components = (
{
alignment = -1;
name = e;
transform = "{1, 0, 0, 1, 746, 0}";
}
);
layerId = "82219AB4-7C60-4B3A-9196-329BE868CB10";
paths = (
{
closed = 1;
nodes = (
"582 22 OFFCURVE",
"838 170 OFFCURVE",
"879 368 CURVE SMOOTH",
"920 566 OFFCURVE",
"945 702 OFFCURVE",
"945 800 CURVE SMOOTH",
"945 991 OFFCURVE",
"816 1105 OFFCURVE",
"626 1105 CURVE SMOOTH",
"394 1105 OFFCURVE",
"229 978 OFFCURVE",
"139 865 CURVE",
"194 806 LINE",
"276 928 OFFCURVE",
"422 1027 OFFCURVE",
"603 1027 CURVE SMOOTH",
"786 1027 OFFCURVE",
"854 924 OFFCURVE",
"854 758 CURVE SMOOTH",
"854 724 OFFCURVE",
"851 687 OFFCURVE",
"846 648 CURVE",
"817 658 OFFCURVE",
"604 692 OFFCURVE",
"506 692 CURVE SMOOTH",
"248 692 OFFCURVE",
"11 536 OFFCURVE",
"11 284 CURVE SMOOTH",
"11 99 OFFCURVE",
"169 22 OFFCURVE",
"354 22 CURVE SMOOTH"
);
},
{
closed = 1;
nodes = (
"210 94 OFFCURVE",
"102 149 OFFCURVE",
"102 295 CURVE SMOOTH",
"102 489 OFFCURVE",
"277 617 OFFCURVE",
"471 617 CURVE SMOOTH",
"613 617 OFFCURVE",
"791 587 OFFCURVE",
"834 575 CURVE",
"826 518 OFFCURVE",
"812 434 OFFCURVE",
"799 383 CURVE SMOOTH",
"768 261 OFFCURVE",
"573 94 OFFCURVE",
"345 94 CURVE SMOOTH"
);
}
);
width = 1762;
},
{
anchors = (
{
name = bottom;
position = "{775, 0}";
},
{
name = top;
position = "{1069, 1063}";
}
);
components = (
{
alignment = -1;
name = e;
transform = "{1, 0, 0, 1, 768, 0}";
}
);
layerId = "63DB0068-8B02-4205-807F-6F2453D24B26";
paths = (
{
closed = 1;
nodes = (
"765 -18 OFFCURVE",
"1048 190 OFFCURVE",
"1122 462 CURVE SMOOTH",
"1144 543 OFFCURVE",
"1159 624 OFFCURVE",
"1159 704 CURVE SMOOTH",
"1159 970 OFFCURVE",
"1008 1115 OFFCURVE",
"732 1115 CURVE SMOOTH",
"568 1115 OFFCURVE",
"315 1039 OFFCURVE",
"199 952 CURVE",
"413 727 LINE",
"471 768 OFFCURVE",
"591 798 OFFCURVE",
"670 798 CURVE SMOOTH",
"753 798 OFFCURVE",
"811 767 OFFCURVE",
"811 694 CURVE SMOOTH",
"811 681 OFFCURVE",
"809 667 OFFCURVE",
"805 653 CURVE",
"780 677 OFFCURVE",
"663 684 OFFCURVE",
"610 684 CURVE SMOOTH",
"334 684 OFFCURVE",
"51 599 OFFCURVE",
"51 318 CURVE SMOOTH",
"51 98 OFFCURVE",
"222 -18 OFFCURVE",
"468 -18 CURVE SMOOTH"
);
},
{
closed = 1;
nodes = (
"459 272 OFFCURVE",
"407 274 OFFCURVE",
"407 318 CURVE SMOOTH",
"407 405 OFFCURVE",
"559 428 OFFCURVE",
"652 428 CURVE SMOOTH",
"691 428 OFFCURVE",
"727 422 OFFCURVE",
"754 408 CURVE",
"753 391 OFFCURVE",
"748 368 OFFCURVE",
"741 343 CURVE SMOOTH",
"733 313 OFFCURVE",
"643 272 OFFCURVE",
"511 272 CURVE SMOOTH"
);
}
);
width = 1867;
}
);
leftKerningGroup = a;
rightKerningGroup = e;
unicode = 00E6;
},
{
glyphname = b;
lastChange = "2020-04-22 01:59:04 +0000";
layers = (
{
anchors = (
{
name = bottom;
position = "{620, 0}";
},
{
name = top;
position = "{620, 1470}";
}
);
layerId = "B5042207-EFBA-41B6-8DFD-104A953B46A6";
paths = (
{
closed = 1;
nodes = (
"196 -15 OFFCURVE",
"335 -20 OFFCURVE",
"483 -19 CURVE",
"482 -9 OFFCURVE",
"478 75 OFFCURVE",
"475 114 CURVE",
"503 73 OFFCURVE",
"606 0 OFFCURVE",
"743 0 CURVE SMOOTH",
"981 0 OFFCURVE",
"1139 173 OFFCURVE",
"1139 447 CURVE SMOOTH",
"1139 772 OFFCURVE",
"974 918 OFFCURVE",
"748 918 CURVE SMOOTH",
"628 918 OFFCURVE",
"510 861 OFFCURVE",
"439 786 CURVE",
"421 1052 OFFCURVE",
"420 1335 OFFCURVE",
"422 1450 CURVE",
"217 1418 OFFCURVE",
"70 1389 OFFCURVE",
"52 1385 CURVE",
"52 1173 OFFCURVE",
"80 162 OFFCURVE",
"92 -2 CURVE"
);
},
{
closed = 1;
nodes = (
"463 400 OFFCURVE",
"459 479 OFFCURVE",
"458 501 CURVE",
"486 539 OFFCURVE",
"551 603 OFFCURVE",
"669 603 CURVE SMOOTH",
"754 603 OFFCURVE",
"786 547 OFFCURVE",
"786 479 CURVE SMOOTH",
"786 386 OFFCURVE",
"738 342 OFFCURVE",
"624 342 CURVE SMOOTH",
"566 342 OFFCURVE",
"495 361 OFFCURVE",
"464 378 CURVE"
);
}
);
width = 1200;
},
{
anchors = (
{
name = bottom;
position = "{600, 0}";
},
{
name = top;
position = "{600, 1470}";
}
);
layerId = "B5195C1E-69AB-4BC6-9855-DF55601A0735";
paths = (
{
closed = 1;
nodes = (
"239 -22 OFFCURVE",
"303 -20 OFFCURVE",
"318 -19 CURVE",
"316 12 OFFCURVE",
"315 74 OFFCURVE",
"313 113 CURVE",
"357 76 OFFCURVE",
"449 6 OFFCURVE",
"615 6 CURVE SMOOTH",
"876 6 OFFCURVE",
"1018 163 OFFCURVE",
"1018 427 CURVE SMOOTH",
"1018 698 OFFCURVE",
"892 923 OFFCURVE",
"634 923 CURVE SMOOTH",
"444 923 OFFCURVE",
"297 764 OFFCURVE",
"279 744 CURVE",
"268 980 OFFCURVE",
"260 1274 OFFCURVE",
"256 1438 CURVE",
"234 1439 OFFCURVE",
"191 1436 OFFCURVE",
"173 1433 CURVE",
"173 1221 OFFCURVE",
"205 142 OFFCURVE",
"217 -22 CURVE"
);
},
{
closed = 1;
nodes = (
"309 258 OFFCURVE",
"287 583 OFFCURVE",
"284 626 CURVE",
"352 709 OFFCURVE",
"466 844 OFFCURVE",
"629 844 CURVE SMOOTH",
"836 844 OFFCURVE",
"934 648 OFFCURVE",
"934 419 CURVE SMOOTH",
"934 219 OFFCURVE",
"838 88 OFFCURVE",
"629 88 CURVE SMOOTH",
"454 88 OFFCURVE",
"342 183 OFFCURVE",
"311 219 CURVE"
);
}
);
width = 1200;
},
{
anchors = (
{
name = bottom;
position = "{438, 0}";
},
{
name = top;
position = "{831, 1470}";
}
);
layerId = "82219AB4-7C60-4B3A-9196-329BE868CB10";
paths = (
{
closed = 1;
nodes = (
"129 -22 OFFCURVE",
"193 -20 OFFCURVE",
"208 -19 CURVE",
"215 12 OFFCURVE",
"230 74 OFFCURVE",
"239 113 CURVE",
"273 76 OFFCURVE",
"366 6 OFFCURVE",
"532 6 CURVE SMOOTH",
"882 6 OFFCURVE",
"1056 295 OFFCURVE",
"1056 558 CURVE SMOOTH",
"1056 791 OFFCURVE",
"990 923 OFFCURVE",
"757 923 CURVE SMOOTH",
"557 923 OFFCURVE",
"399 774 OFFCURVE",
"374 744 CURVE",
"429 991 OFFCURVE",
"487 1268 OFFCURVE",
"526 1432 CURVE",
"505 1433 OFFCURVE",
"461 1430 OFFCURVE",
"442 1427 CURVE",
"385 1215 OFFCURVE",
"138 142 OFFCURVE",
"107 -22 CURVE"
);
},
{
closed = 1;
nodes = (
"274 258 OFFCURVE",
"339 573 OFFCURVE",
"347 616 CURVE",
"427 699 OFFCURVE",
"588 844 OFFCURVE",
"741 844 CURVE SMOOTH",
"923 844 OFFCURVE",
"962 743 OFFCURVE",
"962 546 CURVE SMOOTH",
"962 295 OFFCURVE",
"804 88 OFFCURVE",
"548 88 CURVE SMOOTH",
"373 88 OFFCURVE",
"286 183 OFFCURVE",
"265 219 CURVE"
);
}
);
width = 1200;
},
{
anchors = (
{
name = bottom;
position = "{457.585, 0}";
},
{
name = top;
position = "{851.47, 1470}";
}
);
layerId = "63DB0068-8B02-4205-807F-6F2453D24B26";
paths = (
{
closed = 1;
nodes = (
"80 -15 OFFCURVE",
"242 -19 OFFCURVE",
"368 -19 CURVE",
"370 -9 OFFCURVE",
"388 75 OFFCURVE",
"396 114 CURVE",
"413 73 OFFCURVE",
"516 0 OFFCURVE",
"653 0 CURVE SMOOTH",
"962 0 OFFCURVE",
"1163 262 OFFCURVE",
"1163 591 CURVE SMOOTH",
"1163 815 OFFCURVE",
"1043 918 OFFCURVE",
"854 918 CURVE SMOOTH",
"734 918 OFFCURVE",
"631 861 OFFCURVE",
"540 786 CURVE",
"593 1052 OFFCURVE",
"664 1326 OFFCURVE",
"697 1441 CURVE",
"484 1409 OFFCURVE",
"329 1380 OFFCURVE",
"310 1376 CURVE",
"253 1164 OFFCURVE",
"13 162 OFFCURVE",
"-19 -2 CURVE"
);
},
{
closed = 1;
nodes = (
"460 400 OFFCURVE",
"477 479 OFFCURVE",
"482 501 CURVE",
"520 539 OFFCURVE",
"593 603 OFFCURVE",
"711 603 CURVE SMOOTH",
"781 603 OFFCURVE",
"808 565 OFFCURVE",
"808 513 CURVE SMOOTH",
"808 405 OFFCURVE",
"737 342 OFFCURVE",
"616 342 CURVE SMOOTH",
"558 342 OFFCURVE",
"482 361 OFFCURVE",
"455 378 CURVE"
);
}
);
width = 1200;
}
);
leftKerningGroup = h;
rightKerningGroup = o;
unicode = 0062;
},
{
glyphname = c;
lastChange = "2020-01-13 21:19:07 +0000";
layers = (
{
anchors = (
{
name = bottom;
position = "{513, 0}";
},
{
name = top;
position = "{513, 1063}";
}
);
layerId = "B5042207-EFBA-41B6-8DFD-104A953B46A6";
paths = (
{
closed = 1;
nodes = (
"730 501 LINE",
"716 479 OFFCURVE",
"634 393 OFFCURVE",
"532 393 CURVE SMOOTH",
"408 393 OFFCURVE",
"380 517 OFFCURVE",
"380 598 CURVE SMOOTH",
"380 718 OFFCURVE",
"440 786 OFFCURVE",
"558 786 CURVE SMOOTH",
"650 786 OFFCURVE",
"684 727 OFFCURVE",
"691 711 CURVE",
"961 855 LINE",
"871 1011 OFFCURVE",
"725 1096 OFFCURVE",
"537 1096 CURVE SMOOTH",
"225 1096 OFFCURVE",
"12 852 OFFCURVE",
"12 543 CURVE SMOOTH",
"12 240 OFFCURVE",
"212 -12 OFFCURVE",
"522 -12 CURVE SMOOTH",
"766 -12 OFFCURVE",
"925 105 OFFCURVE",
"993 215 CURVE"
);
}
);
width = 1026;
},
{
anchors = (
{
name = bottom;
position = "{513, 0}";
},
{
name = top;
position = "{513, 1063}";
}
);
layerId = "B5195C1E-69AB-4BC6-9855-DF55601A0735";
paths = (
{
closed = 1;
nodes = (
"863 246 LINE",
"851 226 OFFCURVE",
"756 73 OFFCURVE",
"550 73 CURVE SMOOTH",
"292 73 OFFCURVE",
"181 301 OFFCURVE",
"181 572 CURVE SMOOTH",
"181 833 OFFCURVE",
"311 1023 OFFCURVE",
"539 1023 CURVE SMOOTH",
"767 1023 OFFCURVE",
"833 861 OFFCURVE",
"848 821 CURVE",
"908 880 LINE",
"864 980 OFFCURVE",
"735 1094 OFFCURVE",
"551 1094 CURVE SMOOTH",
"239 1094 OFFCURVE",
"92 871 OFFCURVE",
"92 538 CURVE SMOOTH",
"92 245 OFFCURVE",
"257 -4 OFFCURVE",
"542 -4 CURVE SMOOTH",
"743 -4 OFFCURVE",
"888 113 OFFCURVE",
"926 203 CURVE"
);
}
);
width = 1026;
},
{
anchors = (
{
name = bottom;
position = "{399, 0}";
},
{
name = top;
position = "{645, 1063}";
}
);
layerId = "82219AB4-7C60-4B3A-9196-329BE868CB10";
paths = (
{
closed = 1;
nodes = (
"783 246 LINE",
"766 216 OFFCURVE",
"640 73 OFFCURVE",
"434 73 CURVE SMOOTH",
"244 73 OFFCURVE",
"172 195 OFFCURVE",
"172 368 CURVE SMOOTH",
"172 695 OFFCURVE",
"367 1023 OFFCURVE",
"677 1023 CURVE SMOOTH",
"905 1023 OFFCURVE",
"932 861 OFFCURVE",
"936 821 CURVE",
"1008 880 LINE",
"991 980 OFFCURVE",
"879 1094 OFFCURVE",
"695 1094 CURVE SMOOTH",
"325 1094 OFFCURVE",
"82 757 OFFCURVE",
"82 370 CURVE SMOOTH",
"82 154 OFFCURVE",
"186 -4 OFFCURVE",
"415 -4 CURVE SMOOTH",
"616 -4 OFFCURVE",
"782 113 OFFCURVE",
"844 203 CURVE"
);
}
);
width = 1026;
},
{
anchors = (
{
name = bottom;
position = "{403, 0}";
},
{
name = top;
position = "{655.415, 1063}";
}
);
layerId = "63DB0068-8B02-4205-807F-6F2453D24B26";
paths = (
{
closed = 1;
nodes = (
"740 501 LINE",
"720 479 OFFCURVE",
"625 393 OFFCURVE",
"523 393 CURVE SMOOTH",
"441 393 OFFCURVE",
"416 445 OFFCURVE",
"416 513 CURVE SMOOTH",
"416 666 OFFCURVE",
"498 786 OFFCURVE",
"654 786 CURVE SMOOTH",
"746 786 OFFCURVE",
"765 727 OFFCURVE",
"767 711 CURVE",
"1076 855 LINE",
"1028 1011 OFFCURVE",
"874 1096 OFFCURVE",
"686 1096 CURVE SMOOTH",
"311 1096 OFFCURVE",
"35 814 OFFCURVE",
"35 428 CURVE SMOOTH",
"35 174 OFFCURVE",
"154 -12 OFFCURVE",
"425 -12 CURVE SMOOTH",
"669 -12 OFFCURVE",
"859 105 OFFCURVE",
"936 215 CURVE"
);
}
);
width = 1026;
}
);
leftKerningGroup = o;
rightKerningGroup = c;
unicode = 0063;
},
{
glyphname = d;
lastChange = "2020-04-09 01:13:23 +0000";
layers = (
{
anchors = (
{
name = bottom;
position = "{598, 0}";
},
{
name = center;
position = "{841, 1191}";
},
{
name = top;
position = "{598, 1470}";
},
{
name = topright;
position = "{1175, 1063}";
}
);
layerId = "B5042207-EFBA-41B6-8DFD-104A953B46A6";
paths = (
{
closed = 1;
nodes = (
"825 -5 OFFCURVE",
"1019 -8 OFFCURVE",
"1075 -8 CURVE",
"1075 536 OFFCURVE",
"1088 969 OFFCURVE",
"1121 1424 CURVE",
"1028 1449 OFFCURVE",
"897 1460 OFFCURVE",
"804 1460 CURVE",
"798 1416 OFFCURVE",
"760 1060 OFFCURVE",
"750 851 CURVE",
"715 908 OFFCURVE",
"606 959 OFFCURVE",
"477 959 CURVE SMOOTH",
"177 959 OFFCURVE",
"31 723 OFFCURVE",
"31 462 CURVE SMOOTH",
"31 207 OFFCURVE",
"184 -3 OFFCURVE",
"427 -3 CURVE SMOOTH",
"601 -3 OFFCURVE",
"697 67 OFFCURVE",
"738 120 CURVE",
"738 84 OFFCURVE",
"740 27 OFFCURVE",
"744 3 CURVE"
);
},
{
closed = 1;
nodes = (
"438 359 OFFCURVE",
"385 409 OFFCURVE",
"385 499 CURVE SMOOTH",
"385 580 OFFCURVE",
"445 643 OFFCURVE",
"534 643 CURVE SMOOTH",
"599 643 OFFCURVE",
"689 613 OFFCURVE",
"731 572 CURVE",
"729 540 OFFCURVE",
"729 485 OFFCURVE",
"729 437 CURVE",
"678 376 OFFCURVE",
"601 359 OFFCURVE",
"533 359 CURVE SMOOTH"
);
}
);
width = 1195;
},
{
anchors = (
{
name = bottom;
position = "{598, 0}";
},
{
name = center;
position = "{882, 1220}";
},
{
name = top;
position = "{598, 1470}";
},
{
name = topright;
position = "{1175, 1063}";
}
);
layerId = "B5195C1E-69AB-4BC6-9855-DF55601A0735";
paths = (
{
closed = 1;
nodes = (
"930 2 OFFCURVE",
"988 1 OFFCURVE",
"1005 1 CURVE",
"1005 456 OFFCURVE",
"1006 927 OFFCURVE",
"1045 1401 CURVE",
"1027 1402 OFFCURVE",
"990 1404 OFFCURVE",
"961 1404 CURVE",
"952 1317 OFFCURVE",
"930 944 OFFCURVE",
"927 838 CURVE",
"882 872 OFFCURVE",
"748 959 OFFCURVE",
"537 959 CURVE SMOOTH",
"238 959 OFFCURVE",
"86 728 OFFCURVE",
"86 473 CURVE SMOOTH",
"86 183 OFFCURVE",
"239 8 OFFCURVE",
"524 8 CURVE SMOOTH",
"810 8 OFFCURVE",
"915 184 OFFCURVE",
"922 203 CURVE",
"922 174 OFFCURVE",
"922 43 OFFCURVE",
"922 3 CURVE"
);
},
{
closed = 1;
nodes = (
"302 85 OFFCURVE",
"172 214 OFFCURVE",
"172 469 CURVE SMOOTH",
"172 723 OFFCURVE",
"301 878 OFFCURVE",
"553 878 CURVE SMOOTH",
"736 878 OFFCURVE",
"876 790 OFFCURVE",
"925 749 CURVE",
"924 680 OFFCURVE",
"922 393 OFFCURVE",
"920 321 CURVE",
"904 283 OFFCURVE",
"794 85 OFFCURVE",
"537 85 CURVE SMOOTH"
);
}
);
width = 1195;
},
{
anchors = (
{
name = bottom;
position = "{455.585, 0}";
},
{
name = center;
position = "{1086, 1222}";
},
{
name = top;
position = "{849.47, 1470}";
},
{
name = topright;
position = "{1317.415, 1063}";
}
);
layerId = "82219AB4-7C60-4B3A-9196-329BE868CB10";
paths = (
{
closed = 1;
nodes = (
"799 2 OFFCURVE",
"847 1 OFFCURVE",
"874 1 CURVE",
"996 456 OFFCURVE",
"1125 923 OFFCURVE",
"1291 1397 CURVE",
"1273 1398 OFFCURVE",
"1237 1400 OFFCURVE",
"1208 1400 CURVE",
"1176 1313 OFFCURVE",
"1051 944 OFFCURVE",
"1020 838 CURVE",
"984 872 OFFCURVE",
"873 959 OFFCURVE",
"662 959 CURVE SMOOTH",
"317 959 OFFCURVE",
"76 732 OFFCURVE",
"76 381 CURVE SMOOTH",
"76 141 OFFCURVE",
"205 8 OFFCURVE",
"414 8 CURVE SMOOTH",
"700 8 OFFCURVE",
"833 184 OFFCURVE",
"845 203 CURVE",
"837 174 OFFCURVE",
"802 43 OFFCURVE",
"791 3 CURVE"
);
},
{
closed = 1;
nodes = (
"273 85 OFFCURVE",
"162 183 OFFCURVE",
"162 393 CURVE SMOOTH",
"162 697 OFFCURVE",
"353 878 OFFCURVE",
"659 878 CURVE SMOOTH",
"842 878 OFFCURVE",
"956 790 OFFCURVE",
"994 749 CURVE",
"975 680 OFFCURVE",
"896 413 OFFCURVE",
"874 341 CURVE",
"848 303 OFFCURVE",
"686 85 OFFCURVE",
"439 85 CURVE SMOOTH"
);
}
);
width = 1195;
},
{
anchors = (
{
name = bottom;
position = "{426, 0}";
},
{
name = center;
position = "{1054, 1177}";
},
{
name = top;
position = "{819, 1470}";
},
{
name = topright;
position = "{1287, 1063}";
}
);
layerId = "63DB0068-8B02-4205-807F-6F2453D24B26";
paths = (
{
closed = 1;
nodes = (
"708 -5 OFFCURVE",
"901 -8 OFFCURVE",
"957 -8 CURVE",
"1093 516 OFFCURVE",
"1216 963 OFFCURVE",
"1371 1418 CURVE",
"1285 1443 OFFCURVE",
"1157 1454 OFFCURVE",
"1064 1454 CURVE",
"1034 1379 OFFCURVE",
"919 1060 OFFCURVE",
"863 851 CURVE",
"843 908 OFFCURVE",
"727 959 OFFCURVE",
"598 959 CURVE SMOOTH",
"266 959 OFFCURVE",
"31 714 OFFCURVE",
"31 379 CURVE SMOOTH",
"31 175 OFFCURVE",
"184 -3 OFFCURVE",
"367 -3 CURVE SMOOTH",
"541 -3 OFFCURVE",
"609 66 OFFCURVE",
"655 120 CURVE",
"645 84 OFFCURVE",
"632 27 OFFCURVE",
"629 3 CURVE"
);
},
{
closed = 1;
nodes = (
"447 361 OFFCURVE",
"401 399 OFFCURVE",
"401 471 CURVE SMOOTH",
"401 573 OFFCURVE",
"490 645 OFFCURVE",
"590 645 CURVE SMOOTH",
"655 645 OFFCURVE",
"737 615 OFFCURVE",
"768 574 CURVE",
"758 542 OFFCURVE",
"743 487 OFFCURVE",
"730 439 CURVE",
"663 378 OFFCURVE",
"581 361 OFFCURVE",
"513 361 CURVE SMOOTH"
);
}
);
width = 1195;
}
);
leftKerningGroup = o;
rightKerningGroup = l;
unicode = 0064;
},
{
glyphname = eth;
lastChange = "2020-01-13 22:11:41 +0000";
layers = (
{
layerId = "B5042207-EFBA-41B6-8DFD-104A953B46A6";
paths = (
{
closed = 1;
nodes = (
"887 -17 OFFCURVE",
"1123 197 OFFCURVE",
"1123 475 CURVE SMOOTH",
"1123 867 OFFCURVE",
"969 1055 OFFCURVE",
"675 1188 CURVE",
"699 1239 OFFCURVE",
"714 1271 OFFCURVE",
"730 1321 CURVE",
"459 1412 LINE",
"441 1366 OFFCURVE",
"427 1333 OFFCURVE",
"406 1292 CURVE",
"371 1304 OFFCURVE",
"285 1325 OFFCURVE",
"227 1330 CURVE",
"78 1075 LINE",
"142 1063 OFFCURVE",
"206 1048 OFFCURVE",
"253 1032 CURVE",
"236 1005 OFFCURVE",
"227 991 OFFCURVE",
"184 949 CURVE",
"236 926 OFFCURVE",
"346 877 OFFCURVE",
"427 836 CURVE",
"461 874 OFFCURVE",
"499 910 OFFCURVE",
"530 950 CURVE",
"560 938 OFFCURVE",
"649 874 OFFCURVE",
"689 826 CURVE",
"673 832 OFFCURVE",
"637 839 OFFCURVE",
"605 839 CURVE SMOOTH",
"320 839 OFFCURVE",
"90 660 OFFCURVE",
"90 387 CURVE SMOOTH",
"90 94 OFFCURVE",
"318 -17 OFFCURVE",
"598 -17 CURVE SMOOTH"
);
},
{
closed = 1;
nodes = (
"532 297 OFFCURVE",
"426 324 OFFCURVE",
"426 411 CURVE SMOOTH",
"426 517 OFFCURVE",
"518 563 OFFCURVE",
"624 563 CURVE SMOOTH",
"720 563 OFFCURVE",
"777 529 OFFCURVE",
"777 442 CURVE SMOOTH",
"777 327 OFFCURVE",
"663 297 OFFCURVE",
"600 297 CURVE SMOOTH"
);
}
);
width = 1200;
},
{
layerId = "B5195C1E-69AB-4BC6-9855-DF55601A0735";
paths = (
{
closed = 1;
nodes = (
"875 -17 OFFCURVE",
"1022 205 OFFCURVE",
"1022 490 CURVE SMOOTH",
"1022 808 OFFCURVE",
"870 1009 OFFCURVE",
"574 1128 CURVE",
"598 1179 OFFCURVE",
"636 1280 OFFCURVE",
"651 1330 CURVE",
"562 1366 LINE",
"553 1309 OFFCURVE",
"511 1195 OFFCURVE",
"490 1154 CURVE",
"454 1166 OFFCURVE",
"253 1229 OFFCURVE",
"195 1244 CURVE",
"150 1169 LINE",
"200 1152 OFFCURVE",
"377 1107 OFFCURVE",
"446 1084 CURVE",
"428 1056 OFFCURVE",
"358 938 OFFCURVE",
"343 923 CURVE",
"361 912 OFFCURVE",
"388 896 OFFCURVE",
"412 887 CURVE",
"453 923 OFFCURVE",
"497 1013 OFFCURVE",
"530 1056 CURVE",
"678 1008 OFFCURVE",
"870 874 OFFCURVE",
"901 730 CURVE",
"855 790 OFFCURVE",
"745 846 OFFCURVE",
"605 846 CURVE SMOOTH",
"302 846 OFFCURVE",
"157 600 OFFCURVE",
"157 342 CURVE SMOOTH",
"157 101 OFFCURVE",
"331 -17 OFFCURVE",
"581 -17 CURVE SMOOTH"
);
},
{
closed = 1;
nodes = (
"406 53 OFFCURVE",
"249 155 OFFCURVE",
"249 352 CURVE SMOOTH",
"249 564 OFFCURVE",
"367 774 OFFCURVE",
"613 774 CURVE SMOOTH",
"789 774 OFFCURVE",
"931 646 OFFCURVE",
"931 463 CURVE SMOOTH",
"931 253 OFFCURVE",
"832 53 OFFCURVE",
"576 53 CURVE SMOOTH"
);
}
);
width = 1200;
},
{
layerId = "82219AB4-7C60-4B3A-9196-329BE868CB10";
paths = (
{
closed = 1;
nodes = (
"786 -17 OFFCURVE",
"1032 326 OFFCURVE",
"1032 687 CURVE SMOOTH",
"1032 891 OFFCURVE",
"920 1026 OFFCURVE",
"716 1118 CURVE",
"753 1169 OFFCURVE",
"828 1280 OFFCURVE",
"857 1330 CURVE",
"767 1366 LINE",
"743 1309 OFFCURVE",
"670 1195 OFFCURVE",
"638 1154 CURVE",
"606 1166 OFFCURVE",
"432 1229 OFFCURVE",
"378 1244 CURVE",
"323 1179 LINE",
"378 1162 OFFCURVE",
"520 1107 OFFCURVE",
"583 1084 CURVE",
"558 1056 OFFCURVE",
"449 938 OFFCURVE",
"430 923 CURVE",
"445 912 OFFCURVE",
"477 896 OFFCURVE",
"499 887 CURVE",
"550 923 OFFCURVE",
"615 1003 OFFCURVE",
"660 1046 CURVE",
"795 998 OFFCURVE",
"946 874 OFFCURVE",
"946 730 CURVE",
"926 790 OFFCURVE",
"811 846 OFFCURVE",
"671 846 CURVE SMOOTH",
"342 846 OFFCURVE",
"94 601 OFFCURVE",
"94 278 CURVE SMOOTH",
"94 88 OFFCURVE",
"219.997 -17 OFFCURVE",
"446 -17 CURVE SMOOTH"
);
},
{
closed = 1;
nodes = (
"284 53 OFFCURVE",
"190 130 OFFCURVE",
"190 300 CURVE SMOOTH",
"190 576 OFFCURVE",
"405 774 OFFCURVE",
"680 774 CURVE SMOOTH",
"825 774 OFFCURVE",
"917 687 OFFCURVE",
"917 554 CURVE SMOOTH",
"917 302 OFFCURVE",
"694 53 OFFCURVE",
"439 53 CURVE SMOOTH"
);
}
);
width = 1200;
},
{
layerId = "63DB0068-8B02-4205-807F-6F2453D24B26";
paths = (
{
closed = 1;
nodes = (
"888 -17 OFFCURVE",
"1142 297 OFFCURVE",
"1142 724 CURVE SMOOTH",
"1142 950 OFFCURVE",
"1054 1088 OFFCURVE",
"858 1188 CURVE",
"894 1229 OFFCURVE",
"920 1271 OFFCURVE",
"949 1321 CURVE",
"702 1412 LINE",
"672 1366 OFFCURVE",
"649 1333 OFFCURVE",
"617 1292 CURVE",
"586 1304 OFFCURVE",
"505 1325 OFFCURVE",
"448 1330 CURVE",
"231 1075 LINE",
"292 1063 OFFCURVE",
"352 1048 OFFCURVE",
"395 1032 CURVE",
"370 1005 OFFCURVE",
"340 977 OFFCURVE",
"303 949 CURVE",
"349 926 OFFCURVE",
"446 877 OFFCURVE",
"516 836 CURVE",
"560 874 OFFCURVE",
"608 910 OFFCURVE",
"650 950 CURVE",
"676 938 OFFCURVE",
"748 874 OFFCURVE",
"775 826 CURVE",
"761 832 OFFCURVE",
"727 839 OFFCURVE",
"695 839 CURVE SMOOTH",
"364 839 OFFCURVE",
"55 651 OFFCURVE",
"55 321 CURVE SMOOTH",
"55 88 OFFCURVE",
"222 -17 OFFCURVE",
"479 -17 CURVE SMOOTH"
);
},
{
closed = 1;
nodes = (
"482 297 OFFCURVE",
"400 329 OFFCURVE",
"400 396 CURVE SMOOTH",
"400 503 OFFCURVE",
"519 563 OFFCURVE",
"640 563 CURVE SMOOTH",
"724 563 OFFCURVE",
"763 529 OFFCURVE",
"763 469 CURVE SMOOTH",
"763 354 OFFCURVE",
"651 297 OFFCURVE",
"545 297 CURVE SMOOTH"
);
}
);
width = 1200;
}
);
leftKerningGroup = h;
rightKerningGroup = b;
unicode = 00F0;
},
{
glyphname = e;
lastChange = "2020-04-09 00:45:14 +0000";
layers = (
{
anchors = (
{
name = bottom;
position = "{526, 10}";
},
{
name = ogonek;
position = "{561, 30}";
},
{
name = top;
position = "{526, 1073}";
}
);
layerId = "B5042207-EFBA-41B6-8DFD-104A953B46A6";
paths = (
{
closed = 1;
nodes = (
"959 261 OFFCURVE",
"795 429 OFFCURVE",
"778 442 CURVE",
"689 368 OFFCURVE",
"606 349 OFFCURVE",
"556 349 CURVE SMOOTH",
"478 349 OFFCURVE",
"410 381 OFFCURVE",
"390 447 CURVE SMOOTH",
"385 461 OFFCURVE",
"383 476 OFFCURVE",
"383 492 CURVE",
"432 501 OFFCURVE",
"525 505 OFFCURVE",
"628 505 CURVE SMOOTH",
"673 505 OFFCURVE",
"960 495 OFFCURVE",
"993 495 CURVE",
"1003 543 OFFCURVE",
"1007 579 OFFCURVE",
"1007 632 CURVE SMOOTH",
"1007 906 OFFCURVE",
"846 1063 OFFCURVE",
"561 1063 CURVE SMOOTH",
"221 1063 OFFCURVE",
"24 832 OFFCURVE",
"24 485 CURVE SMOOTH",
"24 149 OFFCURVE",
"301 -16 OFFCURVE",
"531 -16 CURVE SMOOTH",
"709 -16 OFFCURVE",
"911 48 OFFCURVE",
"1007 150 CURVE"
);
},
{
closed = 1;
nodes = (
"405 748 OFFCURVE",
"448 831 OFFCURVE",
"547 831 CURVE SMOOTH",
"616 831 OFFCURVE",
"669 793 OFFCURVE",
"684 744 CURVE SMOOTH",
"687 734 OFFCURVE",
"689 724 OFFCURVE",
"689 714 CURVE",
"672 715 OFFCURVE",
"625 717 OFFCURVE",
"579 717 CURVE SMOOTH",
"497 717 OFFCURVE",
"437 710 OFFCURVE",
"400 704 CURVE"
);
}
);
width = 1052;
},
{
anchors = (
{
name = bottom;
position = "{516, 10}";
},
{
name = ogonek;
position = "{594, 63}";
},
{
name = top;
position = "{516, 1073}";
}
);
layerId = "B5195C1E-69AB-4BC6-9855-DF55601A0735";
paths = (
{
closed = 1;
nodes = (
"983 284 OFFCURVE",
"942 319 OFFCURVE",
"925 333 CURVE",
"918 319 OFFCURVE",
"807 101 OFFCURVE",
"538 101 CURVE SMOOTH",
"362 101 OFFCURVE",
"244 203 OFFCURVE",
"202 366 CURVE SMOOTH",
"192 406 OFFCURVE",
"186 450 OFFCURVE",
"185 497 CURVE",
"331 518 OFFCURVE",
"467 537 OFFCURVE",
"621 537 CURVE SMOOTH",
"763 537 OFFCURVE",
"931 525 OFFCURVE",
"950 525 CURVE",
"950 564 OFFCURVE",
"948 602 OFFCURVE",
"944 638 CURVE SMOOTH",
"917 894 OFFCURVE",
"790 1070 OFFCURVE",
"552 1070 CURVE SMOOTH",
"268 1070 OFFCURVE",
"98 867 OFFCURVE",
"98 568 CURVE SMOOTH",
"98 248 OFFCURVE",
"233 27 OFFCURVE",
"532 27 CURVE SMOOTH",
"800 27 OFFCURVE",
"955 207 OFFCURVE",
"991 266 CURVE"
);
},
{
closed = 1;
nodes = (
"185 849 OFFCURVE",
"325 984 OFFCURVE",
"544 984 CURVE SMOOTH",
"740 984 OFFCURVE",
"823 833 OFFCURVE",
"850 706 CURVE SMOOTH",
"857 672 OFFCURVE",
"860 639 OFFCURVE",
"860 612 CURVE",
"849 612 OFFCURVE",
"759 618 OFFCURVE",
"648 618 CURVE SMOOTH",
"431 618 OFFCURVE",
"310 599 OFFCURVE",
"179 578 CURVE"
);
}
);
width = 1052;
},
{
anchors = (
{
name = bottom;
position = "{374, 10}";
},
{
name = ogonek;
position = "{445, 53}";
},
{
name = top;
position = "{658, 1073}";
}
);
layerId = "82219AB4-7C60-4B3A-9196-329BE868CB10";
paths = (
{
closed = 1;
nodes = (
"903 284 OFFCURVE",
"872 319 OFFCURVE",
"858 333 CURVE",
"848 319 OFFCURVE",
"678 101 OFFCURVE",
"409 101 CURVE SMOOTH",
"228 101 OFFCURVE",
"155 245 OFFCURVE",
"155 381 CURVE SMOOTH",
"155 423 OFFCURVE",
"156 464 OFFCURVE",
"162 497 CURVE",
"244 508 OFFCURVE",
"435 523 OFFCURVE",
"579 528 CURVE SMOOTH",
"731 533 OFFCURVE",
"916 535 OFFCURVE",
"935 535 CURVE",
"956 615 OFFCURVE",
"967 679 OFFCURVE",
"967 746 CURVE SMOOTH",
"967 942 OFFCURVE",
"867 1070 OFFCURVE",
"664 1070 CURVE SMOOTH",
"313 1070 OFFCURVE",
"75 779 OFFCURVE",
"75 409 CURVE SMOOTH",
"75 175 OFFCURVE",
"172 27 OFFCURVE",
"403 27 CURVE SMOOTH",
"681 27 OFFCURVE",
"854 207 OFFCURVE",
"906 266 CURVE"
);
},
{
closed = 1;
nodes = (
"227 849 OFFCURVE",
"433 984 OFFCURVE",
"652 984 CURVE SMOOTH",
"830 984 OFFCURVE",
"881 869 OFFCURVE",
"884 751 CURVE SMOOTH",
"885 704 OFFCURVE",
"878 651 OFFCURVE",
"868 615 CURVE",
"857 615 OFFCURVE",
"729 612 OFFCURVE",
"608 609 CURVE SMOOTH",
"401 604 OFFCURVE",
"245 589 OFFCURVE",
"178 578 CURVE"
);
}
);
width = 1052;
},
{
anchors = (
{
name = bottom;
position = "{378, 10}";
},
{
name = ogonek;
position = "{443, 30}";
},
{
name = top;
position = "{662, 1073}";
}
);
layerId = "63DB0068-8B02-4205-807F-6F2453D24B26";
paths = (
{
closed = 1;
nodes = (
"903 261 OFFCURVE",
"774 429 OFFCURVE",
"760 442 CURVE",
"651 368 OFFCURVE",
"563 349 OFFCURVE",
"513 349 CURVE SMOOTH",
"435 349 OFFCURVE",
"374 381 OFFCURVE",
"374 447 CURVE SMOOTH",
"374 461 OFFCURVE",
"374 476 OFFCURVE",
"379 492 CURVE",
"410 497 OFFCURVE",
"534 502 OFFCURVE",
"627 505 CURVE SMOOTH",
"692 507 OFFCURVE",
"956 515 OFFCURVE",
"989 515 CURVE",
"1029 598 OFFCURVE",
"1059 677 OFFCURVE",
"1059 767 CURVE SMOOTH",
"1059 957 OFFCURVE",
"914 1063 OFFCURVE",
"680 1063 CURVE SMOOTH",
"277 1063 OFFCURVE",
"15 791 OFFCURVE",
"15 379 CURVE SMOOTH",
"15 144 OFFCURVE",
"162 -16 OFFCURVE",
"440 -16 CURVE SMOOTH",
"618 -16 OFFCURVE",
"798 48 OFFCURVE",
"921 150 CURVE"
);
},
{
closed = 1;
nodes = (
"469 748 OFFCURVE",
"534 831 OFFCURVE",
"633 831 CURVE SMOOTH",
"702 831 OFFCURVE",
"747 803 OFFCURVE",
"747 754 CURVE SMOOTH",
"747 734 OFFCURVE",
"746 724 OFFCURVE",
"744 718 CURVE",
"727 718 OFFCURVE",
"681 717 OFFCURVE",
"635 716 CURVE SMOOTH",
"553 714 OFFCURVE",
"481 708 OFFCURVE",
"452 704 CURVE"
);
}
);
width = 1052;
}
);
leftKerningGroup = o;
rightKerningGroup = e;
unicode = 0065;
},
{
glyphname = schwa;
lastChange = "2020-02-19 21:15:26 +0000";
layers = (
{
anchors = (
{
name = bottom;
position = "{516, 0}";
},
{
name = ogonek;
position = "{594, 53}";
},
{
name = top;
position = "{516, 1063}";
}
);
layerId = "B5195C1E-69AB-4BC6-9855-DF55601A0735";
paths = (
{
closed = 1;
nodes = (
"106 803 OFFCURVE",
"147 768 OFFCURVE",
"164 754 CURVE",
"171 768 OFFCURVE",
"282 986 OFFCURVE",
"551 986 CURVE SMOOTH",
"727 986 OFFCURVE",
"845 884 OFFCURVE",
"887 721 CURVE SMOOTH",
"897 681 OFFCURVE",
"903 637 OFFCURVE",
"904 590 CURVE",
"758 584 OFFCURVE",
"622 577 OFFCURVE",
"468 570 CURVE SMOOTH",
"326 564 OFFCURVE",
"158 559 OFFCURVE",
"139 559 CURVE",
"139 520 OFFCURVE",
"141 485 OFFCURVE",
"145 449 CURVE SMOOTH",
"172 193 OFFCURVE",
"299 17 OFFCURVE",
"537 17 CURVE SMOOTH",
"821 17 OFFCURVE",
"991 220 OFFCURVE",
"991 519 CURVE SMOOTH",
"991 839 OFFCURVE",
"856 1060 OFFCURVE",
"557 1060 CURVE SMOOTH",
"289 1060 OFFCURVE",
"134 880 OFFCURVE",
"98 821 CURVE"
);
},
{
closed = 1;
nodes = (
"904 238 OFFCURVE",
"764 103 OFFCURVE",
"545 103 CURVE SMOOTH",
"349 103 OFFCURVE",
"266 254 OFFCURVE",
"239 381 CURVE SMOOTH",
"232 415 OFFCURVE",
"229 448 OFFCURVE",
"229 475 CURVE",
"240 475 OFFCURVE",
"330 485 OFFCURVE",
"441 489 CURVE SMOOTH",
"643 497 OFFCURVE",
"789 503 OFFCURVE",
"910 509 CURVE"
);
}
);
width = 1032;
},
{
anchors = (
{
name = bottom;
position = "{516, 0}";
},
{
name = ogonek;
position = "{551, 20}";
},
{
name = top;
position = "{516, 1063}";
}
);
layerId = "B5042207-EFBA-41B6-8DFD-104A953B46A6";
paths = (
{
closed = 1;
nodes = (
"82 786 OFFCURVE",
"209 646 OFFCURVE",
"226 633 CURVE",
"315 707 OFFCURVE",
"435 721 OFFCURVE",
"485 721 CURVE SMOOTH",
"563 721 OFFCURVE",
"632 676 OFFCURVE",
"651 610 CURVE SMOOTH",
"655 596 OFFCURVE",
"658 581 OFFCURVE",
"658 565 CURVE",
"609 558 OFFCURVE",
"516 545 OFFCURVE",
"413 542 CURVE SMOOTH",
"322 539 OFFCURVE",
"81 532 OFFCURVE",
"48 532 CURVE",
"38 482 OFFCURVE",
"34 438 OFFCURVE",
"34 385 CURVE SMOOTH",
"34 111 OFFCURVE",
"195 -16 OFFCURVE",
"480 -16 CURVE SMOOTH",
"830 -16 OFFCURVE",
"997 225 OFFCURVE",
"997 582 CURVE SMOOTH",
"997 898 OFFCURVE",
"740 1063 OFFCURVE",
"510 1063 CURVE SMOOTH",
"332 1063 OFFCURVE",
"130 999 OFFCURVE",
"34 897 CURVE"
);
},
{
closed = 1;
nodes = (
"636 329 OFFCURVE",
"593 226 OFFCURVE",
"494 226 CURVE SMOOTH",
"425 226 OFFCURVE",
"372 264 OFFCURVE",
"357 313 CURVE SMOOTH",
"354 323 OFFCURVE",
"352 333 OFFCURVE",
"352 343 CURVE",
"367 343 OFFCURVE",
"416 347 OFFCURVE",
"462 351 CURVE SMOOTH",
"544 358 OFFCURVE",
"604 367 OFFCURVE",
"641 373 CURVE"
);
}
);
width = 1032;
},
{
anchors = (
{
name = bottom;
position = "{373.585, 0}";
},
{
name = ogonek;
position = "{445, 43}";
},
{
name = top;
position = "{658.415, 1063}";
}
);
layerId = "82219AB4-7C60-4B3A-9196-329BE868CB10";
paths = (
{
closed = 1;
nodes = (
"177 803 OFFCURVE",
"212 768 OFFCURVE",
"226 754 CURVE",
"236 768 OFFCURVE",
"402 986 OFFCURVE",
"671 986 CURVE SMOOTH",
"845 986 OFFCURVE",
"936 886 OFFCURVE",
"936 726 CURVE SMOOTH",
"936 685 OFFCURVE",
"929 639 OFFCURVE",
"918 590 CURVE",
"770 584 OFFCURVE",
"632 577 OFFCURVE",
"476 570 CURVE SMOOTH",
"333 564 OFFCURVE",
"163 559 OFFCURVE",
"144 559 CURVE",
"127 493 OFFCURVE",
"112 408 OFFCURVE",
"112 341 CURVE SMOOTH",
"112 145 OFFCURVE",
"214 17 OFFCURVE",
"417 17 CURVE SMOOTH",
"770 17 OFFCURVE",
"1017 360 OFFCURVE",
"1017 730 CURVE SMOOTH",
"1017 932 OFFCURVE",
"911 1060 OFFCURVE",
"683 1060 CURVE SMOOTH",
"415 1060 OFFCURVE",
"216 880 OFFCURVE",
"174 821 CURVE"
);
},
{
closed = 1;
nodes = (
"823 238 OFFCURVE",
"647 103 OFFCURVE",
"428 103 CURVE SMOOTH",
"245 103 OFFCURVE",
"196 235 OFFCURVE",
"196 355 CURVE SMOOTH",
"196 398 OFFCURVE",
"203 441 OFFCURVE",
"212 475 CURVE",
"223 475 OFFCURVE",
"316 485 OFFCURVE",
"428 489 CURVE SMOOTH",
"632 497 OFFCURVE",
"779 503 OFFCURVE",
"902 509 CURVE"
);
}
);
width = 1032;
},
{
anchors = (
{
name = bottom;
position = "{373.585, 0}";
},
{
name = ogonek;
position = "{439, 20}";
},
{
name = top;
position = "{658.415, 1063}";
}
);
layerId = "63DB0068-8B02-4205-807F-6F2453D24B26";
paths = (
{
closed = 1;
nodes = (
"160 786 OFFCURVE",
"247 646 OFFCURVE",
"261 633 CURVE",
"369 707 OFFCURVE",
"493 721 OFFCURVE",
"543 721 CURVE SMOOTH",
"621 721 OFFCURVE",
"679 676 OFFCURVE",
"679 610 CURVE SMOOTH",
"679 596 OFFCURVE",
"679 581 OFFCURVE",
"674 565 CURVE",
"624 558 OFFCURVE",
"527 545 OFFCURVE",
"423 542 CURVE SMOOTH",
"331 539 OFFCURVE",
"89 532 OFFCURVE",
"56 532 CURVE",
"16 456 OFFCURVE",
"-5 375 OFFCURVE",
"-5 282 CURVE SMOOTH",
"-5 79 OFFCURVE",
"134 -16 OFFCURVE",
"363 -16 CURVE SMOOTH",
"759 -16 OFFCURVE",
"1030 284 OFFCURVE",
"1030 681 CURVE SMOOTH",
"1030 918 OFFCURVE",
"866 1063 OFFCURVE",
"663 1063 CURVE SMOOTH",
"485 1063 OFFCURVE",
"265 999 OFFCURVE",
"142 897 CURVE"
);
},
{
closed = 1;
nodes = (
"589 329 OFFCURVE",
"519 226 OFFCURVE",
"420 226 CURVE SMOOTH",
"351 226 OFFCURVE",
"306 264 OFFCURVE",
"306 313 CURVE SMOOTH",
"306 323 OFFCURVE",
"306 333 OFFCURVE",
"309 343 CURVE",
"324 343 OFFCURVE",
"374 347 OFFCURVE",
"421 351 CURVE SMOOTH",
"505 358 OFFCURVE",
"567 367 OFFCURVE",
"606 373 CURVE"
);
}
);
width = 1032;
}
);
leftKerningGroup = o;
rightKerningGroup = o;
unicode = 0259;
},
{
glyphname = f;
lastChange = "2020-04-09 00:49:06 +0000";
layers = (
{
anchors = (
{
name = bottom;
position = "{448, 0}";
},
{
name = top;
position = "{448, 1470}";
}
);
layerId = "B5042207-EFBA-41B6-8DFD-104A953B46A6";
paths = (
{
closed = 1;
nodes = (
"343 -15 OFFCURVE",
"543 -12 OFFCURVE",
"641 4 CURVE",
"631 55 OFFCURVE",
"569 400 OFFCURVE",
"557 475 CURVE",
"605 479 OFFCURVE",
"729 482 OFFCURVE",
"748 482 CURVE",
"748 576 OFFCURVE",
"745 709 OFFCURVE",
"735 796 CURVE",
"696 802 OFFCURVE",
"573 809 OFFCURVE",
"513 809 CURVE",
"505 832 OFFCURVE",
"504 849 OFFCURVE",
"504 868 CURVE SMOOTH",
"504 930 OFFCURVE",
"535 972 OFFCURVE",
"600 972 CURVE SMOOTH",
"636 972 OFFCURVE",
"685 945 OFFCURVE",
"720 898 CURVE",
"752 944 OFFCURVE",
"856 1115 OFFCURVE",
"909 1213 CURVE",
"873 1265 OFFCURVE",
"793 1357 OFFCURVE",
"562 1357 CURVE SMOOTH",
"269 1357 OFFCURVE",
"127 1133 OFFCURVE",
"127 898 CURVE SMOOTH",
"127 850 OFFCURVE",
"131 801 OFFCURVE",
"138 752 CURVE",
"113 747 OFFCURVE",
"41 730 OFFCURVE",
"17 721 CURVE",
"19 603 OFFCURVE",
"41 463 OFFCURVE",
"65 385 CURVE",
"106 400 OFFCURVE",
"145 414 OFFCURVE",
"162 417 CURVE",
"191 185 OFFCURVE",
"212 3 OFFCURVE",
"215 -15 CURVE"
);
}
);
width = 896;
},
{
anchors = (
{
name = bottom;
position = "{448, 0}";
},
{
name = top;
position = "{448, 1470}";
}
);
layerId = "B5195C1E-69AB-4BC6-9855-DF55601A0735";
paths = (
{
closed = 1;
nodes = (
"361 3 OFFCURVE",
"409 12 OFFCURVE",
"434 19 CURVE",
"421 50 OFFCURVE",
"350 398 OFFCURVE",
"323 583 CURVE",
"451 600 OFFCURVE",
"634 614 OFFCURVE",
"653 614 CURVE",
"653 639 OFFCURVE",
"650 672 OFFCURVE",
"646 691 CURVE",
"573 691 OFFCURVE",
"381 670 OFFCURVE",
"312 660 CURVE",
"304 728 OFFCURVE",
"294 840 OFFCURVE",
"294 912 CURVE SMOOTH",
"294 1108 OFFCURVE",
"341 1293 OFFCURVE",
"529 1293 CURVE SMOOTH",
"712 1293 OFFCURVE",
"794 1081 OFFCURVE",
"807 1046 CURVE",
"824 1058 OFFCURVE",
"863 1092 OFFCURVE",
"874 1106 CURVE",
"852 1167 OFFCURVE",
"736 1368 OFFCURVE",
"527 1368 CURVE SMOOTH",
"308 1368 OFFCURVE",
"211 1170 OFFCURVE",
"211 923 CURVE SMOOTH",
"211 839 OFFCURVE",
"220 737 OFFCURVE",
"231 646 CURVE",
"204 641 OFFCURVE",
"46 603 OFFCURVE",
"21 593 CURVE",
"24 573 OFFCURVE",
"31 542 OFFCURVE",
"39 520 CURVE",
"80 535 OFFCURVE",
"177 559 OFFCURVE",
"240 571 CURVE",
"269 368 OFFCURVE",
"340 21 OFFCURVE",
"344 2 CURVE"
);
}
);
width = 896;
},
{
anchors = (
{
name = bottom;
position = "{305.585, 0}";
},
{
name = top;
position = "{699.47, 1470}";
}
);
layerId = "82219AB4-7C60-4B3A-9196-329BE868CB10";
paths = (
{
closed = 1;
nodes = (
"232 3 OFFCURVE",
"283 12 OFFCURVE",
"314 19 CURVE",
"314 115 OFFCURVE",
"340 472 OFFCURVE",
"354 583 CURVE",
"486 600 OFFCURVE",
"673 614 OFFCURVE",
"692 614 CURVE",
"699 639 OFFCURVE",
"705 672 OFFCURVE",
"706 691 CURVE",
"633 691 OFFCURVE",
"435 670 OFFCURVE",
"363 660 CURVE",
"374 728 OFFCURVE",
"394 840 OFFCURVE",
"413 912 CURVE SMOOTH",
"465 1108 OFFCURVE",
"562 1293 OFFCURVE",
"750 1293 CURVE SMOOTH",
"933 1293 OFFCURVE",
"958 1081 OFFCURVE",
"962 1046 CURVE",
"982 1058 OFFCURVE",
"1030 1092 OFFCURVE",
"1045 1106 CURVE",
"1039 1167 OFFCURVE",
"967 1368 OFFCURVE",
"758 1368 CURVE SMOOTH",
"539 1368 OFFCURVE",
"394 1170 OFFCURVE",
"329 923 CURVE SMOOTH",
"307 839 OFFCURVE",
"288 737 OFFCURVE",
"275 646 CURVE",
"246 641 OFFCURVE",
"82 603 OFFCURVE",
"54 593 CURVE",
"54 578 OFFCURVE",
"54 534 OFFCURVE",
"53 520 CURVE",
"98 535 OFFCURVE",
"197 559 OFFCURVE",
"263 571 CURVE",
"238 368 OFFCURVE",
"216 21 OFFCURVE",
"215 2 CURVE"
);
}
);
width = 896;
},
{
anchors = (
{
name = bottom;
position = "{305.585, 0}";
},
{
name = top;
position = "{699.47, 1470}";
}
);
layerId = "63DB0068-8B02-4205-807F-6F2453D24B26";
paths = (
{
closed = 1;
nodes = (
"212 -15 OFFCURVE",
"413 -12 OFFCURVE",
"515 4 CURVE",
"519 55 OFFCURVE",
"549 400 OFFCURVE",
"557 475 CURVE",
"607 479 OFFCURVE",
"731 482 OFFCURVE",
"750 482 CURVE",
"776 576 OFFCURVE",
"808 709 OFFCURVE",
"821 796 CURVE",
"784 802 OFFCURVE",
"663 809 OFFCURVE",
"603 809 CURVE",
"603 827 OFFCURVE",
"605 849 OFFCURVE",
"610 868 CURVE SMOOTH",
"626 930 OFFCURVE",
"669 972 OFFCURVE",
"734 972 CURVE SMOOTH",
"770 972 OFFCURVE",
"811 945 OFFCURVE",
"834 898 CURVE",
"878 944 OFFCURVE",
"1028 1115 OFFCURVE",
"1107 1213 CURVE",
"1085 1265 OFFCURVE",
"1010 1357 OFFCURVE",
"779 1357 CURVE SMOOTH",
"486 1357 OFFCURVE",
"295 1133 OFFCURVE",
"231 898 CURVE SMOOTH",
"218 850 OFFCURVE",
"209 801 OFFCURVE",
"203 752 CURVE",
"176 747 OFFCURVE",
"110 730 OFFCURVE",
"83 721 CURVE",
"54 603 OFFCURVE",
"41 463 OFFCURVE",
"41 385 CURVE",
"86 400 OFFCURVE",
"129 414 OFFCURVE",
"147 417 CURVE",
"114 185 OFFCURVE",
"86 3 OFFCURVE",
"84 -15 CURVE"
);
}
);
width = 896;
}
);
leftKerningGroup = f;
rightKerningGroup = f;
unicode = 0066;
},
{
glyphname = g;
lastChange = "2020-04-09 00:49:55 +0000";
layers = (
{
anchors = (
{
name = bottom;
position = "{616, -530}";
},
{
name = top;
position = "{616, 1063}";
}
);
layerId = "B5042207-EFBA-41B6-8DFD-104A953B46A6";
paths = (
{
closed = 1;
nodes = (
"946 274 OFFCURVE",
"1128 407 OFFCURVE",
"1128 677 CURVE SMOOTH",
"1128 902 OFFCURVE",
"972 1056 OFFCURVE",
"634 1056 CURVE SMOOTH",
"315 1056 OFFCURVE",
"85 924 OFFCURVE",
"85 664 CURVE SMOOTH",
"85 468 OFFCURVE",
"227 274 OFFCURVE",
"663 274 CURVE SMOOTH"
);
},
{
closed = 1;
nodes = (
"926 -499 OFFCURVE",
"1178 -395 OFFCURVE",
"1178 -106 CURVE SMOOTH",
"1178 113 OFFCURVE",
"1031 207 OFFCURVE",
"819 207 CURVE SMOOTH",
"677 207 OFFCURVE",
"600 197 OFFCURVE",
"519 197 CURVE SMOOTH",
"220 197 OFFCURVE",
"36 30 OFFCURVE",
"36 -140 CURVE SMOOTH",
"36 -424 OFFCURVE",
"301 -499 OFFCURVE",
"621 -499 CURVE SMOOTH"
);
},
{
closed = 1;
nodes = (
"504 -214 OFFCURVE",
"431 -171 OFFCURVE",
"431 -109 CURVE SMOOTH",
"431 -41 OFFCURVE",
"468 -28 OFFCURVE",
"535 -28 CURVE SMOOTH",
"579 -28 OFFCURVE",
"645 -27 OFFCURVE",
"684 -27 CURVE SMOOTH",
"752 -27 OFFCURVE",
"810 -51 OFFCURVE",
"810 -112 CURVE SMOOTH",
"810 -178 OFFCURVE",
"737 -214 OFFCURVE",
"628 -214 CURVE SMOOTH"
);
},
{
closed = 1;
nodes = (
"519 197 LINE",
"452 197 OFFCURVE",
"419 225 OFFCURVE",
"419 255 CURVE SMOOTH",
"419 278 OFFCURVE",
"440 303 OFFCURVE",
"482 318 CURVE",
"231 436 LINE",
"189 422 OFFCURVE",
"111 368 OFFCURVE",
"111 269 CURVE SMOOTH",
"111 188 OFFCURVE",
"171 124 OFFCURVE",
"371 80 CURVE"
);
},
{
closed = 1;
nodes = (
"551 566 OFFCURVE",
"483 597 OFFCURVE",
"483 673 CURVE SMOOTH",
"483 751 OFFCURVE",
"569 774 OFFCURVE",
"643 774 CURVE SMOOTH",
"706 774 OFFCURVE",
"774 737 OFFCURVE",
"774 675 CURVE SMOOTH",
"774 593 OFFCURVE",
"716 566 OFFCURVE",
"632 566 CURVE SMOOTH"
);
},
{
closed = 1;
nodes = (
"1081 870 OFFCURVE",
"1156 924 OFFCURVE",
"1229 956 CURVE",
"1181 1017 OFFCURVE",
"1095 1143 OFFCURVE",
"1061 1193 CURVE",
"969 1156 OFFCURVE",
"859 1045 OFFCURVE",
"840 967 CURVE",
"1060 781 LINE"
);
}
);
width = 1231;
},
{
anchors = (
{
name = bottom;
position = "{616, -530}";
},
{
name = top;
position = "{616, 1063}";
}
);
layerId = "B5195C1E-69AB-4BC6-9855-DF55601A0735";
paths = (
{
closed = 1;
nodes = (
"864 205 OFFCURVE",
"1052 372 OFFCURVE",
"1052 643 CURVE SMOOTH",
"1052 903 OFFCURVE",
"885 1056 OFFCURVE",
"612 1056 CURVE SMOOTH",
"375 1056 OFFCURVE",
"180 896 OFFCURVE",
"180 635 CURVE SMOOTH",
"180 419 OFFCURVE",
"299 205 OFFCURVE",
"627 205 CURVE SMOOTH"
);
},
{
closed = 1;
nodes = (
"892 -499 OFFCURVE",
"1073 -401 OFFCURVE",
"1073 -175 CURVE SMOOTH",
"1073 -5 OFFCURVE",
"914 72 OFFCURVE",
"702 72 CURVE SMOOTH",
"624 72 OFFCURVE",
"509 71 OFFCURVE",
"424 71 CURVE SMOOTH",
"210 71 OFFCURVE",
"78 -52 OFFCURVE",
"78 -208 CURVE SMOOTH",
"78 -432 OFFCURVE",
"285 -499 OFFCURVE",
"571 -499 CURVE SMOOTH"
);
},
{
closed = 1;
nodes = (
"372 -429 OFFCURVE",
"168 -393 OFFCURVE",
"168 -208 CURVE SMOOTH",
"168 -41 OFFCURVE",
"315 5 OFFCURVE",
"410 5 CURVE SMOOTH",
"455 5 OFFCURVE",
"605 2 OFFCURVE",
"706 2 CURVE SMOOTH",
"822 2 OFFCURVE",
"985 -26 OFFCURVE",
"985 -187 CURVE SMOOTH",
"985 -378 OFFCURVE",
"799 -429 OFFCURVE",
"589 -429 CURVE SMOOTH"
);
},
{
closed = 1;
nodes = (
"424 71 LINE",
"325 71 OFFCURVE",
"255 135 OFFCURVE",
"255 196 CURVE SMOOTH",
"255 238 OFFCURVE",
"286 281 OFFCURVE",
"366 306 CURVE",
"326 350 LINE",
"236 336 OFFCURVE",
"174 262 OFFCURVE",
"174 190 CURVE SMOOTH",
"174 114 OFFCURVE",
"243 27 OFFCURVE",
"366 11 CURVE"
);
},
{
closed = 1;
nodes = (
"401 282 OFFCURVE",
"267 428 OFFCURVE",
"267 640 CURVE SMOOTH",
"267 877 OFFCURVE",
"413 974 OFFCURVE",
"631 974 CURVE SMOOTH",
"839 974 OFFCURVE",
"972 833 OFFCURVE",
"972 650 CURVE SMOOTH",
"972 447 OFFCURVE",
"872 282 OFFCURVE",
"611 282 CURVE SMOOTH"
);
},
{
closed = 1;
nodes = (
"950 909 OFFCURVE",
"1080 1034 OFFCURVE",
"1103 1057 CURVE",
"1091 1066 OFFCURVE",
"1049 1113 OFFCURVE",
"1039 1128 CURVE",
"991 1079 OFFCURVE",
"914 986 OFFCURVE",
"875 908 CURVE",
"921 872 LINE"
);
}
);
width = 1231;
},
{
anchors = (
{
name = bottom;
position = "{331.572, -530}";
},
{
name = top;
position = "{758.415, 1063}";
}
);
layerId = "82219AB4-7C60-4B3A-9196-329BE868CB10";
paths = (
{
closed = 1;
nodes = (
"861 205 OFFCURVE",
"1094 424 OFFCURVE",
"1094 743 CURVE SMOOTH",
"1094 933 OFFCURVE",
"970 1056 OFFCURVE",
"741 1056 CURVE SMOOTH",
"439 1056 OFFCURVE",
"192 827 OFFCURVE",
"192 531 CURVE SMOOTH",
"192 369 OFFCURVE",
"282 205 OFFCURVE",
"548 205 CURVE SMOOTH"
);
},
{
closed = 1;
nodes = (
"626 -499 OFFCURVE",
"883 -404 OFFCURVE",
"883 -128 CURVE SMOOTH",
"883 5 OFFCURVE",
"762 72 OFFCURVE",
"577 72 CURVE SMOOTH",
"499 72 OFFCURVE",
"384 71 OFFCURVE",
"301 71 CURVE SMOOTH",
"94 71 OFFCURVE",
"-125 -48 OFFCURVE",
"-125 -251 CURVE SMOOTH",
"-125 -420 OFFCURVE",
"59 -499 OFFCURVE",
"313 -499 CURVE SMOOTH"
);
},
{
closed = 1;
nodes = (
"132 -429 OFFCURVE",
"-32 -376 OFFCURVE",
"-32 -232 CURVE SMOOTH",
"-32 -84 OFFCURVE",
"137 3 OFFCURVE",
"279 3 CURVE SMOOTH",
"374 3 OFFCURVE",
"471 2 OFFCURVE",
"572 2 CURVE SMOOTH",
"675 2 OFFCURVE",
"791 -25 OFFCURVE",
"791 -148 CURVE SMOOTH",
"791 -360 OFFCURVE",
"563 -429 OFFCURVE",
"330 -429 CURVE SMOOTH"
);
},
{
closed = 1;
nodes = (
"301 71 LINE",
"213 71 OFFCURVE",
"166 123 OFFCURVE",
"166 176 CURVE SMOOTH",
"166 234 OFFCURVE",
"225 280 OFFCURVE",
"316 303 CURVE",
"276 350 LINE",
"171 334 OFFCURVE",
"76 265 OFFCURVE",
"76 164 CURVE SMOOTH",
"76 99 OFFCURVE",
"126 23 OFFCURVE",
"227 9 CURVE"
);
},
{
closed = 1;
nodes = (
"370 282 OFFCURVE",
"281 394 OFFCURVE",
"281 540 CURVE SMOOTH",
"281 802 OFFCURVE",
"481 974 OFFCURVE",
"748 974 CURVE SMOOTH",
"924 974 OFFCURVE",
"1011 868 OFFCURVE",
"1011 723 CURVE SMOOTH",
"1011 463 OFFCURVE",
"816 282 OFFCURVE",
"542 282 CURVE SMOOTH"
);
},
{
closed = 1;
nodes = (
"1049 909 OFFCURVE",
"1215 1044 OFFCURVE",
"1245 1067 CURVE",
"1233 1078 OFFCURVE",
"1197 1115 OFFCURVE",
"1187 1132 CURVE",
"1126 1083 OFFCURVE",
"1024 990 OFFCURVE",
"964 912 CURVE",
"1010 872 LINE"
);
}
);
width = 1231;
},
{
anchors = (
{
name = bottom;
position = "{331.572, -530}";
},
{
name = top;
position = "{758.415, 1063}";
}
);
layerId = "63DB0068-8B02-4205-807F-6F2453D24B26";
paths = (
{
closed = 1;
nodes = (
"939 274 OFFCURVE",
"1183 436 OFFCURVE",
"1183 737 CURVE SMOOTH",
"1183 933 OFFCURVE",
"1055 1056 OFFCURVE",
"747 1056 CURVE SMOOTH",
"416 1056 OFFCURVE",
"129 922 OFFCURVE",
"129 606 CURVE SMOOTH",
"129 431 OFFCURVE",
"233 274 OFFCURVE",
"626 274 CURVE SMOOTH"
);
},
{
closed = 1;
nodes = (
"723 -499 OFFCURVE",
"1024 -373 OFFCURVE",
"1024 -46 CURVE SMOOTH",
"1024 123 OFFCURVE",
"914 207 OFFCURVE",
"724 207 CURVE SMOOTH",
"582 207 OFFCURVE",
"523 197 OFFCURVE",
"442 197 CURVE SMOOTH",
"159 197 OFFCURVE",
"-132 44 OFFCURVE",
"-132 -210 CURVE SMOOTH",
"-132 -430 OFFCURVE",
"71 -499 OFFCURVE",
"377 -499 CURVE SMOOTH"
);
},
{
closed = 1;
nodes = (
"330 -214 OFFCURVE",
"269 -180 OFFCURVE",
"269 -129 CURVE SMOOTH",
"269 -60 OFFCURVE",
"318 -28 OFFCURVE",
"398 -28 CURVE SMOOTH",
"442 -28 OFFCURVE",
"508 -27 OFFCURVE",
"547 -27 CURVE SMOOTH",
"606 -27 OFFCURVE",
"653 -45 OFFCURVE",
"653 -91 CURVE SMOOTH",
"653 -174 OFFCURVE",
"548 -214 OFFCURVE",
"441 -214 CURVE SMOOTH"
);
},
{
closed = 1;
nodes = (
"442 197 LINE",
"383 197 OFFCURVE",
"356 219 OFFCURVE",
"356 245 CURVE SMOOTH",
"356 270 OFFCURVE",
"384 301 OFFCURVE",
"437 318 CURVE",
"218 436 LINE",
"135 411 OFFCURVE",
"48 320 OFFCURVE",
"48 233 CURVE SMOOTH",
"48 169 OFFCURVE",
"103 117 OFFCURVE",
"262 80 CURVE"
);
},
{
closed = 1;
nodes = (
"589 566 OFFCURVE",
"532 593 OFFCURVE",
"532 657 CURVE SMOOTH",
"532 750 OFFCURVE",
"631 774 OFFCURVE",
"710 774 CURVE SMOOTH",
"773 774 OFFCURVE",
"825 737 OFFCURVE",
"825 675 CURVE SMOOTH",
"825 591 OFFCURVE",
"748 566 OFFCURVE",
"664 566 CURVE SMOOTH"
);
},
{
closed = 1;
nodes = (
"1184 870 OFFCURVE",
"1274 924 OFFCURVE",
"1355 956 CURVE",
"1324 1017 OFFCURVE",
"1271 1143 OFFCURVE",
"1251 1193 CURVE",
"1149 1156 OFFCURVE",
"1009 1045 OFFCURVE",
"969 967 CURVE",
"1139 781 LINE"
);
}
);
width = 1231;
}
);
leftKerningGroup = g.ss01;
rightKerningGroup = g.ss01;
unicode = 0067;
},
{
glyphname = g.ss01;
lastChange = "2020-04-09 00:12:50 +0000";
layers = (
{
anchors = (
{
name = bottom;
position = "{627, -530}";
},
{
name = top;
position = "{627, 1063}";
}
);
layerId = "B5042207-EFBA-41B6-8DFD-104A953B46A6";
paths = (
{
closed = 1;
nodes = (
"183 -429 OFFCURVE",
"469 -479 OFFCURVE",
"683 -479 CURVE SMOOTH",
"979 -479 OFFCURVE",
"1192 -347 OFFCURVE",
"1192 -48 CURVE SMOOTH",
"1192 49 OFFCURVE",
"1135 576 OFFCURVE",
"1135 916 CURVE SMOOTH",
"1135 988 OFFCURVE",
"1138 1047 OFFCURVE",
"1142 1089 CURVE",
"1080 1103 OFFCURVE",
"975 1109 OFFCURVE",
"889 1109 CURVE SMOOTH",
"838 1109 OFFCURVE",
"793 1107 OFFCURVE",
"768 1103 CURVE",
"761 1056 OFFCURVE",
"759 997 OFFCURVE",
"759 969 CURVE",
"673 1013 OFFCURVE",
"581 1039 OFFCURVE",
"493 1039 CURVE SMOOTH",
"233 1039 OFFCURVE",
"0 906 OFFCURVE",
"0 561 CURVE SMOOTH",
"0 197 OFFCURVE",
"250 60 OFFCURVE",
"545 60 CURVE SMOOTH",
"609 60 OFFCURVE",
"696 62 OFFCURVE",
"812 99 CURVE",
"814 79 OFFCURVE",
"815 60 OFFCURVE",
"815 43 CURVE SMOOTH",
"815 -77 OFFCURVE",
"750 -119 OFFCURVE",
"663 -119 CURVE SMOOTH",
"543 -119 OFFCURVE",
"371 -54 OFFCURVE",
"256 19 CURVE",
"222 -19 OFFCURVE",
"34 -296 OFFCURVE",
"28 -316 CURVE"
);
},
{
closed = 1;
nodes = (
"467 408 OFFCURVE",
"362 439 OFFCURVE",
"362 550 CURVE SMOOTH",
"362 657 OFFCURVE",
"429 711 OFFCURVE",
"560 711 CURVE SMOOTH",
"630 711 OFFCURVE",
"704 686 OFFCURVE",
"756 661 CURVE",
"756 614 OFFCURVE",
"769 509 OFFCURVE",
"774 470 CURVE",
"720 441 OFFCURVE",
"636 408 OFFCURVE",
"554 408 CURVE SMOOTH"
);
}
);
width = 1253;
},
{
anchors = (
{
name = bottom;
position = "{627, -530}";
},
{
name = top;
position = "{627, 1138}";
}
);
layerId = "B5195C1E-69AB-4BC6-9855-DF55601A0735";
paths = (
{
closed = 1;
nodes = (
"204 -418 OFFCURVE",
"394 -471 OFFCURVE",
"575 -471 CURVE SMOOTH",
"919 -471 OFFCURVE",
"1060 -268 OFFCURVE",
"1060 103 CURVE SMOOTH",
"1060 195 OFFCURVE",
"1019 377 OFFCURVE",
"999 663 CURVE SMOOTH",
"990 793 OFFCURVE",
"990 892 OFFCURVE",
"990 1088 CURVE",
"977 1091 OFFCURVE",
"964 1093 OFFCURVE",
"949 1093 CURVE SMOOTH",
"937 1093 OFFCURVE",
"916 1092 OFFCURVE",
"909 1091 CURVE",
"907 1065 OFFCURVE",
"902 999 OFFCURVE",
"902 961 CURVE",
"846 1019 OFFCURVE",
"728 1062 OFFCURVE",
"588 1062 CURVE SMOOTH",
"320 1062 OFFCURVE",
"108 877 OFFCURVE",
"108 562 CURVE SMOOTH",
"108 287 OFFCURVE",
"278 60 OFFCURVE",
"572 60 CURVE SMOOTH",
"794 60 OFFCURVE",
"942 156 OFFCURVE",
"971 193 CURVE",
"974 172 OFFCURVE",
"976 146 OFFCURVE",
"976 91 CURVE SMOOTH",
"976 -201 OFFCURVE",
"863 -397 OFFCURVE",
"572 -397 CURVE SMOOTH",
"396 -397 OFFCURVE",
"211 -324 OFFCURVE",
"145 -282 CURVE",
"135 -296 OFFCURVE",
"116 -352 OFFCURVE",
"115 -373 CURVE"
);
},
{
closed = 1;
nodes = (
"346 135 OFFCURVE",
"193 327 OFFCURVE",
"193 555 CURVE SMOOTH",
"193 877 OFFCURVE",
"420 980 OFFCURVE",
"578 980 CURVE SMOOTH",
"718 980 OFFCURVE",
"846 942 OFFCURVE",
"905 861 CURVE",
"905 742 OFFCURVE",
"934 466 OFFCURVE",
"961 273 CURVE",
"906 222 OFFCURVE",
"772 135 OFFCURVE",
"584 135 CURVE SMOOTH"
);
}
);
width = 1253;
},
{
anchors = (
{
name = bottom;
position = "{342.572, -530}";
},
{
name = top;
position = "{769.415, 1063}";
}
);
layerId = "82219AB4-7C60-4B3A-9196-329BE868CB10";
paths = (
{
closed = 1;
nodes = (
"-1 -418 OFFCURVE",
"174 -471 OFFCURVE",
"355 -471 CURVE SMOOTH",
"699 -471 OFFCURVE",
"893 -268 OFFCURVE",
"994 103 CURVE SMOOTH",
"1019 195 OFFCURVE",
"1032 377 OFFCURVE",
"1083 663 CURVE SMOOTH",
"1106 793 OFFCURVE",
"1136 912 OFFCURVE",
"1188 1088 CURVE",
"1180 1091 OFFCURVE",
"1164 1093 OFFCURVE",
"1149 1093 CURVE SMOOTH",
"1131 1093 OFFCURVE",
"1115 1092 OFFCURVE",
"1108 1091 CURVE",
"1097 1065 OFFCURVE",
"1076 999 OFFCURVE",
"1066 961 CURVE",
"1026 1019 OFFCURVE",
"908 1062 OFFCURVE",
"768 1062 CURVE SMOOTH",
"416 1062 OFFCURVE",
"154 814 OFFCURVE",
"154 454 CURVE SMOOTH",
"154 232 OFFCURVE",
"263 60 OFFCURVE",
"517 60 CURVE SMOOTH",
"739 60 OFFCURVE",
"890 156 OFFCURVE",
"929 193 CURVE",
"927 172 OFFCURVE",
"922 146 OFFCURVE",
"907 91 CURVE SMOOTH",
"827 -201 OFFCURVE",
"653 -397 OFFCURVE",
"372 -397 CURVE SMOOTH",
"196 -397 OFFCURVE",
"31 -324 OFFCURVE",
"-24 -282 CURVE",
"-38 -296 OFFCURVE",
"-72 -352 OFFCURVE",
"-78 -373 CURVE"
);
},
{
closed = 1;
nodes = (
"330 135 OFFCURVE",
"242 283 OFFCURVE",
"242 468 CURVE SMOOTH",
"242 769 OFFCURVE",
"448 980 OFFCURVE",
"747 980 CURVE SMOOTH",
"887 980 OFFCURVE",
"1005 942 OFFCURVE",
"1042 861 CURVE",
"1010 742 OFFCURVE",
"966 466 OFFCURVE",
"941 273 CURVE",
"872 222 OFFCURVE",
"724 135 OFFCURVE",
"536 135 CURVE SMOOTH"
);
}
);
width = 1253;
},
{
anchors = (
{
name = bottom;
position = "{323, -530}";
},
{
name = top;
position = "{749, 1063}";
}
);
layerId = "63DB0068-8B02-4205-807F-6F2453D24B26";
paths = (
{
closed = 1;
nodes = (
"-46 -429 OFFCURVE",
"256 -479 OFFCURVE",
"470 -479 CURVE SMOOTH",
"766 -479 OFFCURVE",
"985 -347 OFFCURVE",
"1065 -48 CURVE SMOOTH",
"1091 49 OFFCURVE",
"1176 576 OFFCURVE",
"1266 916 CURVE SMOOTH",
"1285 988 OFFCURVE",
"1304 1047 OFFCURVE",
"1319 1089 CURVE",
"1261 1103 OFFCURVE",
"1189 1109 OFFCURVE",
"1103 1109 CURVE SMOOTH",
"1052 1109 OFFCURVE",
"975 1107 OFFCURVE",
"949 1103 CURVE",
"930 1056 OFFCURVE",
"912 997 OFFCURVE",
"904 969 CURVE",
"850 1013 OFFCURVE",
"735 1039 OFFCURVE",
"647 1039 CURVE SMOOTH",
"291 1039 OFFCURVE",
"30 828 OFFCURVE",
"30 465 CURVE SMOOTH",
"30 166 OFFCURVE",
"228 60 OFFCURVE",
"487 60 CURVE SMOOTH",
"551 60 OFFCURVE",
"628 61 OFFCURVE",
"714 99 CURVE",
"711 79 OFFCURVE",
"707 60 OFFCURVE",
"702 43 CURVE SMOOTH",
"667 -76 OFFCURVE",
"594 -119 OFFCURVE",
"507 -119 CURVE SMOOTH",
"387 -119 OFFCURVE",
"245 -54 OFFCURVE",
"149 19 CURVE",
"105 -19 OFFCURVE",
"-160 -296 OFFCURVE",
"-171 -316 CURVE"
);
},
{
closed = 1;
nodes = (
"467 408 OFFCURVE",
"394 433 OFFCURVE",
"394 531 CURVE SMOOTH",
"394 651 OFFCURVE",
"497 711 OFFCURVE",
"636 711 CURVE SMOOTH",
"706 711 OFFCURVE",
"773 686 OFFCURVE",
"819 661 CURVE",
"806 614 OFFCURVE",
"791 509 OFFCURVE",
"786 470 CURVE",
"724 441 OFFCURVE",
"631 408 OFFCURVE",
"549 408 CURVE SMOOTH"
);
}
);
width = 1253;
}
);
leftKerningGroup = g;
rightKerningGroup = g;
},
